<svg width="20" height="10" viewBox="0 0 20 10" fill="none" xmlns="http://www.w3.org/2000/svg">
<path d="M19.375 5.00032C19.3751 5.86566 19.1185 6.71158 18.6378 7.4311C18.1571 8.15063 17.4738 8.71143 16.6743 9.04259C15.8748 9.37375 14.9951 9.46039 14.1464 9.29155C13.2977 9.12271 12.5181 8.70599 11.9063 8.09407L11.8805 8.06672L7.19689 2.77766C6.7584 2.3443 6.20153 2.05031 5.59635 1.93271C4.99117 1.8151 4.36472 1.87912 3.79584 2.11672C3.22696 2.35432 2.74107 2.75487 2.39931 3.26798C2.05756 3.78109 1.8752 4.38382 1.8752 5.00032C1.8752 5.61682 2.05756 6.21955 2.39931 6.73266C2.74107 7.24576 3.22696 7.64632 3.79584 7.88392C4.36472 8.12151 4.99117 8.18554 5.59635 8.06793C6.20153 7.95032 6.7584 7.65634 7.19689 7.22297L7.86251 6.47141C7.91694 6.40985 7.98296 6.35962 8.0568 6.32358C8.13064 6.28753 8.21086 6.26639 8.29287 6.26135C8.37488 6.2563 8.45709 6.26746 8.53478 6.29419C8.61248 6.32092 8.68416 6.36269 8.74572 6.41711C8.80727 6.47154 8.85751 6.53756 8.89355 6.6114C8.92959 6.68524 8.95074 6.76546 8.95578 6.84747C8.96082 6.92948 8.94966 7.01169 8.92294 7.08939C8.89621 7.16709 8.85444 7.23876 8.80001 7.30032L8.12111 8.06672L8.09533 8.09407C7.48345 8.70588 6.7039 9.12251 5.85525 9.29129C5.00659 9.46006 4.12695 9.37339 3.32755 9.04225C2.52815 8.7111 1.84489 8.15035 1.36418 7.43089C0.88347 6.71144 0.626892 5.86559 0.626892 5.00032C0.626892 4.13504 0.88347 3.2892 1.36418 2.56974C1.84489 1.85029 2.52815 1.28953 3.32755 0.958387C4.12695 0.627241 5.00659 0.540575 5.85525 0.709349C6.7039 0.878124 7.48345 1.29476 8.09533 1.90657L8.12111 1.93391L12.8047 7.22297C13.2432 7.65634 13.8001 7.95032 14.4052 8.06793C15.0104 8.18554 15.6369 8.12151 16.2057 7.88392C16.7746 7.64632 17.2605 7.24576 17.6023 6.73266C17.944 6.21955 18.1264 5.61682 18.1264 5.00032C18.1264 4.38382 17.944 3.78109 17.6023 3.26798C17.2605 2.75487 16.7746 2.35432 16.2057 2.11672C15.6369 1.87912 15.0104 1.8151 14.4052 1.93271C13.8001 2.05031 13.2432 2.3443 12.8047 2.77766L12.1391 3.52922C12.0292 3.65354 11.8744 3.72911 11.7087 3.73929C11.5431 3.74947 11.3802 3.69344 11.2559 3.58352C11.1316 3.4736 11.056 3.3188 11.0458 3.15316C11.0356 2.98753 11.0917 2.82464 11.2016 2.70032L11.8805 1.93391L11.9063 1.90657C12.5181 1.29465 13.2977 0.87792 14.1464 0.709084C14.9951 0.540247 15.8748 0.626887 16.6743 0.958047C17.4738 1.28921 18.1571 1.85001 18.6378 2.56953C19.1185 3.28906 19.3751 4.13498 19.375 5.00032Z" fill="#343330"/>
</svg>
