<svg width="36" height="36" viewBox="0 0 36 36" fill="none" xmlns="http://www.w3.org/2000/svg">
<rect width="36" height="36" rx="18" fill="url(#paint0_linear_9_34)" fill-opacity="0.4"/>
<path d="M17.5 15.14V13.947C16.92 13.833 16.442 13.5487 16.066 13.094C15.6887 12.6393 15.5 12.108 15.5 11.5C15.5 10.8027 15.7423 10.2117 16.227 9.727C16.7117 9.24233 17.3027 9 18 9C18.6973 9 19.2883 9.24233 19.773 9.727C20.2577 10.2117 20.5 10.8027 20.5 11.5C20.5 12.108 20.3117 12.639 19.935 13.093C19.5577 13.5477 19.0793 13.832 18.5 13.946V15.141L26 19.471V22.529L18.808 26.687C18.5547 26.8317 18.2853 26.904 18 26.904C17.7147 26.904 17.4453 26.8317 17.192 26.687L10 22.529V19.47L17.5 15.14ZM11.723 19.616L18 23.23L24.258 19.614L18.5 16.286V19.5H17.5V16.287L11.723 19.616Z" fill="#106B6E"/>
<path d="M17.4578 16.3481L11.7818 19.6204L18.0099 23.1527L24.2906 19.6204L18.5493 16.3481V19.6204H17.4578V16.3481Z" fill="#3AC4A0" stroke="#106B6E"/>
<defs>
<linearGradient id="paint0_linear_9_34" x1="18" y1="0" x2="18" y2="36" gradientUnits="userSpaceOnUse">
<stop stop-color="#0DB488"/>
<stop offset="1" stop-color="#3AC4A0" stop-opacity="0"/>
</linearGradient>
</defs>
</svg>
