<svg width="21" height="20" viewBox="0 0 21 20" fill="none" xmlns="http://www.w3.org/2000/svg">
<g clip-path="url(#clip0_16975_10409)">
<path d="M19.9166 15.8333C19.9166 16.2754 19.741 16.6993 19.4284 17.0118C19.1159 17.3244 18.6919 17.5 18.2499 17.5H3.24992C2.80789 17.5 2.38397 17.3244 2.07141 17.0118C1.75885 16.6993 1.58325 16.2754 1.58325 15.8333V6.66667C1.58325 6.22464 1.75885 5.80072 2.07141 5.48816C2.38397 5.17559 2.80789 5 3.24992 5H6.58325L8.24992 2.5H13.2499L14.9166 5H18.2499C18.6919 5 19.1159 5.17559 19.4284 5.48816C19.741 5.80072 19.9166 6.22464 19.9166 6.66667V15.8333Z" stroke="#3AC4A0" stroke-linecap="round" stroke-linejoin="round"/>
<path d="M10.7501 14.1667C12.591 14.1667 14.0834 12.6743 14.0834 10.8333C14.0834 8.99238 12.591 7.5 10.7501 7.5C8.90913 7.5 7.41675 8.99238 7.41675 10.8333C7.41675 12.6743 8.90913 14.1667 10.7501 14.1667Z" stroke="#3AC4A0" stroke-linecap="round" stroke-linejoin="round"/>
</g>
<defs>
<clipPath id="clip0_16975_10409">
<rect width="20" height="20" fill="white" transform="translate(0.75)"/>
</clipPath>
</defs>
</svg>
