<svg width="16" height="16" viewBox="0 0 16 16" fill="none" xmlns="http://www.w3.org/2000/svg">
<g clip-path="url(#clip0_16093_30355)">
<path fill-rule="evenodd" clip-rule="evenodd" d="M1.03875 10.1677C1.62506 9.58134 2.42027 9.25195 3.24944 9.25195H8.25166C9.08083 9.25195 9.87604 9.58134 10.4624 10.1677C11.0487 10.754 11.3781 11.5492 11.3781 12.3783V13.6289C11.3781 13.9742 11.0981 14.2542 10.7528 14.2542C10.4074 14.2542 10.1275 13.9742 10.1275 13.6289V12.3783C10.1275 11.8808 9.92986 11.4037 9.57808 11.0519C9.22629 10.7001 8.74916 10.5025 8.25166 10.5025H3.24944C2.75194 10.5025 2.27481 10.7001 1.92302 11.0519C1.57123 11.4037 1.3736 11.8808 1.3736 12.3783V13.6289C1.3736 13.9742 1.09366 14.2542 0.748325 14.2542C0.402993 14.2542 0.123047 13.9742 0.123047 13.6289V12.3783C0.123047 11.5492 0.452434 10.754 1.03875 10.1677Z" fill="#BDBDBD"/>
<path fill-rule="evenodd" clip-rule="evenodd" d="M5.75139 2.99958C4.71539 2.99958 3.87556 3.83942 3.87556 4.87541C3.87556 5.91141 4.71539 6.75125 5.75139 6.75125C6.78738 6.75125 7.62722 5.91141 7.62722 4.87541C7.62722 3.83942 6.78738 2.99958 5.75139 2.99958ZM2.625 4.87541C2.625 3.14876 4.02473 1.74902 5.75139 1.74902C7.47805 1.74902 8.87778 3.14876 8.87778 4.87541C8.87778 6.60207 7.47805 8.0018 5.75139 8.0018C4.02473 8.0018 2.625 6.60207 2.625 4.87541Z" fill="#BDBDBD"/>
<path fill-rule="evenodd" clip-rule="evenodd" d="M12.0239 9.80212C12.1102 9.46775 12.4513 9.26668 12.7857 9.35301C13.4564 9.52619 14.0506 9.91722 14.475 10.4647C14.8994 11.0122 15.1299 11.6851 15.1304 12.3778L15.1304 13.6288C15.1304 13.9742 14.8505 14.2541 14.5052 14.2541C14.1598 14.2541 13.8799 13.9742 13.8799 13.6288L13.8799 12.3787C13.8799 12.3787 13.8799 12.3788 13.8799 12.3787C13.8795 11.9632 13.7412 11.5593 13.4866 11.2309C13.232 10.9024 12.8754 10.6678 12.473 10.5639C12.1387 10.4775 11.9376 10.1365 12.0239 9.80212Z" fill="#BDBDBD"/>
<path fill-rule="evenodd" clip-rule="evenodd" d="M9.52164 2.30041C9.6073 1.96587 9.94794 1.76411 10.2825 1.84977C10.955 2.02196 11.551 2.41307 11.9767 2.96144C12.4024 3.50982 12.6334 4.18427 12.6334 4.87846C12.6334 5.57265 12.4024 6.2471 11.9767 6.79547C11.551 7.34385 10.955 7.73496 10.2825 7.90715C9.94794 7.9928 9.6073 7.79104 9.52164 7.4565C9.43599 7.12196 9.63775 6.78133 9.97229 6.69567C10.3758 6.59236 10.7334 6.35769 10.9888 6.02867C11.2442 5.69964 11.3828 5.29497 11.3828 4.87846C11.3828 4.46194 11.2442 4.05727 10.9888 3.72825C10.7334 3.39922 10.3758 3.16456 9.97229 3.06124C9.63775 2.97559 9.43599 2.63495 9.52164 2.30041Z" fill="#BDBDBD"/>
</g>
<defs>
<clipPath id="clip0_16093_30355">
<rect width="15.0067" height="15.0067" fill="white" transform="translate(0.123047 0.498047)"/>
</clipPath>
</defs>
</svg>
