<svg width="16" height="16" viewBox="0 0 16 16" fill="none" xmlns="http://www.w3.org/2000/svg">
<g clip-path="url(#clip0_16093_30387)">
<path fill-rule="evenodd" clip-rule="evenodd" d="M3.19029 3.15192C2.84496 3.15192 2.56501 3.43187 2.56501 3.7772V12.5311C2.56501 12.8764 2.84496 13.1564 3.19029 13.1564H11.9442C12.2895 13.1564 12.5695 12.8764 12.5695 12.5311V3.7772C12.5695 3.43187 12.2895 3.15192 11.9442 3.15192H3.19029ZM1.31445 3.7772C1.31445 2.74121 2.15429 1.90137 3.19029 1.90137H11.9442C12.9802 1.90137 13.82 2.74121 13.82 3.7772V12.5311C13.82 13.5671 12.9802 14.4069 11.9442 14.4069H3.19029C2.15429 14.4069 1.31445 13.5671 1.31445 12.5311V3.7772Z" fill="#3AC4A0"/>
<path fill-rule="evenodd" clip-rule="evenodd" d="M10.0686 0.650391C10.414 0.650391 10.6939 0.930337 10.6939 1.27567V3.77678C10.6939 4.12211 10.414 4.40206 10.0686 4.40206C9.72331 4.40206 9.44336 4.12211 9.44336 3.77678V1.27567C9.44336 0.930337 9.72331 0.650391 10.0686 0.650391Z" fill="#3AC4A0"/>
<path fill-rule="evenodd" clip-rule="evenodd" d="M5.06668 0.650391C5.41202 0.650391 5.69196 0.930337 5.69196 1.27567V3.77678C5.69196 4.12211 5.41202 4.40206 5.06668 4.40206C4.72135 4.40206 4.44141 4.12211 4.44141 3.77678V1.27567C4.44141 0.930337 4.72135 0.650391 5.06668 0.650391Z" fill="#3AC4A0"/>
<path fill-rule="evenodd" clip-rule="evenodd" d="M1.31445 6.2786C1.31445 5.93327 1.5944 5.65332 1.93973 5.65332H13.1947C13.5401 5.65332 13.82 5.93327 13.82 6.2786C13.82 6.62393 13.5401 6.90388 13.1947 6.90388H1.93973C1.5944 6.90388 1.31445 6.62393 1.31445 6.2786Z" fill="#3AC4A0"/>
</g>
<defs>
<clipPath id="clip0_16093_30387">
<rect width="15.0067" height="15.0067" fill="white" transform="translate(0.0644531 0.0253906)"/>
</clipPath>
</defs>
</svg>
