<svg width="15" height="16" viewBox="0 0 15 16" fill="none" xmlns="http://www.w3.org/2000/svg">
<g clip-path="url(#clip0_16093_30363)">
<path d="M13.2618 9.94347C12.8641 10.8842 12.2419 11.7131 11.4497 12.3579C10.6575 13.0026 9.7195 13.4434 8.7176 13.6419C7.71569 13.8403 6.68043 13.7903 5.70232 13.4962C4.72422 13.2021 3.83304 12.6729 3.10671 11.9548C2.38039 11.2367 1.84102 10.3516 1.53578 9.37694C1.23053 8.40225 1.16869 7.36763 1.35567 6.36353C1.54265 5.35942 1.97276 4.41641 2.60838 3.61693C3.24401 2.81745 4.06581 2.18585 5.00192 1.77734" stroke="#3AC4A0" stroke-width="1.00044" stroke-linecap="round" stroke-linejoin="round"/>
<path d="M13.7567 7.51157C13.7567 6.69044 13.595 5.87736 13.2807 5.11873C12.9665 4.36011 12.5059 3.67081 11.9253 3.09019C11.3447 2.50956 10.6554 2.04899 9.89674 1.73475C9.13812 1.42052 8.32503 1.25879 7.50391 1.25879V7.51157H13.7567Z" stroke="#3AC4A0" stroke-width="1.00044" stroke-linecap="round" stroke-linejoin="round"/>
</g>
<defs>
<clipPath id="clip0_16093_30363">
<rect width="15.0067" height="15.0067" fill="white" transform="translate(0 0.0078125)"/>
</clipPath>
</defs>
</svg>
