<svg width="16" height="16" viewBox="0 0 16 16" fill="none" xmlns="http://www.w3.org/2000/svg">
<path d="M8.82543 2.09486L8.82543 2.09486C8.7358 1.98455 8.6049 1.91135 8.46313 1.88635L3.53742 1.01781C2.3429 0.807187 1.18858 1.47304 0.997629 2.55599L0.245065 6.82399C0.220218 6.96491 0.262072 7.10636 0.35226 7.21737L6.12716 14.3254C6.96191 15.3529 8.55179 15.6332 9.68762 14.9532L14.0465 12.3436C15.1967 11.655 15.4456 10.2434 14.6003 9.20292L8.82543 2.09486ZM3.35988 2.02472L8.06044 2.85356L13.6982 9.79281C14.1566 10.3571 14.0244 11.1073 13.4006 11.4808L9.04164 14.0904C8.40346 14.4724 7.49831 14.3128 7.02929 13.7355L1.39947 6.80605L2.11415 2.75286C2.20029 2.26437 2.7408 1.91556 3.35988 2.02472ZM4.26344 4.96546C4.31494 4.6734 4.6436 4.45143 5.03597 4.52061C5.42835 4.5898 5.66127 4.91079 5.60977 5.20286C5.55827 5.49492 5.22961 5.71689 4.83724 5.64771C4.44486 5.57852 4.21194 5.25753 4.26344 4.96546ZM6.7263 5.39973C6.88261 4.51322 6.18134 3.68436 5.21352 3.5137C4.2457 3.34305 3.30323 3.88208 3.14692 4.76859C2.9906 5.6551 3.69187 6.48396 4.65969 6.65461C5.62752 6.82527 6.56998 6.28624 6.7263 5.39973Z" fill="#3AC4A0" stroke="#3AC4A0" stroke-width="0.300133"/>
</svg>
