<svg width="16" height="16" viewBox="0 0 16 16" fill="none" xmlns="http://www.w3.org/2000/svg">
<path d="M10.8503 5.25735V4.93083C10.8503 3.46065 8.6327 2.35156 5.69175 2.35156C2.75079 2.35156 0.533203 3.46065 0.533203 4.93083V7.27563C0.533203 8.50019 2.07197 9.47328 4.28487 9.76462V10.0894C4.28487 11.5596 6.50246 12.6686 9.44341 12.6686C12.3844 12.6686 14.602 11.5596 14.602 10.0894V7.74459C14.602 6.53115 13.1118 5.55689 10.8503 5.25735ZM13.664 7.74459C13.664 8.51954 11.8591 9.38594 9.44341 9.38594C9.22476 9.38594 9.00787 9.37832 8.79391 9.36425C10.0583 8.9035 10.8503 8.15492 10.8503 7.27563V6.20523C12.6013 6.46609 13.664 7.17421 13.664 7.74459ZM4.28487 8.8144V7.41983C4.75135 7.48061 5.22132 7.51077 5.69175 7.51011C6.16217 7.51077 6.63214 7.48061 7.09862 7.41983V8.8144C6.63283 8.88321 6.16259 8.9175 5.69175 8.91698C5.2209 8.9175 4.75066 8.88321 4.28487 8.8144ZM9.91237 6.45085V7.27563C9.91237 7.76745 9.1849 8.29561 8.03654 8.61626V7.24632C8.79332 7.06284 9.43404 6.78967 9.91237 6.45085ZM5.69175 3.28948C8.10747 3.28948 9.91237 4.15588 9.91237 4.93083C9.91237 5.70579 8.10747 6.57219 5.69175 6.57219C3.27602 6.57219 1.47112 5.70579 1.47112 4.93083C1.47112 4.15588 3.27602 3.28948 5.69175 3.28948ZM1.47112 7.27563V6.45085C1.94946 6.78967 2.59017 7.06284 3.34695 7.24632V8.61626C2.19859 8.29561 1.47112 7.76745 1.47112 7.27563ZM5.22279 10.0894V9.84493C5.37696 9.85079 5.53289 9.8549 5.69175 9.8549C5.91919 9.8549 6.14136 9.84728 6.35943 9.83438C6.60168 9.9211 6.84843 9.99468 7.09862 10.0548V11.43C5.95026 11.1094 5.22279 10.5812 5.22279 10.0894ZM8.03654 11.6281V10.2301C8.50287 10.2928 8.97289 10.3241 9.44341 10.3239C9.91384 10.3245 10.3838 10.2944 10.8503 10.2336V11.6281C9.91736 11.7649 8.96947 11.7649 8.03654 11.6281ZM11.7882 11.43V10.0601C12.545 9.87659 13.1857 9.60342 13.664 9.2646V10.0894C13.664 10.5812 12.9366 11.1094 11.7882 11.43Z" fill="#3AC4A0"/>
</svg>
