<svg width="25" height="24" viewBox="0 0 25 24" fill="none" xmlns="http://www.w3.org/2000/svg">
<path d="M3.5 14.25V19.5C3.5 19.8978 3.65804 20.2794 3.93934 20.5607C4.22064 20.842 4.60217 21 5 21L20 21C20.3978 21 20.7794 20.842 21.0607 20.5607C21.342 20.2794 21.5 19.8978 21.5 19.5V14.25C21.5 14.0511 21.421 13.8603 21.2803 13.7197C21.1397 13.579 20.9489 13.5 20.75 13.5C20.5511 13.5 20.3603 13.579 20.2197 13.7197C20.079 13.8603 20 14.0511 20 14.25V19.5L5 19.5V14.25C5 14.0511 4.92098 13.8603 4.78033 13.7197C4.63968 13.579 4.44891 13.5 4.25 13.5C4.05109 13.5 3.86032 13.579 3.71967 13.7197C3.57902 13.8603 3.5 14.0511 3.5 14.25ZM13.0306 14.7806C12.961 14.8504 12.8783 14.9057 12.7872 14.9434C12.6962 14.9812 12.5986 15.0006 12.5 15.0006C12.4014 15.0006 12.3038 14.9812 12.2128 14.9434C12.1217 14.9057 12.039 14.8504 11.9694 14.7806L8.21937 11.0306C8.14969 10.9609 8.09442 10.8782 8.05671 10.7872C8.01899 10.6961 7.99958 10.5985 7.99958 10.5C7.99958 10.4015 8.01899 10.3039 8.05671 10.2128C8.09442 10.1218 8.14969 10.0391 8.21937 9.96937C8.28906 9.89969 8.37178 9.84442 8.46283 9.8067C8.55387 9.76899 8.65145 9.74958 8.75 9.74958C8.84855 9.74958 8.94613 9.76899 9.03717 9.8067C9.12822 9.84442 9.21094 9.89969 9.28063 9.96937L11.75 12.4397L11.75 3.75C11.75 3.55109 11.829 3.36032 11.9697 3.21967C12.1103 3.07902 12.3011 3 12.5 3C12.6989 3 12.8897 3.07902 13.0303 3.21967C13.171 3.36032 13.25 3.55109 13.25 3.75L13.25 12.4397L15.7194 9.96937C15.8601 9.82864 16.051 9.74958 16.25 9.74958C16.449 9.74958 16.6399 9.82864 16.7806 9.96937C16.9214 10.1101 17.0004 10.301 17.0004 10.5C17.0004 10.699 16.9214 10.8899 16.7806 11.0306L13.0306 14.7806Z" fill="#4FE6AF"/>
</svg>
