<svg width="48" height="48" viewBox="0 0 48 48" fill="none" xmlns="http://www.w3.org/2000/svg">
<path d="M7.80675 38.07H13.7726V23.5813L5.25 17.1895V35.5133C5.25 36.928 6.39638 38.07 7.80675 38.07Z" fill="#4285F4"/>
<path d="M34.2272 38.0702H40.1932C41.6079 38.0702 42.75 36.9238 42.75 35.5135V17.1895L34.2272 23.5815" fill="#34A853"/>
<path d="M34.2272 12.5017V23.5813L42.75 17.1894V13.7799C42.75 10.6181 39.1406 8.81546 36.6137 10.7118" fill="#FBBC04"/>
<path d="M13.7728 23.5807V12.5014L24 20.1714L34.2272 12.501V23.5805L24 31.2512" fill="#EA4335"/>
<path d="M5.25 13.7799V17.189L13.7726 23.5811V12.5017L11.3863 10.7118C8.85506 8.81546 5.25 10.6181 5.25 13.7799Z" fill="#C5221F"/>
</svg>
