<svg width="33" height="32" viewBox="0 0 33 32" fill="none" xmlns="http://www.w3.org/2000/svg">
<path d="M27.5 5H5.5C4.96957 5 4.46086 5.21071 4.08579 5.58579C3.71071 5.96086 3.5 6.46957 3.5 7V25C3.5 25.5304 3.71071 26.0391 4.08579 26.4142C4.46086 26.7893 4.96957 27 5.5 27H27.5C28.0304 27 28.5391 26.7893 28.9142 26.4142C29.2893 26.0391 29.5 25.5304 29.5 25V7C29.5 6.46957 29.2893 5.96086 28.9142 5.58579C28.5391 5.21071 28.0304 5 27.5 5ZM27.5 25H5.5V7H27.5V25ZM22.5 11C22.5 12.5913 21.8679 14.1174 20.7426 15.2426C19.6174 16.3679 18.0913 17 16.5 17C14.9087 17 13.3826 16.3679 12.2574 15.2426C11.1321 14.1174 10.5 12.5913 10.5 11C10.5 10.7348 10.6054 10.4804 10.7929 10.2929C10.9804 10.1054 11.2348 10 11.5 10C11.7652 10 12.0196 10.1054 12.2071 10.2929C12.3946 10.4804 12.5 10.7348 12.5 11C12.5 12.0609 12.9214 13.0783 13.6716 13.8284C14.4217 14.5786 15.4391 15 16.5 15C17.5609 15 18.5783 14.5786 19.3284 13.8284C20.0786 13.0783 20.5 12.0609 20.5 11C20.5 10.7348 20.6054 10.4804 20.7929 10.2929C20.9804 10.1054 21.2348 10 21.5 10C21.7652 10 22.0196 10.1054 22.2071 10.2929C22.3946 10.4804 22.5 10.7348 22.5 11Z" fill="#BDBDBD"/>
</svg>
