<svg width="33" height="32" viewBox="0 0 33 32" fill="none" xmlns="http://www.w3.org/2000/svg">
<path d="M4.5 8C4.5 7.73478 4.60536 7.48043 4.79289 7.29289C4.98043 7.10536 5.23478 7 5.5 7H27.5C27.7652 7 28.0196 7.10536 28.2071 7.29289C28.3946 7.48043 28.5 7.73478 28.5 8C28.5 8.26522 28.3946 8.51957 28.2071 8.70711C28.0196 8.89464 27.7652 9 27.5 9H5.5C5.23478 9 4.98043 8.89464 4.79289 8.70711C4.60536 8.51957 4.5 8.26522 4.5 8ZM5.5 17H14.5C14.7652 17 15.0196 16.8946 15.2071 16.7071C15.3946 16.5196 15.5 16.2652 15.5 16C15.5 15.7348 15.3946 15.4804 15.2071 15.2929C15.0196 15.1054 14.7652 15 14.5 15H5.5C5.23478 15 4.98043 15.1054 4.79289 15.2929C4.60536 15.4804 4.5 15.7348 4.5 16C4.5 16.2652 4.60536 16.5196 4.79289 16.7071C4.98043 16.8946 5.23478 17 5.5 17ZM16.5 23H5.5C5.23478 23 4.98043 23.1054 4.79289 23.2929C4.60536 23.4804 4.5 23.7348 4.5 24C4.5 24.2652 4.60536 24.5196 4.79289 24.7071C4.98043 24.8946 5.23478 25 5.5 25H16.5C16.7652 25 17.0196 24.8946 17.2071 24.7071C17.3946 24.5196 17.5 24.2652 17.5 24C17.5 23.7348 17.3946 23.4804 17.2071 23.2929C17.0196 23.1054 16.7652 23 16.5 23ZM30.2075 24.7075C30.1146 24.8005 30.0043 24.8742 29.8829 24.9246C29.7615 24.9749 29.6314 25.0008 29.5 25.0008C29.3686 25.0008 29.2385 24.9749 29.1171 24.9246C28.9957 24.8742 28.8854 24.8005 28.7925 24.7075L26.25 22.17C25.216 22.8522 23.9657 23.1262 22.7412 22.9391C21.5167 22.752 20.4052 22.117 19.6222 21.1572C18.8392 20.1973 18.4403 18.981 18.5029 17.7439C18.5655 16.5067 19.0851 15.3369 19.961 14.461C20.8369 13.5851 22.0067 13.0655 23.2439 13.0029C24.481 12.9403 25.6973 13.3392 26.6572 14.1222C27.617 14.9052 28.252 16.0167 28.4391 17.2412C28.6262 18.4657 28.3522 19.716 27.67 20.75L30.2075 23.2875C30.3012 23.3805 30.3756 23.4911 30.4264 23.6129C30.4772 23.7348 30.5033 23.8655 30.5033 23.9975C30.5033 24.1295 30.4772 24.2602 30.4264 24.3821C30.3756 24.5039 30.3012 24.6145 30.2075 24.7075ZM23.5 21C24.0933 21 24.6734 20.8241 25.1667 20.4944C25.6601 20.1648 26.0446 19.6962 26.2716 19.1481C26.4987 18.5999 26.5581 17.9967 26.4424 17.4147C26.3266 16.8328 26.0409 16.2982 25.6213 15.8787C25.2018 15.4591 24.6672 15.1734 24.0853 15.0576C23.5033 14.9419 22.9001 15.0013 22.3519 15.2284C21.8038 15.4554 21.3352 15.8399 21.0056 16.3333C20.6759 16.8266 20.5 17.4067 20.5 18C20.5 18.7956 20.8161 19.5587 21.3787 20.1213C21.9413 20.6839 22.7044 21 23.5 21Z" fill="#BDBDBD"/>
</svg>
