<svg width="33" height="32" viewBox="0 0 33 32" fill="none" xmlns="http://www.w3.org/2000/svg">
<path d="M30.5 25.9993H28.5V11.9993C28.5 11.4689 28.2893 10.9602 27.9142 10.5851C27.5391 10.2101 27.0304 9.99935 26.5 9.99935H18.5V3.99935C18.5002 3.63718 18.4021 3.28174 18.2161 2.97097C18.0301 2.66021 17.7633 2.40577 17.444 2.23483C17.1247 2.0639 16.765 1.98286 16.4032 2.00039C16.0415 2.01792 15.6913 2.13334 15.39 2.33435L5.39 8.99935C5.11567 9.18237 4.89086 9.43039 4.73558 9.72132C4.5803 10.0123 4.49937 10.3371 4.5 10.6668V25.9993H2.5C2.23478 25.9993 1.98043 26.1047 1.79289 26.2922C1.60536 26.4798 1.5 26.7341 1.5 26.9993C1.5 27.2646 1.60536 27.5189 1.79289 27.7065C1.98043 27.894 2.23478 27.9993 2.5 27.9993H30.5C30.7652 27.9993 31.0196 27.894 31.2071 27.7065C31.3946 27.5189 31.5 27.2646 31.5 26.9993C31.5 26.7341 31.3946 26.4798 31.2071 26.2922C31.0196 26.1047 30.7652 25.9993 30.5 25.9993ZM26.5 11.9993V25.9993H18.5V11.9993H26.5ZM6.5 10.6668L16.5 3.99935V25.9993H6.5V10.6668ZM14.5 13.9993V15.9993C14.5 16.2646 14.3946 16.5189 14.2071 16.7065C14.0196 16.894 13.7652 16.9993 13.5 16.9993C13.2348 16.9993 12.9804 16.894 12.7929 16.7065C12.6054 16.5189 12.5 16.2646 12.5 15.9993V13.9993C12.5 13.7341 12.6054 13.4798 12.7929 13.2922C12.9804 13.1047 13.2348 12.9993 13.5 12.9993C13.7652 12.9993 14.0196 13.1047 14.2071 13.2922C14.3946 13.4798 14.5 13.7341 14.5 13.9993ZM10.5 13.9993V15.9993C10.5 16.2646 10.3946 16.5189 10.2071 16.7065C10.0196 16.894 9.76522 16.9993 9.5 16.9993C9.23478 16.9993 8.98043 16.894 8.79289 16.7065C8.60536 16.5189 8.5 16.2646 8.5 15.9993V13.9993C8.5 13.7341 8.60536 13.4798 8.79289 13.2922C8.98043 13.1047 9.23478 12.9993 9.5 12.9993C9.76522 12.9993 10.0196 13.1047 10.2071 13.2922C10.3946 13.4798 10.5 13.7341 10.5 13.9993ZM10.5 20.9993V22.9993C10.5 23.2646 10.3946 23.5189 10.2071 23.7065C10.0196 23.894 9.76522 23.9993 9.5 23.9993C9.23478 23.9993 8.98043 23.894 8.79289 23.7065C8.60536 23.5189 8.5 23.2646 8.5 22.9993V20.9993C8.5 20.7341 8.60536 20.4798 8.79289 20.2922C8.98043 20.1047 9.23478 19.9993 9.5 19.9993C9.76522 19.9993 10.0196 20.1047 10.2071 20.2922C10.3946 20.4798 10.5 20.7341 10.5 20.9993ZM14.5 20.9993V22.9993C14.5 23.2646 14.3946 23.5189 14.2071 23.7065C14.0196 23.894 13.7652 23.9993 13.5 23.9993C13.2348 23.9993 12.9804 23.894 12.7929 23.7065C12.6054 23.5189 12.5 23.2646 12.5 22.9993V20.9993C12.5 20.7341 12.6054 20.4798 12.7929 20.2922C12.9804 20.1047 13.2348 19.9993 13.5 19.9993C13.7652 19.9993 14.0196 20.1047 14.2071 20.2922C14.3946 20.4798 14.5 20.7341 14.5 20.9993Z" fill="#4FE6AF"/>
</svg>
