<svg width="33" height="32" viewBox="0 0 33 32" fill="none" xmlns="http://www.w3.org/2000/svg">
<path d="M29.5035 21H8.48604C8.81854 20.345 9.15229 19.6712 9.48604 18.9862C11.3523 19.1925 13.5635 17.8862 16.0785 15.0837C16.1535 15.2912 16.2373 15.505 16.3285 15.7212C17.1423 17.6275 18.1923 18.7137 19.4535 18.9525C20.746 19.2025 22.026 18.5488 23.3385 16.975C24.191 17.9838 25.941 19 29.5035 19C29.7688 19 30.0231 18.8946 30.2106 18.7071C30.3982 18.5196 30.5035 18.2652 30.5035 18C30.5035 17.7348 30.3982 17.4804 30.2106 17.2929C30.0231 17.1054 29.7688 17 29.5035 17C25.6748 17 24.5598 15.6762 24.5035 14.9725C24.4974 14.7399 24.4104 14.5167 24.2574 14.3413C24.1045 14.1659 23.8951 14.0494 23.6655 14.0118C23.4358 13.9742 23.2003 14.0179 22.9994 14.1353C22.7984 14.2527 22.6448 14.4365 22.5648 14.655C21.0435 16.9362 20.1423 17.0475 19.8148 16.9875C18.7735 16.7912 17.8048 14.3712 17.4785 12.7987C17.4358 12.6002 17.3337 12.4193 17.1856 12.2802C17.0376 12.1411 16.8507 12.0503 16.6499 12.0201C16.449 11.9898 16.2437 12.0214 16.0612 12.1107C15.8788 12.2 15.7279 12.3428 15.6285 12.52C13.1535 15.5975 11.4935 16.645 10.4523 16.9125C11.5135 14.5525 12.306 12.4813 12.8135 10.7375C13.666 7.8075 13.7285 5.75875 13.0023 4.475C12.6273 3.805 11.841 3.00625 10.2635 3H10.2323C8.23229 3.01375 6.65729 4.9125 5.90479 8.2125C5.45604 10.1762 5.38229 12.3612 5.70104 14.2125C6.01979 16.0637 6.68354 17.4012 7.64479 18.1987C7.17979 19.165 6.70354 20.1088 6.24104 21.0025H3.50354C3.23832 21.0025 2.98397 21.1079 2.79643 21.2954C2.60889 21.4829 2.50354 21.7373 2.50354 22.0025C2.50354 22.2677 2.60889 22.5221 2.79643 22.7096C2.98397 22.8971 3.23832 23.0025 3.50354 23.0025H5.17979C3.76479 25.6275 2.66479 27.4575 2.64729 27.4875C2.57599 27.6001 2.52793 27.7258 2.50592 27.8573C2.48391 27.9887 2.4884 28.1232 2.51912 28.2529C2.54984 28.3826 2.60618 28.5049 2.68482 28.6125C2.76346 28.7201 2.86281 28.8109 2.97705 28.8795C3.09128 28.9482 3.21809 28.9933 3.35001 29.0123C3.48194 29.0312 3.61632 29.0236 3.74526 28.9899C3.8742 28.9561 3.99509 28.897 4.10084 28.8159C4.20659 28.7347 4.29505 28.6333 4.36104 28.5175C4.37979 28.485 5.76979 26.1688 7.44854 23.0025H29.5035C29.7688 23.0025 30.0231 22.8971 30.2106 22.7096C30.3982 22.5221 30.5035 22.2677 30.5035 22.0025C30.5035 21.7373 30.3982 21.4829 30.2106 21.2954C30.0231 21.1079 29.7688 21.0025 29.5035 21.0025V21ZM24.5035 15V14.9738C24.5044 14.9825 24.5044 14.9913 24.5035 15ZM7.85229 8.6575C8.35104 6.4725 9.31354 5 10.2535 5C10.9098 5 11.1285 5.2325 11.2535 5.45875C11.6285 6.125 12.0685 8.4825 8.54729 16.255C7.52354 14.8437 7.17479 11.625 7.85229 8.6575Z" fill="#4FE6AF"/>
</svg>
