<svg width="33" height="32" viewBox="0 0 33 32" fill="none" xmlns="http://www.w3.org/2000/svg">
<path d="M28.5 25H27.5V5C27.5 4.73478 27.3946 4.48043 27.2071 4.29289C27.0196 4.10536 26.7652 4 26.5 4H19.5C19.2348 4 18.9804 4.10536 18.7929 4.29289C18.6054 4.48043 18.5 4.73478 18.5 5V10H12.5C12.2348 10 11.9804 10.1054 11.7929 10.2929C11.6054 10.4804 11.5 10.7348 11.5 11V16H6.5C6.23478 16 5.98043 16.1054 5.79289 16.2929C5.60536 16.4804 5.5 16.7348 5.5 17V25H4.5C4.23478 25 3.98043 25.1054 3.79289 25.2929C3.60536 25.4804 3.5 25.7348 3.5 26C3.5 26.2652 3.60536 26.5196 3.79289 26.7071C3.98043 26.8946 4.23478 27 4.5 27H28.5C28.7652 27 29.0196 26.8946 29.2071 26.7071C29.3946 26.5196 29.5 26.2652 29.5 26C29.5 25.7348 29.3946 25.4804 29.2071 25.2929C29.0196 25.1054 28.7652 25 28.5 25ZM20.5 6H25.5V25H20.5V6ZM13.5 12H18.5V25H13.5V12ZM7.5 18H11.5V25H7.5V18Z" fill="#4FE6AF"/>
</svg>
