<svg width="32" height="32" viewBox="0 0 32 32" fill="none" xmlns="http://www.w3.org/2000/svg">
<path fill-rule="evenodd" clip-rule="evenodd" d="M16.0021 28.2124C11.4391 28.2124 7.54102 27.5221 7.54102 24.7581C7.54102 21.9941 11.4137 19.5879 16.0021 19.5879C20.5651 19.5879 24.4631 21.9715 24.4631 24.7341C24.4631 27.4967 20.5904 28.2124 16.0021 28.2124Z" stroke="#4FE6AF" stroke-width="1.5" stroke-linecap="round" stroke-linejoin="round"/>
<path fill-rule="evenodd" clip-rule="evenodd" d="M16.0019 15.6459C18.997 15.6459 21.4257 13.2186 21.4257 10.2236C21.4257 7.22852 18.997 4.7998 16.0019 4.7998C13.0069 4.7998 10.5781 7.22852 10.5781 10.2236C10.5697 13.2073 12.9787 15.636 15.9639 15.6459H16.0019Z" stroke="#4FE6AF" stroke-width="1.5" stroke-linecap="round" stroke-linejoin="round"/>
<path d="M25.0034 14.1557C26.746 13.6894 28.0308 12.1003 28.0308 10.2084C28.0308 8.23468 26.6319 6.58642 24.7695 6.20605" stroke="#4FE6AF" stroke-width="1.5" stroke-linecap="round" stroke-linejoin="round"/>
<path d="M25.8164 18.6016C28.2874 18.6016 30.3977 20.2766 30.3977 21.7727C30.3977 22.6532 29.6694 23.6125 28.5649 23.8718" stroke="#4FE6AF" stroke-width="1.5" stroke-linecap="round" stroke-linejoin="round"/>
<path d="M7.00541 14.1557C5.26136 13.6894 3.97656 12.1003 3.97656 10.2084C3.97656 8.23468 5.37688 6.58642 7.23786 6.20605" stroke="#4FE6AF" stroke-width="1.5" stroke-linecap="round" stroke-linejoin="round"/>
<path d="M6.18092 18.6016C3.70994 18.6016 1.59961 20.2766 1.59961 21.7727C1.59961 22.6532 2.32794 23.6125 3.43382 23.8718" stroke="#4FE6AF" stroke-width="1.5" stroke-linecap="round" stroke-linejoin="round"/>
</svg>
