<svg width="20" height="20" viewBox="0 0 20 20" fill="none" xmlns="http://www.w3.org/2000/svg">
<path fill-rule="evenodd" clip-rule="evenodd" d="M10.001 17.6325C7.14918 17.6325 4.71289 17.201 4.71289 15.4735C4.71289 13.746 7.13333 12.2422 10.001 12.2422C12.8529 12.2422 15.2892 13.732 15.2892 15.4586C15.2892 17.1852 12.8688 17.6325 10.001 17.6325Z" stroke="#3AC4A0" stroke-width="1.5" stroke-linecap="round" stroke-linejoin="round"/>
<path fill-rule="evenodd" clip-rule="evenodd" d="M10.0012 9.77881C11.8731 9.77881 13.391 8.26174 13.391 6.38985C13.391 4.51795 11.8731 3 10.0012 3C8.1293 3 6.61134 4.51795 6.61134 6.38985C6.60607 8.2547 8.11169 9.77265 9.97743 9.77881H10.0012Z" stroke="#3AC4A0" stroke-width="1.5" stroke-linecap="round" stroke-linejoin="round"/>
<path d="M15.6266 8.84745C16.7158 8.55601 17.5188 7.56283 17.5188 6.38035C17.5188 5.1468 16.6445 4.11664 15.4805 3.87891" stroke="#3AC4A0" stroke-width="1.5" stroke-linecap="round" stroke-linejoin="round"/>
<path d="M16.1348 11.626C17.6791 11.626 18.9981 12.6729 18.9981 13.6079C18.9981 14.1582 18.5429 14.7578 17.8526 14.9198" stroke="#3AC4A0" stroke-width="1.5" stroke-linecap="round" stroke-linejoin="round"/>
<path d="M4.37936 8.84745C3.28933 8.55601 2.48633 7.56283 2.48633 6.38035C2.48633 5.1468 3.36152 4.11664 4.52464 3.87891" stroke="#3AC4A0" stroke-width="1.5" stroke-linecap="round" stroke-linejoin="round"/>
<path d="M3.86332 11.626C2.31896 11.626 1 12.6729 1 13.6079C1 14.1582 1.45521 14.7578 2.14638 14.9198" stroke="#3AC4A0" stroke-width="1.5" stroke-linecap="round" stroke-linejoin="round"/>
</svg>
