<svg width="33" height="32" viewBox="0 0 33 32" fill="none" xmlns="http://www.w3.org/2000/svg">
<path d="M29.7688 23.4158C30.4741 21.9822 30.8256 20.4004 30.7939 18.8031C30.7622 17.2057 30.3482 15.6391 29.5865 14.2346C28.8249 12.8302 27.7379 11.6286 26.4164 10.7306C25.095 9.83259 23.5776 9.26429 21.9913 9.07329C21.4653 7.84694 20.6991 6.73829 19.7379 5.81265C18.7767 4.88701 17.64 4.16311 16.3947 3.68359C15.1494 3.20407 13.8208 2.97863 12.487 3.02056C11.1532 3.0625 9.84136 3.37095 8.62866 3.92774C7.41596 4.48454 6.32696 5.27842 5.42582 6.26261C4.52468 7.2468 3.82964 8.40139 3.38164 9.65835C2.93364 10.9153 2.74174 12.2492 2.81726 13.5815C2.89277 14.9138 3.23417 16.2175 3.82134 17.4158L2.86384 20.7683C2.7784 21.0682 2.77465 21.3855 2.853 21.6874C2.93134 21.9892 3.08892 22.2647 3.30944 22.4852C3.52995 22.7057 3.80539 22.8633 4.10725 22.9416C4.4091 23.02 4.72641 23.0162 5.02634 22.9308L8.37884 21.9733C9.39047 22.47 10.4787 22.7924 11.5976 22.927C12.131 24.1767 12.9134 25.3045 13.8971 26.2417C14.8808 27.1789 16.0452 27.9057 17.3192 28.378C18.5932 28.8502 19.95 29.0579 21.3069 28.9883C22.6638 28.9187 23.9923 28.5734 25.2113 27.9733L28.5638 28.9308C28.8638 29.0162 29.1811 29.02 29.4829 28.9416C29.7848 28.8633 30.0602 28.7057 30.2807 28.4852C30.5013 28.2647 30.6588 27.9892 30.7372 27.6874C30.8155 27.3855 30.8118 27.0682 30.7263 26.7683L29.7688 23.4158ZM8.48634 19.9033C8.3934 19.9033 8.30089 19.9159 8.21134 19.9408L4.91009 20.8845L5.85384 17.5833C5.92456 17.3318 5.89406 17.0626 5.76884 16.8333C4.84936 15.1452 4.56896 13.1823 4.97903 11.3043C5.38911 9.4263 6.46218 7.75895 8.00163 6.60778C9.54108 5.45662 11.4438 4.89874 13.3611 5.03637C15.2784 5.174 17.082 5.99793 18.4412 7.35717C19.8004 8.71641 20.6244 10.5199 20.762 12.4373C20.8996 14.3546 20.3418 16.2573 19.1906 17.7967C18.0394 19.3362 16.3721 20.4093 14.4941 20.8193C12.6161 21.2294 10.6532 20.949 8.96509 20.0295C8.81873 19.9477 8.65402 19.9043 8.48634 19.9033ZM27.7363 23.5833L28.6801 26.8845L25.3788 25.9408C25.1273 25.8701 24.8581 25.9006 24.6288 26.0258C22.7855 27.0287 20.6221 27.2678 18.6041 26.6918C16.5862 26.1158 14.875 24.7706 13.8388 22.9458C15.2082 22.8032 16.5332 22.3791 17.7309 21.7002C18.9286 21.0213 19.973 20.1022 20.7987 19.0006C21.6244 17.899 22.2136 16.6386 22.5291 15.2985C22.8447 13.9584 22.8799 12.5676 22.6326 11.2133C23.8309 11.4957 24.9478 12.0508 25.8964 12.8355C26.8451 13.6202 27.5998 14.6132 28.1019 15.7372C28.604 16.8613 28.8399 18.0861 28.7912 19.3162C28.7426 20.5463 28.4107 21.7487 27.8213 22.8295C27.6951 23.0599 27.6646 23.3306 27.7363 23.5833Z" fill="#3AC4A0"/>
</svg>
