<svg width="33" height="32" viewBox="0 0 33 32" fill="none" xmlns="http://www.w3.org/2000/svg">
<path d="M11.3984 14C11.3984 13.7348 11.5038 13.4804 11.6913 13.2929C11.8789 13.1054 12.1332 13 12.3984 13H22.3984C22.6637 13 22.918 13.1054 23.1055 13.2929C23.2931 13.4804 23.3984 13.7348 23.3984 14C23.3984 14.2652 23.2931 14.5196 23.1055 14.7071C22.918 14.8946 22.6637 15 22.3984 15H12.3984C12.1332 15 11.8789 14.8946 11.6913 14.7071C11.5038 14.5196 11.3984 14.2652 11.3984 14ZM12.3984 19H22.3984C22.6637 19 22.918 18.8946 23.1055 18.7071C23.2931 18.5196 23.3984 18.2652 23.3984 18C23.3984 17.7348 23.2931 17.4804 23.1055 17.2929C22.918 17.1054 22.6637 17 22.3984 17H12.3984C12.1332 17 11.8789 17.1054 11.6913 17.2929C11.5038 17.4804 11.3984 17.7348 11.3984 18C11.3984 18.2652 11.5038 18.5196 11.6913 18.7071C11.8789 18.8946 12.1332 19 12.3984 19ZM29.3984 8V23C29.3984 23.7956 29.0824 24.5587 28.5198 25.1213C27.9571 25.6839 27.1941 26 26.3984 26H4.39844C3.60516 26 2.84418 25.6858 2.28196 25.1262C1.71975 24.5665 1.40207 23.807 1.39844 23.0138V11C1.39844 10.7348 1.50379 10.4804 1.69133 10.2929C1.87887 10.1054 2.13322 10 2.39844 10C2.66365 10 2.91801 10.1054 3.10554 10.2929C3.29308 10.4804 3.39844 10.7348 3.39844 11V23C3.39844 23.2652 3.50379 23.5196 3.69133 23.7071C3.87887 23.8946 4.13322 24 4.39844 24C4.66365 24 4.91801 23.8946 5.10554 23.7071C5.29308 23.5196 5.39844 23.2652 5.39844 23V8C5.39844 7.46957 5.60915 6.96086 5.98422 6.58579C6.3593 6.21071 6.868 6 7.39844 6H27.3984C27.9289 6 28.4376 6.21071 28.8127 6.58579C29.1877 6.96086 29.3984 7.46957 29.3984 8ZM27.3984 8H7.39844V23C7.39893 23.3407 7.34101 23.6789 7.22719 24H26.3984C26.6637 24 26.918 23.8946 27.1055 23.7071C27.2931 23.5196 27.3984 23.2652 27.3984 23V8Z" fill="#3AC4A0"/>
</svg>
