<svg width="33" height="32" viewBox="0 0 33 32" fill="none" xmlns="http://www.w3.org/2000/svg">
<path d="M27.2031 5H5.20312C4.67269 5 4.16398 5.21071 3.78891 5.58579C3.41384 5.96086 3.20313 6.46957 3.20312 7V27C3.20322 27.1704 3.24687 27.338 3.32994 27.4869C3.41301 27.6357 3.53274 27.7608 3.67776 27.8503C3.82278 27.9399 3.98828 27.9909 4.15855 27.9985C4.32882 28.0061 4.4982 27.97 4.65063 27.8937L8.20312 26.1175L11.7556 27.8937C11.8946 27.9633 12.0478 27.9995 12.2031 27.9995C12.3585 27.9995 12.5117 27.9633 12.6506 27.8937L16.2031 26.1175L19.7556 27.8937C19.8946 27.9633 20.0478 27.9995 20.2031 27.9995C20.3585 27.9995 20.5117 27.9633 20.6506 27.8937L24.2031 26.1175L27.7556 27.8937C27.908 27.97 28.0774 28.0061 28.2477 27.9985C28.418 27.9909 28.5835 27.9399 28.7285 27.8503C28.8735 27.7608 28.9932 27.6357 29.0763 27.4869C29.1594 27.338 29.203 27.1704 29.2031 27V7C29.2031 6.46957 28.9924 5.96086 28.6173 5.58579C28.2423 5.21071 27.7336 5 27.2031 5ZM27.2031 25.3825L24.6506 24.105C24.5117 24.0355 24.3585 23.9993 24.2031 23.9993C24.0478 23.9993 23.8946 24.0355 23.7556 24.105L20.2031 25.8825L16.6506 24.105C16.5117 24.0355 16.3585 23.9993 16.2031 23.9993C16.0478 23.9993 15.8946 24.0355 15.7556 24.105L12.2031 25.8825L8.65063 24.105C8.5117 24.0355 8.35848 23.9993 8.20312 23.9993C8.04777 23.9993 7.89455 24.0355 7.75562 24.105L5.20312 25.3825V7H27.2031V25.3825ZM17.2031 14C17.2031 13.7348 17.3085 13.4804 17.496 13.2929C17.6836 13.1054 17.9379 13 18.2031 13H24.2031C24.4683 13 24.7227 13.1054 24.9102 13.2929C25.0978 13.4804 25.2031 13.7348 25.2031 14C25.2031 14.2652 25.0978 14.5196 24.9102 14.7071C24.7227 14.8946 24.4683 15 24.2031 15H18.2031C17.9379 15 17.6836 14.8946 17.496 14.7071C17.3085 14.5196 17.2031 14.2652 17.2031 14ZM17.2031 18C17.2031 17.7348 17.3085 17.4804 17.496 17.2929C17.6836 17.1054 17.9379 17 18.2031 17H24.2031C24.4683 17 24.7227 17.1054 24.9102 17.2929C25.0978 17.4804 25.2031 17.7348 25.2031 18C25.2031 18.2652 25.0978 18.5196 24.9102 18.7071C24.7227 18.8946 24.4683 19 24.2031 19H18.2031C17.9379 19 17.6836 18.8946 17.496 18.7071C17.3085 18.5196 17.2031 18.2652 17.2031 18ZM8.20312 21H14.2031C14.4683 21 14.7227 20.8946 14.9102 20.7071C15.0978 20.5196 15.2031 20.2652 15.2031 20V12C15.2031 11.7348 15.0978 11.4804 14.9102 11.2929C14.7227 11.1054 14.4683 11 14.2031 11H8.20312C7.93791 11 7.68355 11.1054 7.49602 11.2929C7.30848 11.4804 7.20312 11.7348 7.20312 12V20C7.20312 20.2652 7.30848 20.5196 7.49602 20.7071C7.68355 20.8946 7.93791 21 8.20312 21ZM9.20312 13H13.2031V19H9.20312V13Z" fill="#BDBDBD"/>
</svg>
