<svg width="21" height="20" viewBox="0 0 21 20" fill="none" xmlns="http://www.w3.org/2000/svg">
<g clip-path="url(#clip0_1817_139)">
<path fill-rule="evenodd" clip-rule="evenodd" d="M10.6007 17.6325C7.74879 17.6325 5.3125 17.201 5.3125 15.4735C5.3125 13.746 7.73294 12.2422 10.6007 12.2422C13.4525 12.2422 15.8888 13.732 15.8888 15.4586C15.8888 17.1852 13.4684 17.6325 10.6007 17.6325Z" stroke="#3AC4A0" stroke-width="1.5" stroke-linecap="round" stroke-linejoin="round"/>
<path fill-rule="evenodd" clip-rule="evenodd" d="M10.6008 9.77881C12.4727 9.77881 13.9907 8.26174 13.9907 6.38985C13.9907 4.51795 12.4727 3 10.6008 3C8.72891 3 7.21095 4.51795 7.21095 6.38985C7.20568 8.2547 8.7113 9.77265 10.577 9.77881H10.6008Z" stroke="#3AC4A0" stroke-width="1.5" stroke-linecap="round" stroke-linejoin="round"/>
<path d="M16.2321 8.84745C17.3212 8.55601 18.1242 7.56283 18.1242 6.38035C18.1242 5.1468 17.2499 4.11664 16.0859 3.87891" stroke="#3AC4A0" stroke-width="1.5" stroke-linecap="round" stroke-linejoin="round"/>
<path d="M16.7344 11.627C18.2787 11.627 19.5977 12.6738 19.5977 13.6089C19.5977 14.1592 19.1425 14.7588 18.4522 14.9208" stroke="#3AC4A0" stroke-width="1.5" stroke-linecap="round" stroke-linejoin="round"/>
<path d="M4.97897 8.84745C3.88893 8.55601 3.08594 7.56283 3.08594 6.38035C3.08594 5.1468 3.96113 4.11664 5.12425 3.87891" stroke="#3AC4A0" stroke-width="1.5" stroke-linecap="round" stroke-linejoin="round"/>
<path d="M4.46488 11.627C2.92052 11.627 1.60156 12.6738 1.60156 13.6089C1.60156 14.1592 2.05677 14.7588 2.74795 14.9208" stroke="#3AC4A0" stroke-width="1.5" stroke-linecap="round" stroke-linejoin="round"/>
</g>
<defs>
<clipPath id="clip0_1817_139">
<rect width="20" height="20" fill="white" transform="translate(0.601562)"/>
</clipPath>
</defs>
</svg>
