<svg width="33" height="32" viewBox="0 0 33 32" fill="none" xmlns="http://www.w3.org/2000/svg">
<path d="M16.5 11C15.5111 11 14.5444 11.2932 13.7221 11.8427C12.8999 12.3921 12.259 13.173 11.8806 14.0866C11.5022 15.0002 11.4031 16.0055 11.5961 16.9755C11.789 17.9454 12.2652 18.8363 12.9645 19.5355C13.6637 20.2348 14.5546 20.711 15.5245 20.9039C16.4945 21.0969 17.4998 20.9978 18.4134 20.6194C19.327 20.241 20.1079 19.6001 20.6573 18.7779C21.2068 17.9556 21.5 16.9889 21.5 16C21.5 14.6739 20.9732 13.4021 20.0355 12.4645C19.0979 11.5268 17.8261 11 16.5 11ZM16.5 19C15.9067 19 15.3266 18.8241 14.8333 18.4944C14.3399 18.1648 13.9554 17.6962 13.7284 17.1481C13.5013 16.5999 13.4419 15.9967 13.5576 15.4147C13.6734 14.8328 13.9591 14.2982 14.3787 13.8787C14.7982 13.4591 15.3328 13.1734 15.9147 13.0576C16.4967 12.9419 17.0999 13.0013 17.6481 13.2284C18.1962 13.4554 18.6648 13.8399 18.9944 14.3333C19.3241 14.8266 19.5 15.4067 19.5 16C19.5 16.7956 19.1839 17.5587 18.6213 18.1213C18.0587 18.6839 17.2956 19 16.5 19ZM30.5 7H2.5C2.23478 7 1.98043 7.10536 1.79289 7.29289C1.60536 7.48043 1.5 7.73478 1.5 8V24C1.5 24.2652 1.60536 24.5196 1.79289 24.7071C1.98043 24.8946 2.23478 25 2.5 25H30.5C30.7652 25 31.0196 24.8946 31.2071 24.7071C31.3946 24.5196 31.5 24.2652 31.5 24V8C31.5 7.73478 31.3946 7.48043 31.2071 7.29289C31.0196 7.10536 30.7652 7 30.5 7ZM24.7062 23H8.29375C7.95801 21.8645 7.34351 20.8311 6.50623 19.9938C5.66895 19.1565 4.6355 18.542 3.5 18.2062V13.7937C4.6355 13.458 5.66895 12.8435 6.50623 12.0062C7.34351 11.1689 7.95801 10.1355 8.29375 9H24.7062C25.042 10.1355 25.6565 11.1689 26.4938 12.0062C27.3311 12.8435 28.3645 13.458 29.5 13.7937V18.2062C28.3645 18.542 27.3311 19.1565 26.4938 19.9938C25.6565 20.8311 25.042 21.8645 24.7062 23ZM29.5 11.6713C28.3005 11.1555 27.3445 10.1995 26.8288 9H29.5V11.6713ZM6.17125 9C5.65549 10.1995 4.69945 11.1555 3.5 11.6713V9H6.17125ZM3.5 20.3288C4.69945 20.8445 5.65549 21.8005 6.17125 23H3.5V20.3288ZM26.8288 23C27.3445 21.8005 28.3005 20.8445 29.5 20.3288V23H26.8288Z" fill="#4FE6AF"/>
</svg>
