<svg width="32" height="32" viewBox="0 0 32 32" fill="none" xmlns="http://www.w3.org/2000/svg">
<g clip-path="url(#clip0_1515_986)">
<path fill-rule="evenodd" clip-rule="evenodd" d="M0 16C0 7.16344 7.16297 0 15.9999 0C24.8369 0 31.9998 7.16344 31.9998 16C31.9998 24.8366 24.8369 32 15.9999 32C7.16297 32 0 24.8366 0 16Z" fill="white"/>
<path d="M24 12L16 17L8 12V10L16 15L24 10V12ZM24 8H8C6.89 8 6 8.89 6 10V22C6 22.5304 6.21071 23.0391 6.58579 23.4142C6.96086 23.7893 7.46957 24 8 24H24C24.5304 24 25.0391 23.7893 25.4142 23.4142C25.7893 23.0391 26 22.5304 26 22V10C26 9.46957 25.7893 8.96086 25.4142 8.58579C25.0391 8.21071 24.5304 8 24 8Z" fill="#3AC4A0"/>
</g>
<defs>
<clipPath id="clip0_1515_986">
<rect width="32" height="32" fill="white"/>
</clipPath>
</defs>
</svg>
