<svg width="32" height="32" viewBox="0 0 32 32" fill="none" xmlns="http://www.w3.org/2000/svg">
<path fill-rule="evenodd" clip-rule="evenodd" d="M0 16C0 7.16344 7.16297 0 15.9999 0C24.8369 0 31.9998 7.16344 31.9998 16C31.9998 24.8366 24.8369 32 15.9999 32C7.16297 32 0 24.8366 0 16Z" fill="white"/>
<path fill-rule="evenodd" clip-rule="evenodd" d="M15.9988 7.4668C13.6809 7.4668 13.3898 7.47693 12.4798 7.51836C11.5718 7.55996 10.9518 7.70378 10.4088 7.9148C9.84784 8.13276 9.37185 8.42432 8.89685 8.89881C8.42285 9.37313 8.13084 9.84922 7.91284 10.4103C7.70084 10.953 7.55685 11.5733 7.51585 12.4814C7.47485 13.3916 7.46484 13.6826 7.46484 16.0002C7.46484 18.3177 7.47485 18.6077 7.51585 19.5179C7.55785 20.4264 7.70184 21.0465 7.91284 21.589C8.13084 22.1503 8.42185 22.6264 8.89685 23.1007C9.37085 23.5754 9.84685 23.8676 10.4078 24.0856C10.9508 24.2966 11.5708 24.4404 12.4788 24.482C13.3898 24.5235 13.6798 24.5336 15.9978 24.5336C18.3148 24.5336 18.6048 24.5235 19.5158 24.482C20.4238 24.4404 21.0448 24.2966 21.5878 24.0856C22.1488 23.8676 22.6238 23.5754 23.0978 23.1007C23.5728 22.6264 23.8648 22.1503 24.0828 21.5892C24.2928 21.0465 24.4368 20.4262 24.4798 19.5181C24.5208 18.6079 24.5308 18.3177 24.5308 16.0002C24.5308 13.6826 24.5208 13.3918 24.4798 12.4816C24.4368 11.5731 24.2928 10.953 24.0828 10.4104C23.8648 9.84922 23.5728 9.37313 23.0978 8.89881C22.6238 8.42414 22.1488 8.13258 21.5868 7.9148C21.0428 7.70378 20.4228 7.55996 19.5138 7.51836C18.6038 7.47693 18.3138 7.4668 15.9958 7.4668H15.9988ZM15.2328 9.00457C15.4598 9.00421 15.7138 9.00457 15.9988 9.00457C18.2768 9.00457 18.5468 9.01275 19.4468 9.05364C20.2788 9.09168 20.7308 9.2307 21.0308 9.34751C21.4298 9.50217 21.7128 9.68707 22.0118 9.98574C22.3108 10.2844 22.4958 10.5688 22.6508 10.967C22.7668 11.2675 22.9068 11.719 22.9438 12.5511C22.9848 13.4506 22.9938 13.7208 22.9938 15.9982C22.9938 18.2756 22.9848 18.5458 22.9438 19.4453C22.9058 20.2774 22.7668 20.7289 22.6508 21.0294C22.4958 21.4276 22.3108 21.7112 22.0118 22.0096C21.7128 22.3083 21.4298 22.4932 21.0308 22.6479C20.7308 22.7652 20.2788 22.9039 19.4468 22.9419C18.5468 22.9828 18.2768 22.9917 15.9988 22.9917C13.7199 22.9917 13.4498 22.9828 12.5508 22.9419C11.7188 22.9035 11.2668 22.7645 10.9658 22.6477C10.5678 22.493 10.2828 22.3081 9.98485 22.0095C9.68585 21.7108 9.50085 21.4271 9.34585 21.0287C9.22885 20.7282 9.08985 20.2766 9.05185 19.4446C9.01085 18.5451 9.00285 18.2748 9.00285 15.9961C9.00285 13.7173 9.01085 13.4485 9.05185 12.5489C9.08985 11.7169 9.22885 11.2654 9.34585 10.9645C9.50085 10.5663 9.68585 10.2819 9.98485 9.98325C10.2828 9.68458 10.5678 9.49969 10.9658 9.34466C11.2668 9.22733 11.7188 9.08866 12.5508 9.05044C13.3378 9.01488 13.6428 9.00421 15.2328 9.00244V9.00457ZM20.5538 10.4214C19.9888 10.4214 19.5298 10.8796 19.5298 11.4451C19.5298 12.0104 19.9888 12.4691 20.5538 12.4691C21.1188 12.4691 21.5778 12.0104 21.5778 11.4451C21.5778 10.8798 21.1188 10.4214 20.5538 10.4214ZM15.9988 11.6179C13.5789 11.6179 11.6168 13.58 11.6168 16.0002C11.6168 18.4203 13.5789 20.3815 15.9988 20.3815C18.4188 20.3815 20.3798 18.4203 20.3798 16.0002C20.3798 13.58 18.4188 11.6179 15.9988 11.6179ZM15.9988 13.1557C17.5698 13.1557 18.8428 14.4291 18.8428 16.0002C18.8428 17.571 17.5698 18.8446 15.9988 18.8446C14.4278 18.8446 13.1538 17.571 13.1538 16.0002C13.1538 14.4291 14.4278 13.1557 15.9988 13.1557Z" fill="#3AC4A0"/>
</svg>
