<svg width="80" height="80" viewBox="0 0 80 80" fill="none" xmlns="http://www.w3.org/2000/svg">
<path fill-rule="evenodd" clip-rule="evenodd" d="M17.836 71.6028V68.393H18.7146V69.847L19.7305 68.393H20.7464L19.5658 69.9567L20.8562 71.6028H19.758L18.7146 70.1488V71.6028H17.836ZM17.2869 23.7016L16.5456 24.9362L11.7132 22.0281L12.5369 20.6564C12.8664 20.1077 13.141 19.751 13.3057 19.559C13.4979 19.3944 13.6901 19.2572 13.9097 19.1749C14.1569 19.0926 14.4314 19.0652 14.706 19.0926C14.9806 19.1475 15.2551 19.2572 15.5297 19.4218C15.8317 19.5864 16.0514 19.7785 16.2161 19.9979C16.3808 20.2174 16.4632 20.4643 16.5181 20.7387C16.5181 20.9307 16.5181 21.1502 16.4357 21.3422C16.3808 21.5617 16.2161 21.8635 15.969 22.275L15.8592 22.4945L15.6944 22.7414L17.2869 23.7016ZM14.6511 22.1104L14.7884 21.8635C14.9806 21.5343 15.0629 21.2874 15.0629 21.1228C15.0355 20.9307 14.9256 20.7936 14.7334 20.6564C14.5138 20.5466 14.3491 20.5192 14.1843 20.5741C14.0196 20.6564 13.8548 20.8484 13.6626 21.1502L13.4979 21.4246L14.6511 22.1104ZM19.2912 20.7387L15.0904 16.9801L17.3967 14.4287L18.3302 15.2517L17.0123 16.7058L17.7262 17.3368L18.9617 15.965L19.8678 16.7881L18.6323 18.1598L19.3461 18.7908L20.664 17.3368L21.5976 18.1872L19.2912 20.7387ZM22.2565 17.3916L19.1265 12.7277L20.3346 11.9047L23.7392 13.1118C23.7941 13.1392 23.9314 13.1941 24.0961 13.2764C24.2883 13.3861 24.4805 13.4959 24.7001 13.6331C24.5629 13.4685 24.4256 13.3038 24.3158 13.1667C24.2059 13.0295 24.0961 12.8923 24.0137 12.7826L22.4487 10.4781L23.6843 9.65501L26.8418 14.3189L25.6062 15.142L22.2291 13.9074C22.1467 13.88 22.0369 13.8251 21.8447 13.7428C21.6799 13.6331 21.4603 13.5233 21.2406 13.3861C21.4054 13.5782 21.5427 13.7154 21.6525 13.88C21.7623 14.0172 21.8721 14.1543 21.927 14.2641L23.4921 16.5686L22.2565 17.3916ZM29.7247 10.8347L29.3403 9.70988L32.1958 8.74967C32.2232 8.7771 32.2232 8.80453 32.2507 8.8594C32.2507 8.91427 32.2781 8.96914 32.3056 9.05145C32.6351 9.9568 32.6351 10.7524 32.333 11.4383C32.0036 12.0967 31.427 12.5905 30.5484 12.8923C30.1091 13.0569 29.6972 13.1118 29.3128 13.1118C28.9284 13.0844 28.5715 13.0021 28.2146 12.81C27.8851 12.6454 27.5831 12.3985 27.3085 12.1241C27.0614 11.8224 26.8692 11.4657 26.7319 11.0816C26.5946 10.6975 26.5397 10.3134 26.5672 9.92936C26.5672 9.54527 26.677 9.16119 26.8418 8.80453C27.0339 8.47532 27.2811 8.17353 27.5831 7.89919C27.8576 7.65227 28.2146 7.46023 28.6264 7.32305C29.1481 7.13101 29.6423 7.07614 30.1091 7.15845C30.5758 7.21332 31.0151 7.40536 31.4544 7.73458L30.3836 8.7771C30.164 8.61249 29.9443 8.50275 29.7247 8.47532C29.505 8.44788 29.2854 8.47532 29.0383 8.55762C28.599 8.6948 28.3244 8.96914 28.1597 9.3258C28.0224 9.70988 28.0224 10.1488 28.1871 10.6427C28.3793 11.1639 28.6264 11.5206 28.9834 11.7126C29.3403 11.9321 29.7247 11.9595 30.164 11.7949C30.5209 11.6852 30.8229 11.4657 30.9877 11.2188C31.1799 10.9445 31.2348 10.6701 31.1799 10.3409L29.7247 10.8347ZM35.3807 9.3258L36.8908 9.10632L36.0122 7.35049C35.9848 7.29562 35.9573 7.21332 35.9024 7.10358C35.8475 6.9664 35.7926 6.82923 35.7102 6.63718C35.7102 6.77436 35.6827 6.91153 35.6827 7.04871C35.6553 7.15845 35.6553 7.29562 35.6278 7.40536L35.3807 9.3258ZM33.5686 11.7401L34.6119 5.89644L36.5064 5.59466L39.3344 10.8347L37.8243 11.0816L37.385 10.1214L35.216 10.4781L35.0787 11.5206L33.5686 11.7401ZM40.57 10.9719L40.6249 8.42045L38.703 5.32031L40.4602 5.34775L41.2015 6.80179C41.2015 6.82923 41.2015 6.82923 41.2289 6.85666C41.2839 6.99384 41.3388 7.15845 41.3662 7.29562C41.3937 7.15845 41.4486 7.02127 41.5584 6.8841C41.5584 6.85666 41.5859 6.82923 41.5859 6.80179L42.3547 5.37518L44.1119 5.40262L42.1076 8.44788L42.0526 10.9993L40.57 10.9719ZM50.5092 9.76475C50.3994 10.1763 50.2347 10.5055 50.015 10.8347C49.7679 11.1365 49.4933 11.3834 49.1364 11.6029C48.8069 11.7949 48.4225 11.9047 48.0382 11.987C47.6263 12.0418 47.2419 12.0144 46.8575 11.9047C46.4731 11.8224 46.1162 11.6578 45.7867 11.4108C45.4572 11.1914 45.2101 10.8896 44.9905 10.5604C44.7983 10.2311 44.661 9.84706 44.6061 9.46297C44.5237 9.07888 44.5512 8.6948 44.661 8.31071C44.7434 7.92662 44.9081 7.56997 45.1552 7.26818C45.3749 6.9664 45.6769 6.71949 46.0064 6.50001C46.3633 6.30797 46.7202 6.17079 47.1046 6.11592C47.5165 6.06105 47.9009 6.08849 48.2853 6.17079C48.6697 6.28053 49.0266 6.44514 49.3561 6.66462C49.6855 6.91153 49.9601 7.18588 50.1523 7.54253C50.372 7.87175 50.4818 8.2284 50.5641 8.61249C50.6191 8.99658 50.5916 9.38067 50.5092 9.76475ZM47.187 10.6427C47.5988 10.7524 47.9558 10.6975 48.3127 10.4506C48.6697 10.2037 48.8893 9.87449 48.9991 9.4081C49.109 8.94171 49.0815 8.53019 48.8893 8.1461C48.6697 7.78945 48.3676 7.54253 47.9832 7.43279C47.5714 7.35049 47.187 7.40536 46.8301 7.65227C46.5006 7.87175 46.2535 8.2284 46.1437 8.6948C46.0338 9.16119 46.0613 9.57271 46.2535 9.9568C46.4457 10.3134 46.7477 10.5604 47.187 10.6427ZM56.4398 15.7455L55.1494 15.0871L55.9456 12.7551C56.028 12.5905 56.0829 12.4259 56.1653 12.2339C56.2476 12.0144 56.33 11.8224 56.4398 11.5755C56.3026 11.7675 56.0829 12.0144 55.8358 12.2888C55.7809 12.3436 55.7534 12.3711 55.726 12.3985L53.8315 14.4012L52.9254 13.9348L53.4471 11.2462C53.4471 11.2188 53.4471 11.1639 53.4745 11.0816C53.5294 10.725 53.6118 10.4232 53.6942 10.2037C53.5844 10.3683 53.4745 10.5604 53.3647 10.725C53.2274 10.917 53.1176 11.0816 53.0078 11.2462L51.6075 13.2764L50.317 12.618L53.6667 8.00892L55.0121 8.6948L54.463 11.6578C54.463 11.6852 54.4355 11.7126 54.4355 11.7675C54.3806 12.0418 54.3257 12.2613 54.2708 12.4259C54.3257 12.3436 54.3806 12.2613 54.463 12.1516C54.5453 12.0693 54.6552 11.9595 54.765 11.8224L56.8517 9.62758L58.2245 10.3134L56.4398 15.7455ZM59.5973 15.8278L60.723 16.8429L61.5467 15.0871C61.5742 15.0322 61.6291 14.9499 61.684 14.8402C61.7389 14.7305 61.8213 14.5658 61.9311 14.4012C61.7938 14.4835 61.684 14.5384 61.5742 14.6207C61.4644 14.703 61.3545 14.7579 61.2722 14.8128L59.5973 15.8278ZM56.6046 15.965L61.8213 13.0569L63.249 14.3464L60.9152 19.8333L59.7895 18.8182L60.2288 17.8855L58.6089 16.4314L57.7303 16.9801L56.6046 15.965ZM61.1624 20.3546L65.83 17.1996L66.6811 18.4342L65.4456 21.8086C65.4181 21.8909 65.3632 22.0007 65.2808 22.1927C65.171 22.3573 65.0612 22.5494 64.9239 22.7963C65.0886 22.6317 65.2534 22.4945 65.3906 22.3848C65.5554 22.275 65.6652 22.1927 65.8025 22.1104L68.1088 20.5466L68.9325 21.7538L64.2375 24.9088L63.4138 23.7016L64.6493 20.2997C64.6768 20.2449 64.7317 20.1077 64.8141 19.9431C64.9239 19.751 65.0337 19.559 65.171 19.3395C65.0063 19.4767 64.8415 19.6139 64.7042 19.751C64.567 19.8608 64.4297 19.9431 64.2924 20.0254L61.986 21.5892L61.1624 20.3546ZM10.2031 77.3367V73.0569H11.3563V74.703H12.8664V73.0569H14.0196V77.3367H12.8664V75.5809H11.3563V77.3367H10.2031ZM14.7334 73.0569H15.8866V75.1419C15.8866 75.4437 15.8866 75.6632 15.8866 75.8004C15.9141 75.9101 15.9415 76.0473 15.969 76.1296C16.0239 76.2393 16.1063 76.3216 16.2161 76.3765C16.3259 76.4314 16.4357 76.4588 16.6005 76.4588C16.7652 76.4588 16.9025 76.4314 17.0123 76.3765C17.0947 76.3216 17.1771 76.2393 17.232 76.1296C17.2594 76.0473 17.2869 75.9101 17.3144 75.8004C17.3144 75.6632 17.3418 75.4437 17.3418 75.1419V74.8401V73.0569H18.4675V75.3065C18.4675 75.7729 18.4401 76.1296 18.3852 76.3491C18.3302 76.5685 18.2204 76.7606 18.1106 76.9252C17.9459 77.0898 17.7537 77.227 17.5065 77.3093C17.2594 77.3916 16.9574 77.4465 16.6005 77.4465C16.2436 77.4465 15.9415 77.3916 15.6944 77.3093C15.4473 77.227 15.2551 77.0898 15.0904 76.9252C14.9806 76.7606 14.8707 76.5685 14.8158 76.3491C14.7609 76.1296 14.7334 75.7729 14.7334 75.3065V74.8676V73.0569ZM19.2089 77.3367V73.0569H20.3346V75.0048L21.6525 73.0569H22.9704L21.4328 75.1419L23.1077 77.3367H21.6799L20.3346 75.4163V77.3367H19.2089ZM23.2724 73.0569H24.4256V75.1419C24.4256 75.4437 24.4256 75.6632 24.453 75.8004C24.453 75.9101 24.4805 76.0473 24.508 76.1296C24.5629 76.2393 24.6452 76.3216 24.7551 76.3765C24.8649 76.4314 25.0022 76.4588 25.1394 76.4588C25.3042 76.4588 25.4415 76.4314 25.5513 76.3765C25.6611 76.3216 25.716 76.2393 25.7709 76.1296C25.7984 76.0473 25.8259 75.9101 25.8533 75.8004C25.8533 75.6632 25.8808 75.4437 25.8808 75.1419V74.8401V73.0569H27.0065V75.3065C27.0065 75.7729 26.979 76.1296 26.9241 76.3491C26.8692 76.5685 26.7868 76.7606 26.6496 76.9252C26.5123 77.0898 26.2926 77.227 26.0455 77.3093C25.7984 77.3916 25.4964 77.4465 25.1394 77.4465C24.7825 77.4465 24.4805 77.3916 24.2334 77.3093C23.9863 77.227 23.7941 77.0898 23.6568 76.9252C23.5195 76.7606 23.4097 76.5685 23.3548 76.3491C23.2999 76.1296 23.2724 75.7729 23.2724 75.3065V74.8676V73.0569ZM32.5252 77.3367H31.4819L31.2348 75.4711C31.2073 75.3614 31.1799 75.1968 31.1799 75.0322C31.1524 74.895 31.1524 74.703 31.125 74.5109C31.125 74.703 31.07 74.9225 30.9877 75.1968C30.9602 75.2517 30.9602 75.3065 30.9328 75.334L30.3836 77.3367H29.6149L29.0383 75.334C29.0383 75.3065 29.0383 75.2517 29.0108 75.1968C28.9284 74.9225 28.8735 74.703 28.8461 74.5384C28.8461 74.6755 28.8186 74.8401 28.8186 75.0048C28.7912 75.1694 28.7912 75.334 28.7637 75.4711L28.5166 77.3367H27.4458L28.1047 73.0569H29.2305L29.862 75.2517C29.862 75.2791 29.862 75.3065 29.8894 75.334C29.9443 75.526 29.9718 75.6906 29.9992 75.8278C29.9992 75.7729 30.0267 75.6906 30.0267 75.5809C30.0542 75.4986 30.0816 75.3888 30.1365 75.2517L30.768 73.0569H31.8937L32.5252 77.3367ZM34.859 77.3367V73.0569H35.7102C36.3691 73.0569 36.8359 73.0843 37.1105 73.1392C37.3576 73.2215 37.6047 73.3038 37.7969 73.4684C38.0715 73.6604 38.2636 73.8799 38.4009 74.1817C38.5382 74.4835 38.6206 74.8127 38.6206 75.1968C38.6206 75.5809 38.5382 75.9101 38.4009 76.2119C38.2636 76.4862 38.0715 76.7331 37.7969 76.9252C37.6047 77.0624 37.385 77.1721 37.1105 77.227C36.8634 77.2818 36.4515 77.3367 35.9024 77.3367H35.7102H34.859ZM35.9848 76.3765H36.177C36.6163 76.3765 36.9457 76.2668 37.1379 76.0747C37.3576 75.9101 37.4674 75.6083 37.4674 75.1968C37.4674 74.7853 37.3576 74.4835 37.1379 74.2915C36.9457 74.0994 36.6163 74.0171 36.177 74.0171H35.9848V76.3765ZM40.2131 75.7181H41.3388L40.8995 74.3189C40.8995 74.2915 40.872 74.2091 40.8446 74.1268C40.8446 74.0171 40.8171 73.9074 40.7622 73.7428C40.7347 73.8525 40.7073 73.9622 40.7073 74.0445C40.6798 74.1543 40.6524 74.2366 40.6249 74.3189L40.2131 75.7181ZM38.5931 77.3367L40.0483 73.0569H41.4761L42.9312 77.3367H41.7781L41.5859 76.5685H39.9659L39.7463 77.3367H38.5931ZM43.1784 77.3367V73.0569H44.3041L45.8691 75.2517C45.8965 75.3065 45.9515 75.3888 46.0338 75.526C46.0887 75.6632 46.1711 75.8278 46.2535 75.9924C46.226 75.8278 46.1986 75.6632 46.1986 75.526C46.1986 75.3888 46.1986 75.2791 46.1986 75.1694V73.0569H47.2694V77.3367H46.1986L44.6061 75.1145C44.5786 75.0871 44.5237 74.9773 44.4414 74.8401C44.3864 74.703 44.3041 74.5658 44.2217 74.3738C44.2492 74.5658 44.2766 74.703 44.2766 74.8401C44.2766 74.9773 44.3041 75.1145 44.3041 75.2242V77.3367H43.1784ZM49.8777 77.3367V73.0569H51.0035V74.703H52.541V73.0569H53.6667V77.3367H52.541V75.5809H51.0035V77.3367H49.8777ZM55.5338 75.7181H56.6869L56.2476 74.3189C56.2476 74.2915 56.2202 74.2091 56.1927 74.1268C56.1653 74.0171 56.1378 73.9074 56.1104 73.7428C56.0829 73.8525 56.0554 73.9622 56.028 74.0445C56.0005 74.1543 55.9731 74.2366 55.9731 74.3189L55.5338 75.7181ZM53.9413 77.3367L55.3965 73.0569H56.8242L58.252 77.3367H57.1262L56.9066 76.5685H55.2867L55.067 77.3367H53.9413ZM63.3314 77.3367H62.2606L62.0135 75.4711C61.986 75.3614 61.986 75.1968 61.9586 75.0322C61.9586 74.895 61.9311 74.703 61.9311 74.5109C61.9037 74.703 61.8488 74.9225 61.7664 75.1968C61.7664 75.2517 61.7389 75.3065 61.7389 75.334L61.1624 77.3367H60.3936L59.8444 75.334C59.817 75.3065 59.817 75.2517 59.817 75.1968C59.7346 74.9225 59.6797 74.703 59.6522 74.5384C59.6248 74.6755 59.6248 74.8401 59.5973 75.0048C59.5973 75.1694 59.5699 75.334 59.5424 75.4711L59.2953 77.3367H58.252L58.8835 73.0569H60.0092L60.6407 75.2517C60.6681 75.2791 60.6681 75.3065 60.6681 75.334C60.723 75.526 60.778 75.6906 60.778 75.8278C60.8054 75.7729 60.8054 75.6906 60.8329 75.5809C60.8603 75.4986 60.8878 75.3888 60.9152 75.2517L61.5467 73.0569H62.6725L63.3314 77.3367ZM65.6378 77.3367V73.0569H66.8184C67.2851 73.0569 67.6146 73.0843 67.8068 73.1118C67.999 73.1666 68.1363 73.2489 68.2736 73.3312C68.4383 73.4684 68.5481 73.6056 68.6305 73.7976C68.7129 73.9622 68.7403 74.1543 68.7403 74.3738C68.7403 74.703 68.658 74.9773 68.5207 75.1968C68.3559 75.3888 68.1088 75.526 67.8068 75.6083L68.96 77.3367H67.6695L66.7086 75.6632V77.3367H65.6378ZM66.7086 75.0871H66.9282C67.1753 75.0871 67.3401 75.0322 67.4499 74.9499C67.5597 74.8676 67.6146 74.7304 67.6146 74.5384C67.6146 74.3189 67.5872 74.1817 67.4773 74.072C67.3675 73.9897 67.1753 73.9622 66.9282 73.9622H66.7086V75.0871ZM69.2895 77.3367V73.0569H70.4426V77.3367H69.2895ZM22.3663 71.6028V68.393H24.3432V69.0788H23.2175V69.655H24.2608V70.3408H23.2175V70.8621H24.3432V71.6028H22.3663ZM29.862 71.6028H29.0657L28.8735 70.2037C28.8461 70.0939 28.8461 69.9842 28.8186 69.8744C28.8186 69.7647 28.8186 69.6275 28.7912 69.4904C28.7912 69.6275 28.7362 69.7921 28.6813 69.9842C28.6539 70.0391 28.6539 70.0665 28.6539 70.0939L28.2146 71.6028H27.638L27.1987 70.0939C27.1987 70.0665 27.1712 70.0391 27.1712 69.9842C27.1163 69.7921 27.0614 69.6275 27.0339 69.4904C27.0339 69.6001 27.0339 69.7373 27.0065 69.847C27.0065 69.9567 26.979 70.0939 26.979 70.2037L26.7868 71.6028H25.9631L26.4574 68.393H27.336L27.8302 70.0391C27.8302 70.0391 27.8302 70.0665 27.8302 70.0939C27.8851 70.2311 27.9126 70.3683 27.9126 70.478C27.94 70.4231 27.94 70.3408 27.94 70.286C27.9675 70.2037 27.9949 70.1214 28.0224 70.0391L28.5166 68.393H29.3677L29.862 71.6028ZM31.6192 71.6028V68.393H33.596V69.0788H32.4703V69.655H33.5137V70.3408H32.4703V70.8621H33.596V71.6028H31.6192ZM35.4356 71.6028V68.393H36.2868L37.4949 70.0391C37.5223 70.0665 37.5498 70.1214 37.6047 70.2311C37.6596 70.3408 37.7145 70.4506 37.7969 70.5878C37.7694 70.478 37.742 70.3408 37.742 70.2311C37.742 70.1488 37.742 70.0391 37.742 69.9567V68.393H38.5657V71.6028H37.742L36.5339 69.9293C36.5064 69.9019 36.4515 69.847 36.3966 69.7373C36.3417 69.6275 36.2868 69.5178 36.2319 69.3806C36.2593 69.5178 36.2593 69.6275 36.2593 69.7373C36.2868 69.847 36.2868 69.9293 36.2868 70.0116V71.6028H35.4356ZM41.0093 71.6028V69.1337H40.268V68.393H42.6018V69.1337H41.8604V71.6028H41.0093ZM44.3041 71.6028V68.393H46.2535V69.0788H45.1552V69.655H46.1986V70.3408H45.1552V70.8621H46.2535V71.6028H44.3041ZM48.1205 71.6028V68.393H49.0266C49.3835 68.393 49.6306 68.393 49.7679 68.4204C49.9052 68.4753 50.0425 68.5301 50.1523 68.585C50.2621 68.6947 50.3445 68.8045 50.3994 68.9417C50.4818 69.0788 50.5092 69.216 50.5092 69.3806C50.5092 69.6275 50.4543 69.847 50.317 69.9842C50.2072 70.1488 50.015 70.2585 49.7954 70.286L50.6465 71.6028H49.6581L48.9442 70.3408V71.6028H48.1205ZM48.9442 69.9019H49.109C49.2737 69.9019 49.411 69.8744 49.5208 69.7921C49.6032 69.7373 49.6306 69.6275 49.6306 69.4904C49.6306 69.3532 49.6032 69.216 49.5208 69.1611C49.4384 69.0788 49.3012 69.0514 49.109 69.0514H48.9442V69.9019ZM52.2939 71.6028V68.393H53.1725V71.6028H52.2939ZM56.0005 70.3957H56.8791L56.5497 69.3257C56.5222 69.2983 56.5222 69.2434 56.4947 69.1886C56.4947 69.1063 56.4673 69.024 56.4398 68.9142C56.4124 68.9691 56.3849 69.0514 56.3849 69.1337C56.3575 69.1886 56.33 69.2709 56.33 69.3257L56.0005 70.3957ZM54.765 71.6028L55.8907 68.393H56.989L58.0872 71.6028H57.2086L57.0439 71.0267H55.8083L55.6436 71.6028H54.765ZM59.6797 71.6028V68.393H60.5034L61.7389 70.0391C61.7389 70.0665 61.7938 70.1214 61.8488 70.2311C61.9037 70.3408 61.9586 70.4506 62.0135 70.5878C62.0135 70.478 61.986 70.3408 61.986 70.2311C61.9586 70.1488 61.9586 70.0391 61.9586 69.9567V68.393H62.8097V71.6028H61.9586L60.7505 69.9293C60.723 69.9019 60.6956 69.847 60.6407 69.7373C60.5858 69.6275 60.5309 69.5178 60.4759 69.3806C60.4759 69.5178 60.5034 69.6275 60.5034 69.7373C60.5034 69.847 60.5034 69.9293 60.5034 70.0116V71.6028H59.6797Z" fill="white"/>
<path fill-rule="evenodd" clip-rule="evenodd" d="M22.9722 29.9852C23.384 25.6231 27.0632 22.1937 31.5386 22.1937C31.621 22.1937 31.7033 22.1937 31.7857 22.1937C32.1976 17.8316 35.8767 14.4297 40.3247 14.4297C44.7726 14.4297 48.4518 17.8316 48.8637 22.1937C48.946 22.1937 49.0284 22.1937 49.1108 22.1937C53.5862 22.1937 57.2653 25.6231 57.6772 29.9852C61.9055 30.5065 65.1728 34.1279 65.1728 38.49H62.8665C62.8665 35.0332 60.0659 32.2075 56.6064 32.2075C53.1469 32.2075 50.3188 35.0332 50.3188 38.49H46.9692V53.4969H57.6497V55.8014H44.9099L44.6628 33.9633C44.1411 33.4695 43.5371 33.0579 42.8507 32.7561V63.8947H40.5443V32.2349C40.4071 32.2075 40.2423 32.2075 40.105 32.2349V63.8947H37.7987V32.7561C37.1123 33.0579 36.5082 33.4695 35.9866 33.9633L35.7395 55.8014H22.9996V53.4969H33.6802V38.49H30.3305C30.3305 35.0332 27.5025 32.2075 24.043 32.2075C20.5835 32.2075 17.7829 35.0332 17.7829 38.49H15.4766C15.4766 34.1279 18.7439 30.5065 22.9722 29.9852ZM34.0646 22.5778C37.3045 23.5655 39.7206 26.4461 40.0776 29.9029C40.2423 29.9029 40.4071 29.9029 40.5718 29.9029C40.9287 26.4461 43.3449 23.5655 46.5848 22.5778C46.3651 19.3131 43.6469 16.7342 40.3247 16.7342C37.0024 16.7342 34.2843 19.3131 34.0646 22.5778ZM32.1976 35.7465C33.0762 33.1677 35.1629 31.1101 37.7987 30.287C37.5516 27.0497 34.8334 24.4983 31.5386 24.4983C28.3262 24.4983 25.6629 26.9125 25.306 30.0127C28.5184 30.4791 31.1817 32.7561 32.1976 35.7465ZM42.8507 30.287C45.4865 31.1101 47.5732 33.1677 48.4518 35.7465C49.4677 32.7561 52.131 30.4791 55.3434 30.0127C54.9864 26.9125 52.3232 24.4983 49.1108 24.4983C45.816 24.4983 43.0978 27.0497 42.8507 30.287Z" fill="white"/>
</svg>
