<svg width="80" height="80" viewBox="0 0 80 80" fill="none" xmlns="http://www.w3.org/2000/svg">
<g clip-path="url(#clip0_549_7505)">
<path fill-rule="evenodd" clip-rule="evenodd" d="M40.0322 4C48.3196 4 55.9387 7.40852 61.3522 12.9557C58.8125 12.4879 56.3397 12.2874 53.9336 12.2874C45.9804 12.2874 38.2945 14.4929 31.6112 18.7034C28.6705 20.6416 26.1308 22.8471 23.9253 25.5873C19.9821 30.4662 17.1751 36.2807 17.0414 42.6299C16.9746 48.3776 19.1133 53.5906 23.5911 57.2665C25.663 58.9373 27.7348 60.2072 30.4082 61.1429C32.7473 61.878 35.2202 62.2122 37.6262 62.0785C40.2327 61.9449 42.9061 61.3434 45.0448 59.6057C46.2478 58.67 46.6488 57.3333 46.5151 56.0635C46.3814 54.5931 45.6463 53.457 44.3096 52.9891C42.6387 52.3876 40.0991 52.1203 38.8292 53.6575C38.4282 54.1921 38.495 54.8605 38.896 55.462C38.9629 55.5957 39.0965 55.7962 39.1634 55.863C38.7624 55.863 38.4282 55.6625 38.2277 55.462C36.49 53.7911 38.4282 51.9198 39.9654 51.2515C44.8442 49.1128 54.4683 52.254 51.3271 58.9373C49.9236 61.878 46.2478 63.2147 42.7056 63.6825C40.0991 64.0835 37.4925 64.0835 35.0865 63.6825H35.0197C20.8509 61.3434 9.95703 48.9123 9.95703 34.0752C9.95703 17.5004 23.4574 4 40.0322 4Z" fill="white"/>
<path fill-rule="evenodd" clip-rule="evenodd" d="M64.6956 16.9003C67.9705 21.7124 69.9755 27.4601 70.0423 33.6756C69.3071 32.9404 68.572 32.2721 67.7031 31.8042C63.0248 29.0641 54.8042 28.9304 49.8585 29.7992C44.9128 30.6681 40.3013 31.6706 35.9571 34.6781C31.6129 37.6188 27.4692 42.8986 26.9345 48.379C26.6004 52.6563 28.0039 55.4634 33.3506 58.404C35.6229 59.6739 38.8978 59.6739 41.237 58.5377C42.5068 57.9362 43.643 55.998 42.9078 54.795C42.2395 53.6589 39.9671 53.3247 39.2988 55.0624C38.8978 54.5277 39.5661 53.3915 40.1676 53.191C41.3706 52.8568 42.7073 52.79 43.7766 53.3915C44.9128 54.1267 46.049 55.5302 45.7817 56.9337C45.4475 58.6045 43.9771 59.6071 42.44 60.3422C40.5686 61.2779 38.2294 61.5452 36.0908 61.4784C33.6179 61.4116 31.0114 60.8101 28.8059 59.6071C26.0657 58.0699 23.3924 56.0649 21.7215 53.3915C19.917 50.6513 18.8477 47.3097 18.8477 44.0348C18.8477 37.2846 21.8552 32.0047 26.1994 27.0591C29.3406 23.45 32.5486 21.1109 37.3606 18.7048C42.2395 16.3657 49.5912 14.1602 55.6731 14.1602C57.9454 14.1602 60.2177 14.5612 62.3564 15.3632C62.8243 15.4968 63.6263 16.0983 64.6956 16.9003Z" fill="white"/>
<path fill-rule="evenodd" clip-rule="evenodd" d="M30.341 55.4627C27.4672 52.1879 28.0018 49.314 29.4054 45.705C31.544 40.0241 36.8239 36.8829 42.2374 34.6774C43.4404 34.2096 47.0494 33.1402 50.057 32.6056C53.5323 32.0041 56.7403 32.2714 60.2157 32.7392C62.5549 33.0734 66.899 34.9448 68.7035 36.4819C69.8397 37.4844 69.5724 39.4894 69.305 40.8261C68.2357 45.304 66.2307 49.3808 63.4237 52.8562C64.2257 47.9105 62.0202 46.2397 58.0102 44.5688C55.671 43.5663 51.661 42.898 48.9208 42.8311C44.7771 42.6975 39.1631 44.3683 36.9576 46.7075C35.3536 48.3783 34.4179 49.4477 34.1505 51.6532C33.95 53.4577 34.5515 55.0617 36.1556 56.2647C36.9576 56.7994 37.7596 56.7994 38.6284 57.1336C39.0962 57.2672 40.4997 56.9331 40.9676 56.5321C41.9032 55.8637 41.6359 54.6607 40.8339 54.3265C40.7671 54.0592 41.5691 54.2597 41.7696 54.4602C43.5741 56.0642 42.2374 57.2672 40.8339 57.9356C39.2967 58.6707 37.4922 58.7376 35.8882 58.4702C32.9475 58.0024 31.4772 56.7994 30.341 55.4627Z" fill="white"/>
<path fill-rule="evenodd" clip-rule="evenodd" d="M0 76.0486V66.8255H1.67084V70.9024L5.1462 66.8255H7.41855L4.21053 70.4345L7.55221 76.0486H5.3467L3.07435 71.7044L1.67084 73.2415V76.0486H0ZM8.42105 76.0486V66.8255H14.6366V68.3627H10.1587V70.4345H14.3024V71.9717H10.1587V74.4446H14.8371V76.0486H8.42105ZM16.2406 76.0486V66.8255H18.7803L20.2506 73.1079L21.7878 66.8255H24.3275V76.0486H22.7235V68.7637L21.0526 76.0486H19.4486L17.7778 68.7637V76.0486H16.2406ZM26.0652 76.0486V66.8255H27.736V70.9024L31.1445 66.8255H33.4169L30.2757 70.4345L33.6174 76.0486H31.4119L29.0727 71.7044L27.736 73.2415V76.0486H26.0652ZM34.0852 71.5039C34.0852 70.5682 34.2189 69.7662 34.4862 69.0978C34.6867 68.63 34.9541 68.229 35.2882 67.828C35.6224 67.4938 35.9566 67.2265 36.3576 67.026C36.8922 66.7587 37.4937 66.625 38.1621 66.625C39.4319 66.625 40.4344 67.0928 41.1696 67.8948C41.9048 68.7637 42.2389 69.9667 42.2389 71.437C42.2389 72.9074 41.9048 74.1104 41.1696 74.9124C40.4344 75.7812 39.4319 76.1822 38.2289 76.1822C36.9591 76.1822 35.9566 75.7812 35.2214 74.9124C34.4862 74.1104 34.0852 72.9742 34.0852 71.5039ZM35.8897 71.437C35.8897 72.4395 36.0902 73.2415 36.4912 73.7762C36.9591 74.3109 37.4937 74.5782 38.2289 74.5782C38.8972 74.5782 39.4319 74.3109 39.8329 73.7762C40.3008 73.2415 40.5013 72.4395 40.5013 71.3702C40.5013 70.3009 40.3008 69.5657 39.8997 69.031C39.4319 68.4963 38.8972 68.229 38.2289 68.229C37.4937 68.229 36.9591 68.4963 36.4912 69.031C36.0902 69.5657 35.8897 70.3677 35.8897 71.437ZM43.5756 76.0486V66.8255H46.1153L47.5856 73.1079L49.1228 66.8255H51.6625V76.0486H50.0585V68.7637L48.3876 76.0486H46.7836L45.1128 68.7637V76.0486H43.5756ZM53.2665 76.0486V66.8255H55.0042V76.0486H53.2665ZM56.6082 76.0486V66.8255H58.2122L61.6875 72.9742V66.8255H63.2916V76.0486H61.5539L58.1454 69.9667V76.0486H56.6082ZM65.0292 76.0486V66.8255H70.8438V68.3627H66.7669V70.5682H70.2423V72.1054H66.7669V76.0486H65.0292ZM71.8463 71.5039C71.8463 70.5682 71.9799 69.7662 72.2473 69.0978C72.4478 68.63 72.7151 68.229 73.0493 67.828C73.3835 67.4938 73.7176 67.2265 74.1186 67.026C74.6533 66.7587 75.2548 66.625 75.9231 66.625C77.1261 66.625 78.1287 67.0928 78.8638 67.8948C79.599 68.7637 80 69.9667 80 71.437C80 72.9074 79.599 74.1104 78.8638 74.9124C78.1287 75.7812 77.193 76.1822 75.9231 76.1822C74.7201 76.1822 73.7176 75.7812 72.9825 74.9124C72.2473 74.1104 71.8463 72.9742 71.8463 71.5039ZM73.584 71.437C73.584 72.4395 73.8513 73.2415 74.2523 73.7762C74.7201 74.3109 75.2548 74.5782 75.9231 74.5782C76.5915 74.5782 77.193 74.3109 77.594 73.7762C78.0618 73.2415 78.2623 72.4395 78.2623 71.3702C78.2623 70.3009 78.0618 69.5657 77.594 69.031C77.193 68.4963 76.6583 68.229 75.9231 68.229C75.2548 68.229 74.6533 68.4963 74.2523 69.031C73.8513 69.5657 73.584 70.3677 73.584 71.437Z" fill="white"/>
</g>
<defs>
<clipPath id="clip0_549_7505">
<rect width="80" height="72.1805" fill="white" transform="translate(0 4)"/>
</clipPath>
</defs>
</svg>
