<svg width="32" height="34" viewBox="0 0 32 34" fill="none" xmlns="http://www.w3.org/2000/svg">
<path fill-rule="evenodd" clip-rule="evenodd" d="M0 17C0 7.61115 7.163 0 16 0C24.837 0 32 7.61115 32 17C32 26.3889 24.837 34 16 34C7.163 34 0 26.3889 0 17Z" fill="white"/>
<path d="M11.5477 10.4994C11.5237 9.36445 10.7597 8.5 9.51974 8.5C8.27974 8.5 7.46875 9.36445 7.46875 10.4994C7.46875 11.6109 8.25575 12.5002 9.47275 12.5002H9.49575C10.7598 12.5002 11.5477 11.6109 11.5477 10.4994Z" fill="#3AC4A0"/>
<path d="M11.3057 14.0802H7.67969V25.6555H11.3057V14.0802Z" fill="#3AC4A0"/>
<path d="M20.2075 13.8083C22.5935 13.8083 24.3825 15.4631 24.3825 19.0185L24.3815 25.6555H20.7565V19.4627C20.7565 17.9072 20.2315 16.8457 18.9185 16.8457C17.9175 16.8457 17.3205 17.5613 17.0585 18.2525C16.9625 18.5001 16.9385 18.8452 16.9385 19.1912V25.6559H13.3125C13.3125 25.6559 13.3605 15.1666 13.3125 14.0805H16.9385V15.72C17.4205 14.9318 18.2825 13.8083 20.2075 13.8083Z" fill="#3AC4A0"/>
</svg>
