<svg width="32" height="32" viewBox="0 0 32 32" fill="none" xmlns="http://www.w3.org/2000/svg">
<path fill-rule="evenodd" clip-rule="evenodd" d="M-0.00012207 16C-0.00012207 7.16344 7.16281 0 15.9997 0C24.8366 0 31.9996 7.16344 31.9996 16C31.9996 24.8366 24.8366 32 15.9997 32C7.16281 32 -0.00012207 24.8366 -0.00012207 16Z" fill="white"/>
<path d="M23.0454 10.4568C22.1304 10.2485 21.3026 9.74545 20.6809 9.01987C20.0592 8.2943 19.6755 7.38348 19.5849 6.41812V6H16.4181V18.9903C16.4187 19.5667 16.2442 20.1287 15.9191 20.5966C15.5941 21.0646 15.1351 21.4149 14.6071 21.5978C14.0791 21.7807 13.5089 21.787 12.9773 21.6157C12.4456 21.4445 11.9795 21.1045 11.6449 20.6437C11.3452 20.2359 11.1617 19.7494 11.1151 19.2392C11.0685 18.729 11.1607 18.2155 11.3813 17.7568C11.6019 17.298 11.9421 16.9124 12.3634 16.6433C12.7847 16.3743 13.2703 16.2327 13.7653 16.2345C14.0391 16.2328 14.3115 16.2745 14.5731 16.358V13.032C14.2686 12.993 13.9618 12.9771 13.6552 12.9845C12.5255 13.0158 11.4292 13.3874 10.5004 14.0538C9.57162 14.7203 8.85073 15.6527 8.426 16.7368C8.00127 17.821 7.89114 19.0098 8.10909 20.1577C8.32703 21.3057 8.8636 22.3629 9.65309 23.2C10.4622 24.0516 11.4976 24.635 12.6277 24.8761C13.7579 25.1171 14.9317 25.0049 16.0001 24.5537C17.0685 24.1025 17.9832 23.3327 18.6281 22.3421C19.2729 21.3515 19.6187 20.1848 19.6216 18.9903V12.3383C20.8988 13.2829 22.4304 13.7881 24 13.7828V10.5518C23.6917 10.5531 23.3841 10.5213 23.0821 10.4568H23.0454Z" fill="#3AC4A0"/>
</svg>
