<svg width="32" height="32" viewBox="0 0 32 32" fill="none" xmlns="http://www.w3.org/2000/svg">
<path fill-rule="evenodd" clip-rule="evenodd" d="M-0.000244141 16C-0.000244141 7.16344 7.16316 0 15.9998 0C24.8364 0 31.9998 7.16344 31.9998 16C31.9998 24.8366 24.8364 32 15.9998 32C7.16316 32 -0.000244141 24.8366 -0.000244141 16Z" fill="white"/>
<path fill-rule="evenodd" clip-rule="evenodd" d="M15.5206 13.405L15.5542 13.9586L14.9946 13.8909C12.9577 13.631 11.1782 12.7497 9.66737 11.2696L8.92866 10.5351L8.73846 11.0775C8.33556 12.2864 8.59296 13.5632 9.43227 14.4219C9.87997 14.8964 9.77927 14.9642 9.00706 14.6818C8.73846 14.5914 8.50336 14.5236 8.48096 14.5575C8.40266 14.6366 8.67126 15.6647 8.88386 16.0715C9.17486 16.6364 9.76806 17.1901 10.4172 17.5177L10.9656 17.7776L10.3165 17.7889C9.68967 17.7889 9.66737 17.8002 9.73447 18.0375C9.95827 18.7719 10.8425 19.5515 11.8274 19.8905L12.5212 20.1277L11.9169 20.4893C11.0216 21.009 9.96947 21.3028 8.91746 21.3254C8.41386 21.3367 7.99976 21.3819 7.99976 21.4158C7.99976 21.5288 9.36517 22.1615 10.1598 22.4101C12.5436 23.1445 15.3751 22.8281 17.5015 21.574C19.0124 20.6814 20.5233 18.9075 21.2284 17.1901C21.6089 16.2749 21.9894 14.6027 21.9894 13.8005C21.9894 13.2807 22.023 13.2129 22.6497 12.5915C23.019 12.2299 23.366 11.8345 23.4331 11.7215C23.545 11.5068 23.5338 11.5068 22.9631 11.6989C22.0118 12.0379 21.8775 11.9927 22.3475 11.4842C22.6945 11.1227 23.1086 10.4673 23.1086 10.2753C23.1086 10.2414 22.9407 10.2979 22.7504 10.3995C22.549 10.5125 22.1013 10.682 21.7656 10.7837L21.1612 10.9758L20.6128 10.6029C20.3106 10.3995 19.8854 10.1736 19.6615 10.1058C19.0907 9.9476 18.2178 9.97019 17.703 10.151C16.304 10.6594 15.4199 11.9701 15.5206 13.405Z" fill="#3AC4A0"/>
</svg>
