<svg width="32" height="32" viewBox="0 0 32 32" fill="none" xmlns="http://www.w3.org/2000/svg">
<g clip-path="url(#clip0_1515_991)">
<path fill-rule="evenodd" clip-rule="evenodd" d="M0 16C0 7.16344 7.163 0 16 0C24.837 0 32 7.16344 32 16C32 24.8366 24.837 32 16 32C7.163 32 0 24.8366 0 16Z" fill="white"/>
<path d="M23.7286 10.9312C21.1856 6.99987 15.9937 5.83111 11.9673 8.27488C8.04685 10.7186 6.77535 16.0312 9.31834 19.9625L9.53026 20.2812L8.6826 23.4687L11.8613 22.6187L12.1792 22.8312C13.5567 23.575 15.0401 24 16.5235 24C18.1129 24 19.7022 23.575 21.0797 22.725C25.0001 20.175 26.1657 14.9687 23.7286 10.9312ZM21.5035 19.1125C21.0797 19.75 20.5499 20.175 19.8082 20.2812C19.3844 20.2812 18.8546 20.4937 16.7354 19.6437C14.9341 18.7937 13.4507 17.4124 12.3911 15.8187C11.7554 15.0749 11.4375 14.1187 11.3315 13.1624C11.3315 12.3124 11.6494 11.5687 12.1792 11.0374C12.3911 10.8249 12.603 10.7186 12.815 10.7186H13.3447C13.5567 10.7186 13.7686 10.7186 13.8745 11.1437C14.0865 11.6749 14.6162 12.9499 14.6162 13.0562C14.7222 13.1624 14.7222 13.3749 14.6162 13.4812C14.7222 13.6937 14.6162 13.9062 14.5103 14.0124C14.4043 14.1187 14.2984 14.3312 14.1924 14.4374C13.9805 14.5437 13.8745 14.7562 13.9805 14.9687C14.4043 15.6062 14.9341 16.2437 15.4639 16.7749C16.0997 17.3062 16.7354 17.7312 17.4771 18.05C17.689 18.1562 17.9009 18.1562 18.0069 17.9437C18.1129 17.7312 18.6426 17.1999 18.8546 16.9874C19.0665 16.7749 19.1724 16.7749 19.3844 16.8812L21.0797 17.7312C21.2916 17.8375 21.5035 17.9437 21.6095 18.05C21.7154 18.3687 21.7154 18.7937 21.5035 19.1125Z" fill="#3AC4A0"/>
</g>
<defs>
<clipPath id="clip0_1515_991">
<rect width="32" height="32" fill="white"/>
</clipPath>
</defs>
</svg>
