<svg width="32" height="32" viewBox="0 0 32 32" fill="none" xmlns="http://www.w3.org/2000/svg">
<path fill-rule="evenodd" clip-rule="evenodd" d="M-0.000488281 16C-0.000488281 7.16344 7.16258 0 15.9997 0C24.8367 0 31.9998 7.16344 31.9998 16C31.9998 24.8366 24.8367 32 15.9997 32C7.16258 32 -0.000488281 24.8366 -0.000488281 16Z" fill="white"/>
<path fill-rule="evenodd" clip-rule="evenodd" d="M22.6693 10.499C23.4033 10.7005 23.9813 11.2942 24.1783 12.0482C24.5343 13.4148 24.5342 16.2661 24.5342 16.2661C24.5342 16.2661 24.5343 19.1173 24.1783 20.4839C23.9813 21.238 23.4033 21.8317 22.6693 22.0333C21.3383 22.3994 16.0013 22.3994 16.0013 22.3994C16.0013 22.3994 10.6643 22.3994 9.33325 22.0333C8.59925 21.8317 8.02025 21.238 7.82425 20.4839C7.46825 19.1173 7.46826 16.2661 7.46826 16.2661C7.46826 16.2661 7.46825 13.4148 7.82425 12.0482C8.02025 11.2942 8.59925 10.7005 9.33325 10.499C10.6643 10.1328 16.0013 10.1328 16.0013 10.1328C16.0013 10.1328 21.3383 10.1328 22.6693 10.499ZM14.4012 13.866V19.1994L18.6682 16.5328L14.4012 13.866Z" fill="#3AC4A0"/>
</svg>
