<svg width="133" height="46" viewBox="0 0 133 46" fill="none" xmlns="http://www.w3.org/2000/svg">
<path d="M0 36.7701L2.28341 32.208C4.18575 33.7144 7.4893 35.8778 10.1984 35.8778C13.295 35.8778 14.0964 34.7078 14.0964 33.2026C14.0964 28.6138 1.3043 31.4495 1.46837 22.2796C1.52069 19.3446 4.16435 15.3241 10.5836 15.3241C13.4216 15.3241 17.6496 16.6837 19.7457 18.1182L17.6538 22.6363C15.557 21.3403 13.9085 20.6893 11.8427 20.2827C8.80191 19.684 7.20216 20.7791 7.20216 22.32C7.20216 26.8381 19.6007 24.2437 19.873 33.205C19.9978 37.301 16.617 40.4339 10.1663 40.4339C6.58568 40.4309 1.99984 38.4513 0 36.7701Z" fill="black"/>
<path d="M39.3844 32.3377H26.194C26.6797 34.6668 28.5274 36.0936 31.1847 36.0936C33.0318 36.0936 34.361 35.5027 35.5601 34.2858L38.3833 37.0448C36.7627 39.0268 34.1987 40.4333 31.0551 40.4333C25.03 40.4375 21.1064 36.37 21.1064 30.8081C21.1064 25.211 25.0925 21.1774 30.4077 21.1774C35.528 21.1774 39.4819 24.8632 39.4819 30.877C39.4813 31.2949 39.4165 31.8859 39.3844 32.3377ZM26.1274 29.1744H34.7201C34.3634 26.8102 32.7108 25.2805 30.4398 25.2805C28.1386 25.2805 26.4853 26.7751 26.1292 29.1744H26.1274Z" fill="black"/>
<path d="M58.6588 32.334H45.4684C45.9524 34.6632 47.8024 36.09 50.4597 36.09C52.3068 36.09 53.6354 35.499 54.8345 34.2821L57.6583 37.0411C56.0378 39.0231 53.4737 40.4297 50.3301 40.4297C44.3021 40.4297 40.3809 36.3622 40.3809 30.7991C40.3809 25.202 44.3669 21.1684 49.6815 21.1684C54.8024 21.1684 58.7563 24.8542 58.7563 30.868C58.7563 31.2913 58.6915 31.8822 58.6588 32.334ZM45.4019 29.1708H53.9921C53.6354 26.8065 51.9828 25.2769 49.7119 25.2769C47.413 25.2769 45.7603 26.7714 45.4036 29.1708H45.4019Z" fill="black"/>
<path d="M81.668 37.7683L83.3712 34.1651C84.8794 35.2429 87.3982 36.335 89.4717 36.335C91.7308 36.335 91.9204 36.0015 91.9204 34.9581C91.9204 32.2146 82.6376 33.5653 82.505 27.1555C82.4319 23.6106 85.2616 21.1774 90.1946 21.1774C92.5197 21.1774 95.268 22.3129 96.8701 23.3562L95.0379 27.0913C93.3733 26.048 91.8443 25.3828 90.3213 25.1492C88.5461 24.8763 87.4208 25.5558 87.4208 26.529C87.4208 29.7273 97.1275 27.6531 96.9985 34.6936C96.9355 38.1695 93.9898 40.45 88.9314 40.45C86.0725 40.45 83.2386 38.915 81.668 37.7683Z" fill="black"/>
<path d="M83.1011 11.1033L77.6723 5.67449C77.2379 5.24249 76.6501 5 76.0375 5C75.4248 5 74.8371 5.24249 74.4026 5.67449L68.9738 11.1033C68.7589 11.3179 68.5884 11.5727 68.4721 11.8532C68.3558 12.1338 68.2959 12.4345 68.2959 12.7381C68.2959 13.0418 68.3558 13.3425 68.4721 13.623C68.5884 13.9036 68.7589 14.1584 68.9738 14.373C69.1884 14.5879 69.4432 14.7584 69.7237 14.8747C70.0043 14.991 70.305 15.0509 70.6087 15.0509C70.9123 15.0509 71.213 14.991 71.4936 14.8747C71.7741 14.7584 72.0289 14.5879 72.2435 14.373L76.0345 10.5724L79.8321 14.37C80.0466 14.5849 80.3015 14.7554 80.582 14.8717C80.8625 14.988 81.1632 15.0479 81.4669 15.0479C81.7706 15.0479 82.0713 14.988 82.3518 14.8717C82.6323 14.7554 82.8871 14.5849 83.1017 14.37C83.5348 13.9367 83.778 13.3491 83.7779 12.7365C83.7777 12.1239 83.5343 11.5365 83.1011 11.1033Z" fill="black"/>
<path d="M78.3496 20.2442V17.594V14.2031L76.0346 11.8947L73.7239 14.2049V18.4079C73.7239 18.5404 73.687 19.4904 72.8916 19.8138L65.2335 22.9271L65.24 22.9432C63.7563 23.6469 62.4886 24.7359 61.5692 26.0965C60.6498 27.4572 60.1123 29.0396 60.0129 30.6788C59.9135 32.3179 60.2558 33.9537 61.004 35.4155C61.7523 36.8773 62.879 38.1115 64.2668 38.9894C65.6546 39.8672 67.2526 40.3566 68.894 40.4065C70.5354 40.4563 72.1601 40.0648 73.5986 39.2728C75.0371 38.4807 76.2367 37.3171 77.0723 35.9035C77.9078 34.4898 78.3487 32.8778 78.349 31.2356C78.349 31.1542 78.349 31.0733 78.349 30.9925V24.4835L73.7281 26.3615V31.3622C73.7052 32.1756 73.4648 32.9681 73.0319 33.6571C72.599 34.3461 71.9893 34.9065 71.2664 35.28C70.5435 35.6535 69.7337 35.8265 68.9212 35.781C68.1088 35.7354 67.3234 35.473 66.6468 35.021C65.9701 34.569 65.4269 33.944 65.0737 33.2109C64.7205 32.4779 64.5702 31.6636 64.6384 30.8527C64.7066 30.0418 64.9908 29.2641 65.4615 28.6003C65.9322 27.9365 66.5721 27.411 67.3148 27.0784V27.0701L76.5602 23.3118C76.9032 23.1518 78.3496 22.4634 78.3496 20.2442Z" fill="black"/>
<path d="M76.9326 25.0571C76.9326 25.0571 77.8879 24.7462 78.3499 23.8033V25.5071L76.9326 25.0571Z" fill="black"/>
<path d="M79.7414 22.9542V32.1508C79.7414 37.3228 75.0617 41.5205 69.288 41.5205C68.8351 41.5206 68.3825 41.4944 67.9326 41.442C68.8236 41.6624 69.7381 41.7734 70.6559 41.7725C76.2786 41.7725 80.8365 37.6872 80.8365 32.6478V21.4602C80.5101 22.2099 80.1403 22.6569 79.7414 22.9542Z" fill="black"/>
<path d="M78.3465 30.9895V25.5071V23.8033C77.8347 24.6552 77.3841 24.8574 77.091 24.9923L73.7227 26.3596V31.2344H78.3465C78.3495 31.1512 78.3483 31.0703 78.3465 30.9895Z" fill="url(#paint0_linear_637_3385)"/>
<path d="M79.74 15.5755V18.9819C79.7352 19.4206 79.7079 20.8842 79.1455 21.9709C79.1455 21.9709 80.8011 20.4562 80.8338 18.3517V16.5088L79.74 15.5755Z" fill="black"/>
<defs>
<linearGradient id="paint0_linear_637_3385" x1="77.5018" y1="31.5405" x2="75.1143" y2="24.9804" gradientUnits="userSpaceOnUse">
<stop offset="0.06"/>
<stop offset="0.94" stop-color="#44FFBC"/>
</linearGradient>
</defs>
</svg>
