<svg width="18" height="21" viewBox="0 0 18 21" fill="none" xmlns="http://www.w3.org/2000/svg">
<path d="M5.10938 3.12375V14.337C5.10938 14.8326 5.30627 15.308 5.65675 15.6585C6.00724 16.0089 6.48259 16.2058 6.97824 16.2058H14.4537C14.9494 16.2058 15.4247 16.0089 15.7752 15.6585C16.1257 15.308 16.3226 14.8326 16.3226 14.337V6.15319C16.3226 5.90422 16.2728 5.65776 16.1762 5.4283C16.0796 5.19883 15.9381 4.99098 15.7601 4.81695L12.6624 1.78751C12.3133 1.44612 11.8444 1.25494 11.3561 1.25488H6.97824C6.48259 1.25488 6.00724 1.45178 5.65675 1.80226C5.30627 2.15274 5.10938 2.6281 5.10938 3.12375V3.12375Z" stroke="white" stroke-width="1.99346" stroke-linecap="round" stroke-linejoin="round"/>
<path d="M12.5843 16.206V18.0749C12.5843 18.5706 12.3874 19.0459 12.0369 19.3964C11.6865 19.7469 11.2111 19.9438 10.7154 19.9438H3.23996C2.74431 19.9438 2.26895 19.7469 1.91847 19.3964C1.56799 19.0459 1.37109 18.5706 1.37109 18.0749V7.79612C1.37109 7.30046 1.56799 6.82511 1.91847 6.47463C2.26895 6.12414 2.74431 5.92725 3.23996 5.92725H5.10883" stroke="white" stroke-width="1.99346" stroke-linecap="round" stroke-linejoin="round"/>
</svg>
