<svg width="61" height="62" viewBox="0 0 61 62" fill="none" xmlns="http://www.w3.org/2000/svg">
<g filter="url(#filter0_dd_2563_91403)">
<rect x="5.5" y="3" width="50" height="50" rx="25" fill="white"/>
<path d="M28.8549 29.6469C29.3333 30.1019 29.3333 30.8486 28.8549 31.3036C28.3999 31.7586 27.6533 31.7586 27.1983 31.3036C26.1055 30.2092 25.4918 28.7259 25.4918 27.1794C25.4918 25.6329 26.1055 24.1496 27.1983 23.0552L31.3283 18.9252C32.4226 17.8325 33.9059 17.2188 35.4524 17.2188C36.9989 17.2188 38.4822 17.8325 39.5766 18.9252C40.6693 20.0196 41.2831 21.5029 41.2831 23.0494C41.2831 24.5959 40.6693 26.0792 39.5766 27.1736L37.8383 28.9119C37.8499 27.9552 37.6983 26.9986 37.3716 26.0886L37.9199 25.5286C38.247 25.205 38.5066 24.8198 38.6838 24.3953C38.861 23.9707 38.9523 23.5153 38.9523 23.0552C38.9523 22.5952 38.861 22.1397 38.6838 21.7152C38.5066 21.2906 38.247 20.9054 37.9199 20.5819C37.5964 20.2548 37.2112 19.9952 36.7867 19.818C36.3621 19.6408 35.9066 19.5495 35.4466 19.5495C34.9866 19.5495 34.5311 19.6408 34.1065 19.818C33.682 19.9952 33.2968 20.2548 32.9733 20.5819L28.8549 24.7002C28.5279 25.0238 28.2682 25.4089 28.091 25.8335C27.9138 26.258 27.8226 26.7135 27.8226 27.1736C27.8226 27.6336 27.9138 28.0891 28.091 28.5136C28.2682 28.9382 28.5279 29.3234 28.8549 29.6469ZM32.1449 24.7002C32.5999 24.2452 33.3466 24.2452 33.8016 24.7002C34.8943 25.7946 35.5081 27.2779 35.5081 28.8244C35.5081 30.3709 34.8943 31.8542 33.8016 32.9486L29.6716 37.0786C28.5772 38.1713 27.0939 38.785 25.5474 38.785C24.0009 38.785 22.5176 38.1713 21.4233 37.0786C20.3305 35.9842 19.7168 34.5009 19.7168 32.9544C19.7168 31.4079 20.3305 29.9246 21.4233 28.8302L23.1616 27.0919C23.1499 28.0486 23.3016 29.0052 23.6283 29.9269L23.0799 30.4752C22.7529 30.7988 22.4932 31.1839 22.316 31.6085C22.1388 32.033 22.0476 32.4885 22.0476 32.9486C22.0476 33.4086 22.1388 33.8641 22.316 34.2886C22.4932 34.7132 22.7529 35.0984 23.0799 35.4219C23.4035 35.749 23.7887 36.0086 24.2132 36.1858C24.6377 36.363 25.0932 36.4542 25.5533 36.4542C26.0133 36.4542 26.4688 36.363 26.8933 36.1858C27.3179 36.0086 27.7031 35.749 28.0266 35.4219L32.1449 31.3036C32.472 30.98 32.7316 30.5948 32.9088 30.1703C33.0861 29.7457 33.1773 29.2903 33.1773 28.8302C33.1773 28.3702 33.0861 27.9147 32.9088 27.4902C32.7316 27.0656 32.472 26.6804 32.1449 26.3569C32.0316 26.2507 31.9413 26.1224 31.8796 25.9799C31.8178 25.8375 31.786 25.6838 31.786 25.5286C31.786 25.3733 31.8178 25.2196 31.8796 25.0772C31.9413 24.9347 32.0316 24.8064 32.1449 24.7002Z" fill="#3AC4A0"/>
</g>
<defs>
<filter id="filter0_dd_2563_91403" x="0.109319" y="0.304659" width="60.7814" height="60.7814" filterUnits="userSpaceOnUse" color-interpolation-filters="sRGB">
<feFlood flood-opacity="0" result="BackgroundImageFix"/>
<feColorMatrix in="SourceAlpha" type="matrix" values="0 0 0 0 0 0 0 0 0 0 0 0 0 0 0 0 0 0 127 0" result="hardAlpha"/>
<feOffset dy="2.69534"/>
<feGaussianBlur stdDeviation="2.69534"/>
<feColorMatrix type="matrix" values="0 0 0 0 0.188235 0 0 0 0 0.192157 0 0 0 0 0.2 0 0 0 0.1 0"/>
<feBlend mode="normal" in2="BackgroundImageFix" result="effect1_dropShadow_2563_91403"/>
<feColorMatrix in="SourceAlpha" type="matrix" values="0 0 0 0 0 0 0 0 0 0 0 0 0 0 0 0 0 0 127 0" result="hardAlpha"/>
<feOffset/>
<feGaussianBlur stdDeviation="0.673835"/>
<feColorMatrix type="matrix" values="0 0 0 0 0.188235 0 0 0 0 0.192157 0 0 0 0 0.2 0 0 0 0.05 0"/>
<feBlend mode="normal" in2="effect1_dropShadow_2563_91403" result="effect2_dropShadow_2563_91403"/>
<feBlend mode="normal" in="SourceGraphic" in2="effect2_dropShadow_2563_91403" result="shape"/>
</filter>
</defs>
</svg>
