<svg width="61" height="62" viewBox="0 0 61 62" fill="none" xmlns="http://www.w3.org/2000/svg">
<g filter="url(#filter0_dd_2563_91413)">
<rect x="5.5" y="3" width="50" height="50" rx="25" fill="white"/>
<path d="M34.875 17.5C33.3061 17.5 31.8843 17.794 30.773 18.3479C29.6626 18.9017 28.75 19.8039 28.75 21V24.5C28.75 24.6129 28.7876 24.7222 28.8051 24.8281C27.9293 24.6056 27.0287 24.4953 26.125 24.5C24.5561 24.5 23.1342 24.794 22.023 25.3479C20.9126 25.9017 20 26.8039 20 28V35C20 36.1961 20.9126 37.0982 22.0239 37.6521C23.1343 38.206 24.5561 38.5 26.125 38.5C27.6939 38.5 29.1157 38.206 30.227 37.6521C31.3365 37.0982 32.25 36.1961 32.25 35V34.6448C33.106 34.8762 33.9883 34.9956 34.875 35C36.4439 35 37.8657 34.706 38.977 34.1521C40.0865 33.5982 41 32.6961 41 31.5V21C41 19.8039 40.0874 18.9017 38.9761 18.3479C37.8666 17.794 36.4447 17.5 34.875 17.5ZM34.875 19.25C36.2076 19.25 37.3941 19.537 38.1834 19.9334C38.9735 20.3298 39.25 20.7471 39.25 21C39.25 21.2538 38.9735 21.6702 38.1834 22.0666C37.395 22.463 36.2076 22.75 34.875 22.75C33.5424 22.75 32.3559 22.463 31.5666 22.0666C30.7765 21.6702 30.5 21.2529 30.5 21C30.5 20.7462 30.7765 20.3298 31.5666 19.9334C32.355 19.537 33.5424 19.25 34.875 19.25ZM30.5 23.4885C30.5919 23.5392 30.6776 23.6049 30.7739 23.6521C31.8842 24.206 33.3061 24.5 34.875 24.5C36.4439 24.5 37.8657 24.206 38.977 23.6521C39.0724 23.6049 39.1581 23.5392 39.25 23.4885V24.5C39.25 24.7537 38.9735 25.1702 38.1834 25.5666C37.3941 25.963 36.2076 26.25 34.875 26.25C33.5424 26.25 32.3559 25.963 31.5666 25.5666C30.7765 25.1702 30.5 24.7529 30.5 24.5V23.4885ZM26.125 26.25C27.4576 26.25 28.6441 26.537 29.4334 26.9334C30.2235 27.3298 30.5 27.7471 30.5 28C30.5 28.2537 30.2235 28.6702 29.4334 29.0666C28.6441 29.463 27.4576 29.75 26.125 29.75C24.7924 29.75 23.6059 29.463 22.8166 29.0666C22.0265 28.6702 21.75 28.2529 21.75 28C21.75 27.7463 22.0265 27.3298 22.8166 26.9334C23.605 26.537 24.7924 26.25 26.125 26.25ZM39.25 26.9885V28C39.25 28.2537 38.9735 28.6702 38.1834 29.0666C37.3941 29.463 36.2076 29.75 34.875 29.75C33.9837 29.7548 33.0973 29.6163 32.25 29.3396V28C32.25 27.8871 32.2124 27.7778 32.1949 27.6719C33.0086 27.8836 33.9108 28 34.875 28C36.4439 28 37.8657 27.706 38.977 27.1521C39.0724 27.1049 39.1581 27.0392 39.25 26.9885ZM21.75 30.4885C21.8419 30.5392 21.9276 30.6049 22.0239 30.6521C23.1343 31.206 24.5561 31.5 26.125 31.5C27.6939 31.5 29.1157 31.206 30.227 30.6521C30.3224 30.6049 30.4081 30.5392 30.5 30.4885V31.5C30.5 31.7537 30.2235 32.1702 29.4334 32.5666C28.6441 32.963 27.4576 33.25 26.125 33.25C24.7924 33.25 23.6059 32.963 22.8166 32.5666C22.0265 32.1702 21.75 31.7529 21.75 31.5V30.4885ZM39.25 30.4885V31.5C39.25 31.7537 38.9735 32.1702 38.1834 32.5666C37.3941 32.963 36.2076 33.25 34.875 33.25C33.8801 33.25 32.9815 33.11 32.25 32.8668V31.1719C33.0533 31.3836 33.9283 31.5 34.875 31.5C36.4439 31.5 37.8657 31.206 38.977 30.6521C39.0724 30.6049 39.1581 30.5392 39.25 30.4885ZM21.75 33.9885C21.8419 34.0392 21.9276 34.1049 22.0239 34.1521C23.1343 34.706 24.5561 35 26.125 35C27.6939 35 29.1157 34.706 30.227 34.1521C30.3224 34.1049 30.4081 34.0392 30.5 33.9885V35C30.5 35.2537 30.2235 35.6702 29.4334 36.0666C28.6441 36.463 27.4576 36.75 26.125 36.75C24.7924 36.75 23.6059 36.463 22.8166 36.0666C22.0265 35.6702 21.75 35.2529 21.75 35V33.9885Z" fill="#3AC4A0"/>
</g>
<defs>
<filter id="filter0_dd_2563_91413" x="0.109319" y="0.304659" width="60.7814" height="60.7814" filterUnits="userSpaceOnUse" color-interpolation-filters="sRGB">
<feFlood flood-opacity="0" result="BackgroundImageFix"/>
<feColorMatrix in="SourceAlpha" type="matrix" values="0 0 0 0 0 0 0 0 0 0 0 0 0 0 0 0 0 0 127 0" result="hardAlpha"/>
<feOffset dy="2.69534"/>
<feGaussianBlur stdDeviation="2.69534"/>
<feColorMatrix type="matrix" values="0 0 0 0 0.188235 0 0 0 0 0.192157 0 0 0 0 0.2 0 0 0 0.1 0"/>
<feBlend mode="normal" in2="BackgroundImageFix" result="effect1_dropShadow_2563_91413"/>
<feColorMatrix in="SourceAlpha" type="matrix" values="0 0 0 0 0 0 0 0 0 0 0 0 0 0 0 0 0 0 127 0" result="hardAlpha"/>
<feOffset/>
<feGaussianBlur stdDeviation="0.673835"/>
<feColorMatrix type="matrix" values="0 0 0 0 0.188235 0 0 0 0 0.192157 0 0 0 0 0.2 0 0 0 0.05 0"/>
<feBlend mode="normal" in2="effect1_dropShadow_2563_91413" result="effect2_dropShadow_2563_91413"/>
<feBlend mode="normal" in="SourceGraphic" in2="effect2_dropShadow_2563_91413" result="shape"/>
</filter>
</defs>
</svg>
