<svg xmlns="http://www.w3.org/2000/svg" width="37" height="38" viewBox="0 0 37 38" fill="none">
  <path d="M25.3309 12.0303C25.6549 11.7219 26.0861 11.5514 26.5334 11.5547C26.9807 11.5581 27.4093 11.7352 27.7285 12.0485C28.0478 12.3618 28.2329 12.7869 28.2447 13.2341C28.2566 13.6813 28.0942 14.1156 27.7919 14.4453L18.6149 25.9223C18.4571 26.0923 18.2667 26.2287 18.0549 26.3234C17.8432 26.4181 17.6146 26.4691 17.3827 26.4734C17.1508 26.4777 16.9204 26.4351 16.7054 26.3484C16.4903 26.2616 16.2949 26.1323 16.1309 25.9683L10.0451 19.8825C9.87564 19.7246 9.73971 19.5342 9.64543 19.3226C9.55115 19.111 9.50045 18.8826 9.49636 18.6509C9.49228 18.4193 9.53488 18.1893 9.62164 17.9745C9.7084 17.7597 9.83753 17.5645 10.0013 17.4007C10.1651 17.2369 10.3603 17.1078 10.575 17.0211C10.7898 16.9343 11.0199 16.8917 11.2515 16.8958C11.4831 16.8999 11.7116 16.9506 11.9232 17.0448C12.1348 17.1391 12.3252 17.2751 12.4831 17.4445L17.2993 22.2584L25.2872 12.0809C25.3016 12.0632 25.317 12.0463 25.3332 12.0303H25.3309Z" fill="#7555DA"/>
</svg>