<svg width="240" height="168" viewBox="0 0 240 168" fill="none" xmlns="http://www.w3.org/2000/svg">
<path d="M16.1892 8.17266C16.6276 7.35063 17.8529 7.52181 18.0491 8.4325L19.2117 13.8268C19.2732 14.1121 19.4563 14.3563 19.7129 14.4953L24.5539 17.1184C25.3672 17.5591 25.1976 18.7728 24.2947 18.9738L18.9201 20.1697C18.6352 20.2331 18.3923 20.4177 18.255 20.6753L15.6585 25.5443C15.2201 26.3664 13.9948 26.1952 13.7985 25.2845L12.6359 19.8902C12.5744 19.6049 12.3914 19.3607 12.1348 19.2217L7.29375 16.5986C6.48046 16.1579 6.65003 14.9442 7.55295 14.7432L12.9275 13.5473C13.2124 13.4839 13.4554 13.2993 13.5927 13.0417L16.1892 8.17266Z" fill="white"/>
<g filter="url(#filter0_f_21_922)">
<path d="M12.9451 9.99876C12.8241 8.97189 14.1507 8.45909 14.7519 9.30035L17.3287 12.9065C17.4918 13.1348 17.7434 13.2841 18.022 13.3178L22.3524 13.8428C23.147 13.9391 23.5121 14.8835 22.9889 15.4892L20.1374 18.7903C19.9539 19.0027 19.8682 19.2823 19.901 19.561L20.4196 23.9627C20.5406 24.9896 19.214 25.5024 18.6129 24.6612L16.036 21.055C15.8729 20.8267 15.6213 20.6774 15.3427 20.6437L11.0123 20.1187C10.2177 20.0224 9.85263 19.078 10.3759 18.4723L13.2274 15.1712C13.4108 14.9588 13.4966 14.6792 13.4637 14.4005L12.9451 9.99876Z" fill="#EDE3FE"/>
</g>
<path d="M207.653 142.598C208.02 142.311 208.545 142.638 208.45 143.094L207.636 146.992C207.606 147.135 207.64 147.284 207.729 147.4L210.149 150.543C210.431 150.909 210.107 151.43 209.654 151.338L205.765 150.553C205.622 150.524 205.474 150.559 205.359 150.649L202.219 153.099C201.852 153.386 201.327 153.059 201.422 152.603L202.236 148.705C202.266 148.562 202.232 148.413 202.143 148.297L199.723 145.154C199.441 144.788 199.765 144.267 200.219 144.359L204.107 145.144C204.25 145.173 204.398 145.138 204.513 145.048L207.653 142.598Z" fill="white"/>
<g filter="url(#filter1_f_21_922)">
<path d="M205.139 142.537C205.292 142.043 206.002 142.078 206.106 142.585L206.799 145.962C206.827 146.099 206.911 146.218 207.032 146.29L209.709 147.891C210.053 148.096 210.028 148.602 209.666 148.772L206.844 150.102C206.717 150.161 206.621 150.272 206.579 150.406L205.558 153.698C205.404 154.192 204.694 154.157 204.59 153.65L203.898 150.273C203.87 150.136 203.785 150.017 203.664 149.945L200.987 148.344C200.644 148.139 200.668 147.633 201.031 147.463L203.853 146.133C203.98 146.074 204.075 145.963 204.117 145.829L205.139 142.537Z" fill="#EDE3FE"/>
</g>
<path d="M224.358 26.1131C224.502 25.1927 225.715 24.9514 226.2 25.7469L228.327 29.237C228.479 29.4863 228.732 29.6567 229.02 29.7036L233.054 30.3606C233.967 30.5093 234.206 31.7113 233.419 32.198L229.944 34.3479C229.696 34.5014 229.527 34.7557 229.482 35.0441L228.852 39.0825C228.708 40.003 227.495 40.2443 227.01 39.4488L224.883 35.9586C224.731 35.7094 224.478 35.539 224.189 35.4921L220.156 34.8351C219.243 34.6863 219.004 33.4843 219.791 32.9977L223.266 30.8478C223.514 30.6942 223.683 30.4399 223.728 30.1516L224.358 26.1131Z" fill="white"/>
<g filter="url(#filter2_f_21_922)">
<path d="M222.649 28.5778C222.197 27.6478 223.281 26.7273 224.125 27.3241L226.569 29.0512C226.798 29.2132 227.085 29.2714 227.359 29.2117L230.549 28.5169C231.331 28.3466 231.986 29.1184 231.691 29.8625L230.488 32.8974C230.385 33.1583 230.396 33.4506 230.518 33.703L231.826 36.3943C232.278 37.3243 231.194 38.2448 230.35 37.648L227.906 35.9209C227.677 35.759 227.39 35.7007 227.116 35.7604L223.926 36.4552C223.144 36.6255 222.489 35.8537 222.784 35.1096L223.987 32.0747C224.09 31.8138 224.079 31.5215 223.957 31.2691L222.649 28.5778Z" fill="#EDE3FE"/>
</g>
<path d="M74.3913 113.978C74.7529 113.888 75.0305 114.297 74.8128 114.6L72.9125 117.239C72.8442 117.334 72.8208 117.453 72.8483 117.567L73.6116 120.715C73.6988 121.074 73.293 121.349 72.9913 121.135L70.3502 119.26C70.255 119.192 70.135 119.17 70.0218 119.198L66.8665 119.985C66.5049 120.076 66.2273 119.666 66.445 119.364L68.3453 116.725C68.4135 116.63 68.437 116.51 68.4095 116.397L67.6462 113.249C67.559 112.889 67.9648 112.614 68.2665 112.828L70.9076 114.703C71.0028 114.771 71.1228 114.794 71.236 114.765L74.3913 113.978Z" fill="white"/>
<g filter="url(#filter3_f_21_922)">
<path d="M72.5458 113.09C72.8183 112.779 73.3261 113.036 73.2375 113.44L72.6324 116.198C72.6084 116.308 72.6315 116.423 72.6962 116.514L74.1628 118.596C74.3472 118.858 74.1647 119.219 73.8446 119.226L71.299 119.282C71.1867 119.285 71.0807 119.334 71.0068 119.419L69.1465 121.544C68.874 121.855 68.3662 121.599 68.4548 121.195L69.0599 118.436C69.0839 118.326 69.0608 118.211 68.9961 118.12L67.5295 116.038C67.3451 115.777 67.5276 115.415 67.8477 115.408L70.3933 115.352C70.5056 115.349 70.6116 115.3 70.6855 115.215L72.5458 113.09Z" fill="#EDE3FE"/>
</g>
<path d="M195.335 99.1045C196.44 99.1045 197.338 98.2087 197.309 97.1046C196.798 77.6623 188.852 59.1239 175.063 45.3356C160.803 31.0751 141.462 23.0637 121.294 23.0637C101.127 23.0637 81.7857 31.0751 67.5253 45.3355C53.737 59.1239 45.7907 77.6623 45.2797 97.1045C45.2507 98.2087 46.1489 99.1045 47.2535 99.1045L121.294 99.1045L195.335 99.1045Z" fill="white"/>
<g filter="url(#filter4_f_21_922)">
<path d="M212.658 105.829C212.658 82.5353 203.405 60.1957 186.933 43.7245C170.462 27.2534 148.123 18 124.829 18C101.535 18 79.1957 27.2534 62.7245 43.7245C46.2534 60.1956 37 82.5353 37 105.829L124.829 105.829L212.658 105.829Z" fill="white"/>
</g>
<defs>
<filter id="filter0_f_21_922" x="2.53135" y="1.27866" width="28.3021" height="31.4041" filterUnits="userSpaceOnUse" color-interpolation-filters="sRGB">
<feFlood flood-opacity="0" result="BackgroundImageFix"/>
<feBlend mode="normal" in="SourceGraphic" in2="BackgroundImageFix" result="shape"/>
<feGaussianBlur stdDeviation="3.8" result="effect1_foregroundBlur_21_922"/>
</filter>
<filter id="filter1_f_21_922" x="193.144" y="134.585" width="24.409" height="27.0647" filterUnits="userSpaceOnUse" color-interpolation-filters="sRGB">
<feFlood flood-opacity="0" result="BackgroundImageFix"/>
<feBlend mode="normal" in="SourceGraphic" in2="BackgroundImageFix" result="shape"/>
<feGaussianBlur stdDeviation="3.8" result="effect1_foregroundBlur_21_922"/>
</filter>
<filter id="filter2_f_21_922" x="214.942" y="19.5345" width="24.5901" height="25.9031" filterUnits="userSpaceOnUse" color-interpolation-filters="sRGB">
<feFlood flood-opacity="0" result="BackgroundImageFix"/>
<feBlend mode="normal" in="SourceGraphic" in2="BackgroundImageFix" result="shape"/>
<feGaussianBlur stdDeviation="3.8" result="effect1_foregroundBlur_21_922"/>
</filter>
<filter id="filter3_f_21_922" x="59.8558" y="105.352" width="21.9808" height="23.9297" filterUnits="userSpaceOnUse" color-interpolation-filters="sRGB">
<feFlood flood-opacity="0" result="BackgroundImageFix"/>
<feBlend mode="normal" in="SourceGraphic" in2="BackgroundImageFix" result="shape"/>
<feGaussianBlur stdDeviation="3.8" result="effect1_foregroundBlur_21_922"/>
</filter>
<filter id="filter4_f_21_922" x="19.9" y="0.9" width="209.858" height="122.029" filterUnits="userSpaceOnUse" color-interpolation-filters="sRGB">
<feFlood flood-opacity="0" result="BackgroundImageFix"/>
<feBlend mode="normal" in="SourceGraphic" in2="BackgroundImageFix" result="shape"/>
<feGaussianBlur stdDeviation="8.55" result="effect1_foregroundBlur_21_922"/>
</filter>
</defs>
</svg>
