<svg width="227" height="151" viewBox="0 0 227 151" fill="none" xmlns="http://www.w3.org/2000/svg">
<path fill-rule="evenodd" clip-rule="evenodd" d="M193.357 97.1753H162.357L133.357 97.1753C132.252 97.1753 131.339 96.2721 131.548 95.1875C132.323 91.1597 135.438 87.38 140.437 84.4867C146.25 81.1215 154.135 79.231 162.357 79.231C170.579 79.231 178.464 81.1215 184.277 84.4867C187.155 86.1525 189.409 88.112 190.951 90.2436C191.802 91.4198 193.643 91.7581 194.86 90.9666C195.549 90.5187 196.316 90.0943 197.156 89.6981C201.36 87.715 207.063 86.6009 213.009 86.6009C218.955 86.6009 224.657 87.715 228.862 89.6981C232.079 91.2152 234.217 93.1458 235.044 95.2251C235.452 96.2514 234.533 97.1752 233.429 97.1752H213.009L193.357 97.1753Z" fill="white"/>
<g filter="url(#filter0_f_21_723)">
<path fill-rule="evenodd" clip-rule="evenodd" d="M198.357 98.9118H164.357L130.357 98.9118C130.357 93.6921 133.939 88.6862 140.315 84.9953C146.692 81.3045 155.34 79.231 164.357 79.231C173.374 79.231 182.022 81.3045 188.399 84.9953C192.842 87.5673 195.928 90.7779 197.391 94.2544C198.608 92.9454 200.339 91.7413 202.523 90.711C207.135 88.536 213.389 87.3141 219.911 87.3141C226.432 87.3141 232.687 88.536 237.298 90.711C241.909 92.886 244.5 95.8359 244.5 98.9118H219.911L198.357 98.9118Z" fill="white"/>
</g>
<path fill-rule="evenodd" clip-rule="evenodd" d="M51.5 48.231H20.5L-8.49996 48.231C-9.60453 48.231 -10.5067 47.3344 -10.4355 46.2321C-9.95173 38.7401 -6.76097 31.6513 -1.42027 26.3106C4.39336 20.497 12.2783 17.231 20.5 17.231C28.7217 17.231 36.6067 20.497 42.4203 26.3106C45.22 29.1103 47.4288 32.3903 48.9666 35.9569C49.6924 37.6402 52.4373 38.0335 53.7296 36.7334C54.2197 36.2404 54.7431 35.7664 55.2987 35.3136C59.5032 31.8877 65.2058 29.9631 71.1518 29.9631C77.0979 29.9631 82.8004 31.8877 87.0049 35.3136C90.6285 38.2662 92.8836 42.1254 93.4376 46.2368C93.5851 47.3315 92.676 48.231 91.5715 48.231H71.1518H51.5Z" fill="white"/>
<g filter="url(#filter1_f_21_723)">
<path fill-rule="evenodd" clip-rule="evenodd" d="M46.5416 27.1893C50.9849 31.6326 54.0713 37.1789 55.5343 43.1847C56.7513 40.9234 58.4821 38.8433 60.6664 37.0636C65.2777 33.3061 71.5321 31.1952 78.0536 31.1952C84.5751 31.1952 90.8295 33.3061 95.4409 37.0636C100.052 40.821 102.643 45.9172 102.643 51.231H78.0536L56.5 51.231H53.4643H22.5L-11.5 51.231C-11.5 42.2136 -7.91787 33.5656 -1.54163 27.1893C4.83461 20.8131 13.4826 17.231 22.5 17.231C31.5174 17.231 40.1654 20.8131 46.5416 27.1893Z" fill="white"/>
</g>
<g filter="url(#filter2_f_21_723)">
<path d="M172.93 22.5535C172.533 21.5989 173.669 20.7429 174.477 21.3878L176.816 23.2541C177.035 23.4291 177.318 23.5039 177.595 23.4602L180.82 22.9521C181.611 22.8275 182.22 23.6361 181.883 24.3618L180.505 27.3217C180.387 27.5761 180.381 27.8685 180.489 28.1276L181.638 30.8904C182.035 31.8451 180.899 32.7011 180.091 32.0562L177.752 30.1899C177.532 30.0149 177.25 29.9401 176.972 29.9838L173.748 30.4919C172.957 30.6165 172.348 29.8079 172.685 29.0822L174.063 26.1223C174.181 25.8679 174.187 25.5755 174.079 25.3164L172.93 22.5535Z" fill="#FFF7D2"/>
</g>
<path d="M172.93 22.5535C172.533 21.5989 173.669 20.7429 174.477 21.3878L176.816 23.2541C177.035 23.4291 177.318 23.5039 177.595 23.4602L180.82 22.9521C181.611 22.8275 182.22 23.6361 181.883 24.3618L180.505 27.3217C180.387 27.5761 180.381 27.8685 180.489 28.1276L181.638 30.8904C182.035 31.8451 180.899 32.7011 180.091 32.0562L177.752 30.1899C177.532 30.0149 177.25 29.9401 176.972 29.9838L173.748 30.4919C172.957 30.6165 172.348 29.8079 172.685 29.0822L174.063 26.1223C174.181 25.8679 174.187 25.5755 174.079 25.3164L172.93 22.5535Z" fill="white"/>
<g filter="url(#filter3_f_21_723)">
<path d="M193.844 117.738C193.646 117.261 194.214 116.833 194.618 117.155L196.745 118.852C196.855 118.94 196.996 118.977 197.135 118.955L199.67 118.556C200.066 118.494 200.37 118.898 200.201 119.261L199.119 121.588C199.059 121.715 199.056 121.861 199.11 121.991L200.156 124.504C200.354 124.981 199.786 125.409 199.382 125.086L197.255 123.389C197.145 123.302 197.004 123.264 196.865 123.286L194.33 123.685C193.934 123.748 193.63 123.343 193.799 122.981L194.881 120.654C194.941 120.527 194.944 120.38 194.89 120.251L193.844 117.738Z" fill="#FFF7D2"/>
</g>
<path d="M193.844 117.738C193.646 117.261 194.214 116.833 194.618 117.155L196.745 118.852C196.855 118.94 196.996 118.977 197.135 118.955L199.67 118.556C200.066 118.494 200.37 118.898 200.201 119.261L199.119 121.588C199.059 121.715 199.056 121.861 199.11 121.991L200.156 124.504C200.354 124.981 199.786 125.409 199.382 125.086L197.255 123.389C197.145 123.302 197.004 123.264 196.865 123.286L194.33 123.685C193.934 123.748 193.63 123.343 193.799 122.981L194.881 120.654C194.941 120.527 194.944 120.38 194.89 120.251L193.844 117.738Z" fill="white"/>
<g filter="url(#filter4_f_21_723)">
<path d="M61.3849 69.8853C60.9877 68.9306 62.1236 68.0747 62.9319 68.7196L65.2709 70.5858C65.4902 70.7609 65.773 70.8357 66.0502 70.792L69.2751 70.2838C70.0658 70.1593 70.6751 70.9679 70.3374 71.6936L68.96 74.6534C68.8416 74.9079 68.8356 75.2003 68.9434 75.4594L70.0926 78.2222C70.4897 79.1769 69.3539 80.0328 68.5456 79.388L66.2066 77.5217C65.9872 77.3467 65.7045 77.2719 65.4273 77.3156L62.2024 77.8237C61.4117 77.9483 60.8024 77.1397 61.1401 76.414L62.5174 73.4541C62.6358 73.1997 62.6419 72.9072 62.5341 72.6481L61.3849 69.8853Z" fill="#FFF7D2"/>
</g>
<path d="M61.3849 69.8853C60.9877 68.9306 62.1236 68.0747 62.9319 68.7196L65.2709 70.5858C65.4902 70.7609 65.773 70.8357 66.0502 70.792L69.2751 70.2838C70.0658 70.1593 70.6751 70.9679 70.3374 71.6936L68.96 74.6534C68.8416 74.9079 68.8356 75.2003 68.9434 75.4594L70.0926 78.2222C70.4897 79.1769 69.3539 80.0328 68.5456 79.388L66.2066 77.5217C65.9872 77.3467 65.7045 77.2719 65.4273 77.3156L62.2024 77.8237C61.4117 77.9483 60.8024 77.1397 61.1401 76.414L62.5174 73.4541C62.6358 73.1997 62.6419 72.9072 62.5341 72.6481L61.3849 69.8853Z" fill="white"/>
<path d="M41.603 129.062C42.0976 128.273 43.308 128.529 43.4402 129.451L44.0206 133.497C44.062 133.786 44.2276 134.042 44.4739 134.199L47.9221 136.391C48.7027 136.888 48.4488 138.087 47.5341 138.224L43.4932 138.831C43.2045 138.875 42.9493 139.042 42.7943 139.289L40.6242 142.753C40.1296 143.542 38.9192 143.286 38.7869 142.364L38.2066 138.318C38.1651 138.029 37.9996 137.773 37.7533 137.616L34.3051 135.424C33.5245 134.927 33.7783 133.728 34.693 133.591L38.734 132.984C39.0226 132.94 39.2779 132.773 39.4328 132.526L41.603 129.062Z" fill="white"/>
<g filter="url(#filter5_f_21_723)">
<path d="M39.0606 130.654C39.0115 129.621 40.3706 129.202 40.9116 130.083L42.4773 132.633C42.6241 132.872 42.8646 133.039 43.1402 133.092L46.3458 133.71C47.1318 133.861 47.43 134.829 46.8658 135.397L44.5646 137.712C44.3668 137.912 44.2618 138.185 44.2751 138.465L44.4171 141.454C44.4661 142.487 43.107 142.906 42.566 142.024L41.0004 139.474C40.8535 139.235 40.613 139.069 40.3374 139.016L37.1318 138.398C36.3459 138.246 36.0476 137.279 36.6118 136.711L38.913 134.395C39.1108 134.196 39.2159 133.923 39.2026 133.643L39.0606 130.654Z" fill="#FFF7D2"/>
</g>
<defs>
<filter id="filter0_f_21_723" x="113.257" y="62.131" width="148.343" height="53.8809" filterUnits="userSpaceOnUse" color-interpolation-filters="sRGB">
<feFlood flood-opacity="0" result="BackgroundImageFix"/>
<feBlend mode="normal" in="SourceGraphic" in2="BackgroundImageFix" result="shape"/>
<feGaussianBlur stdDeviation="8.55" result="effect1_foregroundBlur_21_723"/>
</filter>
<filter id="filter1_f_21_723" x="-28.6" y="0.130957" width="148.343" height="68.2" filterUnits="userSpaceOnUse" color-interpolation-filters="sRGB">
<feFlood flood-opacity="0" result="BackgroundImageFix"/>
<feBlend mode="normal" in="SourceGraphic" in2="BackgroundImageFix" result="shape"/>
<feGaussianBlur stdDeviation="8.55" result="effect1_foregroundBlur_21_723"/>
</filter>
<filter id="filter2_f_21_723" x="164.99" y="13.5635" width="24.5877" height="26.3171" filterUnits="userSpaceOnUse" color-interpolation-filters="sRGB">
<feFlood flood-opacity="0" result="BackgroundImageFix"/>
<feBlend mode="normal" in="SourceGraphic" in2="BackgroundImageFix" result="shape"/>
<feGaussianBlur stdDeviation="3.8" result="effect1_foregroundBlur_21_723"/>
</filter>
<filter id="filter3_f_21_723" x="186.151" y="109.443" width="21.698" height="23.3558" filterUnits="userSpaceOnUse" color-interpolation-filters="sRGB">
<feFlood flood-opacity="0" result="BackgroundImageFix"/>
<feBlend mode="normal" in="SourceGraphic" in2="BackgroundImageFix" result="shape"/>
<feGaussianBlur stdDeviation="3.8" result="effect1_foregroundBlur_21_723"/>
</filter>
<filter id="filter4_f_21_723" x="53.4449" y="60.8952" width="24.5877" height="26.3171" filterUnits="userSpaceOnUse" color-interpolation-filters="sRGB">
<feFlood flood-opacity="0" result="BackgroundImageFix"/>
<feBlend mode="normal" in="SourceGraphic" in2="BackgroundImageFix" result="shape"/>
<feGaussianBlur stdDeviation="3.8" result="effect1_foregroundBlur_21_723"/>
</filter>
<filter id="filter5_f_21_723" x="28.7203" y="122.004" width="26.0372" height="28.0992" filterUnits="userSpaceOnUse" color-interpolation-filters="sRGB">
<feFlood flood-opacity="0" result="BackgroundImageFix"/>
<feBlend mode="normal" in="SourceGraphic" in2="BackgroundImageFix" result="shape"/>
<feGaussianBlur stdDeviation="3.8" result="effect1_foregroundBlur_21_723"/>
</filter>
</defs>
</svg>
