<svg width="601" height="375" viewBox="0 0 601 375" fill="none" xmlns="http://www.w3.org/2000/svg">
<g clip-path="url(#clip0_4716_46077)">
<path d="M0 20C0 8.95431 8.9543 0 20 0H581C592.046 0 601 8.95431 601 20V375H0V20Z" fill="#3AC4A0"/>
<path d="M305.5 205.07C244.7 219.87 224.167 327.236 221.5 379.07V399.07L631 420.07C661.333 311.57 706.4 93.8696 644 91.0696C566 87.5696 556.5 217.07 494.5 241.57C432.5 266.07 381.5 186.57 305.5 205.07Z" fill="black" fill-opacity="0.03"/>
</g>
<defs>
<clipPath id="clip0_4716_46077">
<path d="M0 20C0 8.95431 8.9543 0 20 0H581C592.046 0 601 8.95431 601 20V375H0V20Z" fill="white"/>
</clipPath>
</defs>
</svg>
