<svg width="32" height="33" viewBox="0 0 32 33" fill="none" xmlns="http://www.w3.org/2000/svg">
<path d="M26 4.29932H23V3.29932C23 3.0341 22.8946 2.77975 22.7071 2.59221C22.5196 2.40467 22.2652 2.29932 22 2.29932C21.7348 2.29932 21.4804 2.40467 21.2929 2.59221C21.1054 2.77975 21 3.0341 21 3.29932V4.29932H11V3.29932C11 3.0341 10.8946 2.77975 10.7071 2.59221C10.5196 2.40467 10.2652 2.29932 10 2.29932C9.73478 2.29932 9.48043 2.40467 9.29289 2.59221C9.10536 2.77975 9 3.0341 9 3.29932V4.29932H6C5.46957 4.29932 4.96086 4.51003 4.58579 4.8851C4.21071 5.26018 4 5.76888 4 6.29932V26.2993C4 26.8298 4.21071 27.3385 4.58579 27.7135C4.96086 28.0886 5.46957 28.2993 6 28.2993H26C26.5304 28.2993 27.0391 28.0886 27.4142 27.7135C27.7893 27.3385 28 26.8298 28 26.2993V6.29932C28 5.76888 27.7893 5.26018 27.4142 4.8851C27.0391 4.51003 26.5304 4.29932 26 4.29932ZM9 6.29932V7.29932C9 7.56453 9.10536 7.81889 9.29289 8.00642C9.48043 8.19396 9.73478 8.29932 10 8.29932C10.2652 8.29932 10.5196 8.19396 10.7071 8.00642C10.8946 7.81889 11 7.56453 11 7.29932V6.29932H21V7.29932C21 7.56453 21.1054 7.81889 21.2929 8.00642C21.4804 8.19396 21.7348 8.29932 22 8.29932C22.2652 8.29932 22.5196 8.19396 22.7071 8.00642C22.8946 7.81889 23 7.56453 23 7.29932V6.29932H26V10.2993H6V6.29932H9ZM26 26.2993H6V12.2993H26V26.2993ZM21.2075 15.5918C21.3005 15.6847 21.3742 15.795 21.4246 15.9164C21.4749 16.0378 21.5008 16.1679 21.5008 16.2993C21.5008 16.4307 21.4749 16.5609 21.4246 16.6823C21.3742 16.8037 21.3005 16.9139 21.2075 17.0068L15.2075 23.0068C15.1146 23.0998 15.0043 23.1736 14.8829 23.2239C14.7615 23.2742 14.6314 23.3001 14.5 23.3001C14.3686 23.3001 14.2385 23.2742 14.1171 23.2239C13.9957 23.1736 13.8854 23.0998 13.7925 23.0068L10.7925 20.0068C10.6049 19.8192 10.4994 19.5647 10.4994 19.2993C10.4994 19.034 10.6049 18.7795 10.7925 18.5918C10.9801 18.4042 11.2346 18.2988 11.5 18.2988C11.7654 18.2988 12.0199 18.4042 12.2075 18.5918L14.5 20.8856L19.7925 15.5918C19.8854 15.4988 19.9957 15.4251 20.1171 15.3748C20.2385 15.3244 20.3686 15.2985 20.5 15.2985C20.6314 15.2985 20.7615 15.3244 20.8829 15.3748C21.0043 15.4251 21.1146 15.4988 21.2075 15.5918Z" fill="#3AC4A0"/>
</svg>
