<svg width="25" height="24" viewBox="0 0 25 24" fill="none" xmlns="http://www.w3.org/2000/svg">
<path d="M3.25 14C3.25 19 7.27944 23 12.25 23C17.2206 23 21.25 19 21.25 14C21.25 6.95235 15.7312 2.97071 13.3368 1.57489C13.0355 1.39923 12.8848 1.3114 12.7183 1.33142C12.5848 1.34746 12.4364 1.43871 12.3619 1.55053C12.2688 1.69012 12.2795 1.86949 12.3009 2.22824C12.4971 5.52075 13.0352 12 9.67857 12C7.52186 12 7.17403 10.2804 7.11793 7.56244C7.10825 7.09364 7.10342 6.85924 6.97461 6.71989C6.87106 6.60787 6.6874 6.54268 6.53639 6.56435C6.34856 6.59132 6.21098 6.75374 5.93582 7.0786C4.80088 8.4185 3.25 10.8295 3.25 14Z" fill="white"/>
</svg>
