<svg width="33" height="33" viewBox="0 0 33 33" fill="none" xmlns="http://www.w3.org/2000/svg">
<path d="M27.5 9.29935H23.115C23.1637 9.2581 23.2137 9.2181 23.2612 9.17435C23.6409 8.83707 23.9468 8.42509 24.16 7.96417C24.3731 7.50325 24.4889 7.0033 24.5 6.4956C24.5164 5.94019 24.4191 5.38729 24.2142 4.87084C24.0092 4.35438 23.7008 3.88527 23.3079 3.49231C22.9151 3.09935 22.4461 2.79082 21.9297 2.58568C21.4133 2.38053 20.8604 2.2831 20.305 2.29935C19.7971 2.31029 19.2969 2.42596 18.8358 2.63911C18.3746 2.85226 17.9624 3.15831 17.625 3.5381C17.1581 4.07922 16.7785 4.68991 16.5 5.3481C16.2215 4.68991 15.8419 4.07922 15.375 3.5381C15.0376 3.15831 14.6254 2.85226 14.1642 2.63911C13.7031 2.42596 13.2029 2.31029 12.695 2.29935C12.1396 2.2831 11.5867 2.38053 11.0703 2.58568C10.5539 2.79082 10.0849 3.09935 9.69206 3.49231C9.29922 3.88527 8.99083 4.35438 8.78584 4.87084C8.58085 5.38729 8.48358 5.94019 8.5 6.4956C8.51111 7.0033 8.62686 7.50325 8.84001 7.96417C9.05315 8.42509 9.35911 8.83707 9.73875 9.17435C9.78625 9.2156 9.83625 9.2556 9.885 9.29935H5.5C4.96957 9.29935 4.46086 9.51007 4.08579 9.88514C3.71071 10.2602 3.5 10.7689 3.5 11.2994V15.2994C3.5 15.8298 3.71071 16.3385 4.08579 16.7136C4.46086 17.0886 4.96957 17.2994 5.5 17.2994V25.2994C5.5 25.8298 5.71071 26.3385 6.08579 26.7136C6.46086 27.0886 6.96957 27.2994 7.5 27.2994H25.5C26.0304 27.2994 26.5391 27.0886 26.9142 26.7136C27.2893 26.3385 27.5 25.8298 27.5 25.2994V17.2994C28.0304 17.2994 28.5391 17.0886 28.9142 16.7136C29.2893 16.3385 29.5 15.8298 29.5 15.2994V11.2994C29.5 10.7689 29.2893 10.2602 28.9142 9.88514C28.5391 9.51007 28.0304 9.29935 27.5 9.29935ZM19.125 4.8631C19.2833 4.68825 19.4761 4.54803 19.6912 4.45123C19.9063 4.35443 20.1391 4.30315 20.375 4.3006H20.4363C20.7127 4.30233 20.986 4.35922 21.2402 4.46794C21.4944 4.57666 21.7244 4.73502 21.9166 4.93375C22.1088 5.13247 22.2594 5.36756 22.3596 5.62523C22.4597 5.88291 22.5075 6.15799 22.5 6.43435C22.4975 6.67023 22.4462 6.90302 22.3494 7.11813C22.2526 7.33324 22.1123 7.52602 21.9375 7.68435C20.7512 8.73435 18.7825 9.10435 17.5625 9.23435C17.7125 7.9106 18.125 5.98685 19.125 4.8631ZM11.1138 4.9081C11.5012 4.52071 12.0259 4.30194 12.5737 4.29935H12.635C12.8709 4.3019 13.1037 4.35318 13.3188 4.44998C13.5339 4.54678 13.7267 4.687 13.885 4.86185C14.9338 6.04685 15.3038 8.01185 15.4338 9.22685C14.2188 9.10185 12.2537 8.72685 11.0688 7.6781C10.8939 7.51977 10.7537 7.32699 10.6569 7.11188C10.5601 6.89677 10.5088 6.66397 10.5063 6.4281C10.4985 6.14715 10.5479 5.86754 10.6515 5.60626C10.755 5.34497 10.9106 5.10745 11.1088 4.9081H11.1138ZM5.5 11.2994H15.5V15.2994H5.5V11.2994ZM7.5 17.2994H15.5V25.2994H7.5V17.2994ZM25.5 25.2994H17.5V17.2994H25.5V25.2994ZM27.5 15.2994H17.5V11.2994H27.5V15.2994Z" fill="#3AC4A0"/>
</svg>
