<svg width="24" height="25" viewBox="0 0 24 25" fill="none" xmlns="http://www.w3.org/2000/svg">
<path d="M12 8.31934C11.11 8.31934 10.24 8.58326 9.49993 9.07772C8.75991 9.57219 8.18314 10.275 7.84254 11.0973C7.50195 11.9195 7.41283 12.8243 7.58647 13.6972C7.7601 14.5702 8.18868 15.372 8.81802 16.0013C9.44736 16.6307 10.2492 17.0592 11.1221 17.2329C11.995 17.4065 12.8998 17.3174 13.7221 16.9768C14.5443 16.6362 15.2471 16.0594 15.7416 15.3194C16.2361 14.5794 16.5 13.7094 16.5 12.8193C16.4988 11.6262 16.0243 10.4824 15.1806 9.63873C14.337 8.79508 13.1931 8.32058 12 8.31934ZM12 15.8193C11.4067 15.8193 10.8266 15.6434 10.3333 15.3137C9.83994 14.9841 9.45542 14.5156 9.22836 13.9674C9.0013 13.4192 8.94189 12.816 9.05764 12.2341C9.1734 11.6521 9.45912 11.1176 9.87868 10.698C10.2982 10.2785 10.8328 9.99274 11.4147 9.87698C11.9967 9.76122 12.5999 9.82063 13.1481 10.0477C13.6962 10.2748 14.1648 10.6593 14.4944 11.1526C14.8241 11.646 15 12.226 15 12.8193C15 13.615 14.6839 14.378 14.1213 14.9407C13.5587 15.5033 12.7956 15.8193 12 15.8193ZM16.5 3.06934H7.5C6.10807 3.07082 4.77358 3.62443 3.78933 4.60867C2.80509 5.59291 2.25149 6.92741 2.25 8.31934V17.3193C2.25149 18.7113 2.80509 20.0458 3.78933 21.03C4.77358 22.0142 6.10807 22.5678 7.5 22.5693H16.5C17.8919 22.5678 19.2264 22.0142 20.2107 21.03C21.1949 20.0458 21.7485 18.7113 21.75 17.3193V8.31934C21.7485 6.92741 21.1949 5.59291 20.2107 4.60867C19.2264 3.62443 17.8919 3.07082 16.5 3.06934ZM20.25 17.3193C20.25 18.3139 19.8549 19.2677 19.1516 19.971C18.4484 20.6742 17.4946 21.0693 16.5 21.0693H7.5C6.50544 21.0693 5.55161 20.6742 4.84835 19.971C4.14509 19.2677 3.75 18.3139 3.75 17.3193V8.31934C3.75 7.32477 4.14509 6.37095 4.84835 5.66769C5.55161 4.96442 6.50544 4.56934 7.5 4.56934H16.5C17.4946 4.56934 18.4484 4.96442 19.1516 5.66769C19.8549 6.37095 20.25 7.32477 20.25 8.31934V17.3193ZM18 7.94434C18 8.16684 17.934 8.38435 17.8104 8.56935C17.6868 8.75436 17.5111 8.89855 17.3055 8.9837C17.1 9.06885 16.8738 9.09113 16.6555 9.04772C16.4373 9.00431 16.2368 8.89717 16.0795 8.73983C15.9222 8.5825 15.815 8.38204 15.7716 8.16381C15.7282 7.94558 15.7505 7.71938 15.8356 7.51382C15.9208 7.30825 16.065 7.13255 16.25 7.00893C16.435 6.88532 16.6525 6.81934 16.875 6.81934C17.1734 6.81934 17.4595 6.93786 17.6705 7.14884C17.8815 7.35982 18 7.64597 18 7.94434Z" fill="#3AC4A0"/>
</svg>
