<svg width="375" height="558" viewBox="0 0 375 558" fill="none" xmlns="http://www.w3.org/2000/svg">
<g clip-path="url(#clip0_19846_1387)">
<g clip-path="url(#clip1_19846_1387)">
<mask id="mask0_19846_1387" style="mask-type:luminance" maskUnits="userSpaceOnUse" x="-290" y="0" width="956" height="558">
<path d="M-290 0H666V558H-290V0Z" fill="white"/>
</mask>
<g mask="url(#mask0_19846_1387)">
<g style="mix-blend-mode:screen">
<mask id="mask1_19846_1387" style="mask-type:alpha" maskUnits="userSpaceOnUse" x="187" y="-406" width="980" height="916">
<g style="mix-blend-mode:screen">
<path d="M348.907 390.608C148.707 221.358 133.33 -67.4107 314.561 -254.375C495.792 -441.339 805.002 -455.7 1005.2 -286.45C1205.4 -117.2 1220.78 171.568 1039.55 358.533C858.316 545.497 549.106 559.857 348.907 390.608Z" stroke="url(#paint0_linear_19846_1387)"/>
</g>
</mask>
<g mask="url(#mask1_19846_1387)">
<path d="M190.493 100.394C204.215 220.904 268.636 331.388 369.583 407.541C419.567 445.248 477.015 473.391 538.645 490.364C600.276 507.337 664.883 512.807 728.778 506.462L677.041 52.0791L190.493 100.394Z" fill="url(#paint1_linear_19846_1387)"/>
</g>
<mask id="mask2_19846_1387" style="mask-type:alpha" maskUnits="userSpaceOnUse" x="244" y="-353" width="867" height="810">
<g style="mix-blend-mode:screen">
<path d="M386.8 351.52C209.717 201.813 196.115 -53.6133 356.42 -218.99C516.725 -384.366 790.232 -397.069 967.316 -247.361C1144.4 -97.6539 1158 157.772 997.696 323.149C837.391 488.525 563.883 501.228 386.8 351.52Z" stroke="url(#paint2_linear_19846_1387)"/>
</g>
</mask>
<g mask="url(#mask2_19846_1387)">
<path d="M305.172 258.929C334.259 304.536 372.681 344.345 418.243 376.084C486.861 423.886 569.117 451.612 654.608 455.756C740.099 459.9 824.986 440.275 898.534 399.364L677.04 52.0791L305.172 258.929Z" fill="url(#paint3_linear_19846_1387)"/>
</g>
<mask id="mask3_19846_1387" style="mask-type:alpha" maskUnits="userSpaceOnUse" x="356" y="-247" width="642" height="599">
<g style="mix-blend-mode:screen">
<path d="M462.57 273.345C331.718 162.721 321.667 -26.0209 440.122 -148.223C558.576 -270.425 760.679 -279.811 891.532 -169.187C1022.38 -58.5638 1032.43 130.179 913.98 252.38C795.526 374.582 593.423 383.968 462.57 273.345Z" stroke="url(#paint4_linear_19846_1387)"/>
</g>
</mask>
<g mask="url(#mask3_19846_1387)">
<path d="M372.516 143.646C385.391 180.993 406.017 215.606 433.217 245.508C460.416 275.411 493.656 300.017 531.038 317.923C606.536 354.085 694.324 360.757 775.09 336.471L677.041 52.0771L372.516 143.646Z" fill="url(#paint5_linear_19846_1387)"/>
</g>
<mask id="mask4_19846_1387" style="mask-type:alpha" maskUnits="userSpaceOnUse" x="187" y="-406" width="980" height="916">
<g style="mix-blend-mode:screen">
<path d="M297.048 -235.294C466.993 -431.284 774.889 -461.506 984.753 -302.796C1194.62 -144.086 1226.98 143.455 1057.03 339.445C887.09 535.436 579.194 565.658 369.329 406.948C159.465 248.238 127.104 -39.3033 297.048 -235.294Z" stroke="url(#paint6_linear_19846_1387)"/>
</g>
</mask>
<g mask="url(#mask4_19846_1387)">
<path d="M598.629 -398.96C535.204 -389.343 474.427 -368.154 419.771 -336.602C309.39 -272.879 230.636 -170.817 200.831 -52.8685C186.073 5.53424 183.778 66.0797 194.076 125.311L677.041 52.0783L598.629 -398.96Z" fill="url(#paint7_linear_19846_1387)"/>
</g>
<mask id="mask5_19846_1387" style="mask-type:alpha" maskUnits="userSpaceOnUse" x="244" y="-353" width="867" height="810">
<g style="mix-blend-mode:screen">
<path d="M340.924 -202.109C491.247 -375.469 763.592 -402.202 949.224 -261.817C1134.86 -121.433 1163.48 132.908 1013.16 306.269C862.837 479.629 590.492 506.362 404.86 365.977C219.227 225.593 190.602 -28.7481 340.924 -202.109Z" stroke="url(#paint8_linear_19846_1387)"/>
</g>
</mask>
<g mask="url(#mask5_19846_1387)">
<path d="M435.432 -283.305C388.271 -253.674 347.821 -215.658 316.392 -171.427C284.963 -127.197 263.17 -77.6191 252.258 -25.5235C241.346 26.5721 241.528 80.1648 252.794 132.195C264.06 184.225 286.189 233.673 317.917 277.716L677.041 52.0787L435.432 -283.305Z" fill="url(#paint9_linear_19846_1387)"/>
</g>
<mask id="mask6_19846_1387" style="mask-type:alpha" maskUnits="userSpaceOnUse" x="300" y="-300" width="754" height="704">
<g style="mix-blend-mode:screen">
<path d="M384.8 -168.929C515.5 -319.66 752.295 -342.903 913.696 -220.843C1075.1 -98.7836 1099.99 122.357 969.286 273.088C838.586 423.819 601.791 447.062 440.39 325.002C278.989 202.943 254.1 -18.1977 384.8 -168.929Z" stroke="url(#paint10_linear_19846_1387)"/>
</g>
</mask>
<g mask="url(#mask6_19846_1387)">
<path d="M384.544 -169.125C353.437 -133.253 330.201 -92.0103 316.163 -47.7513C295.021 18.9051 295.519 89.9195 317.593 156.312C339.668 222.704 382.328 281.492 440.178 325.243L677.041 52.0786L384.544 -169.125Z" fill="url(#paint11_linear_19846_1387)"/>
</g>
<mask id="mask7_19846_1387" style="mask-type:alpha" maskUnits="userSpaceOnUse" x="356" y="-247" width="642" height="599">
<g style="mix-blend-mode:screen">
<path d="M428.676 -135.749C539.754 -263.85 740.998 -283.604 878.168 -179.869C1015.34 -76.1348 1036.49 111.806 925.411 239.907C814.333 368.009 613.089 387.762 475.919 284.027C338.75 180.293 317.598 -7.64735 428.676 -135.749Z" stroke="url(#paint12_linear_19846_1387)"/>
</g>
</mask>
<g mask="url(#mask7_19846_1387)">
<path d="M562.394 -226.848C483.179 -198.452 419.293 -141.831 384.777 -69.4425C350.269 2.9467 347.964 85.173 378.371 159.149L677.041 52.0793L562.394 -226.848Z" fill="url(#paint13_linear_19846_1387)"/>
</g>
<mask id="mask8_19846_1387" style="mask-type:alpha" maskUnits="userSpaceOnUse" x="-791" y="-406" width="980" height="916">
<g style="mix-blend-mode:screen">
<path d="M27.5246 390.608C227.724 221.358 243.101 -67.4102 61.8701 -254.374C-119.361 -441.339 -428.57 -455.699 -628.77 -286.449C-828.969 -117.2 -844.346 171.569 -663.115 358.533C-481.884 545.497 -172.675 559.858 27.5246 390.608Z" stroke="url(#paint14_linear_19846_1387)"/>
</g>
</mask>
<g mask="url(#mask8_19846_1387)">
<path d="M185.926 100.394C172.204 220.904 107.783 331.388 6.83603 407.541C-43.1481 445.248 -100.596 473.391 -162.226 490.364C-223.857 507.337 -288.464 512.807 -352.358 506.462L-300.623 52.0791L185.926 100.394Z" fill="url(#paint15_linear_19846_1387)"/>
</g>
<mask id="mask9_19846_1387" style="mask-type:alpha" maskUnits="userSpaceOnUse" x="-734" y="-353" width="867" height="810">
<g style="mix-blend-mode:screen">
<path d="M-10.3648 351.52C166.719 201.813 180.32 -53.6133 20.0149 -218.99C-140.29 -384.367 -413.797 -397.069 -590.881 -247.361C-767.964 -97.6539 -781.566 157.772 -621.261 323.149C-460.956 488.525 -187.448 501.228 -10.3648 351.52Z" stroke="url(#paint16_linear_19846_1387)"/>
</g>
</mask>
<g mask="url(#mask9_19846_1387)">
<path d="M71.2457 258.929C12.502 351.035 -83.0143 417.575 -194.291 443.912C-305.568 470.248 -423.49 454.224 -522.116 399.364L-300.623 52.0791L71.2457 258.929Z" fill="url(#paint17_linear_19846_1387)"/>
</g>
<mask id="mask10_19846_1387" style="mask-type:alpha" maskUnits="userSpaceOnUse" x="-621" y="-247" width="641" height="599">
<g style="mix-blend-mode:screen">
<path d="M-86.1422 273.345C44.7102 162.721 54.7608 -26.0209 -63.6936 -148.223C-182.148 -270.425 -384.251 -279.811 -515.103 -169.187C-645.956 -58.5638 -656.006 130.179 -537.552 252.38C-419.098 374.582 -216.995 383.969 -86.1422 273.345Z" stroke="url(#paint18_linear_19846_1387)"/>
</g>
</mask>
<g mask="url(#mask10_19846_1387)">
<path d="M3.90274 143.647C-8.97333 180.994 -29.6002 215.607 -56.8 245.509C-83.9998 275.412 -117.24 300.018 -154.623 317.924C-192.005 335.829 -232.798 346.683 -274.672 349.866C-316.547 353.048 -358.682 348.497 -398.673 336.472L-300.623 52.0781L3.90274 143.647Z" fill="url(#paint19_linear_19846_1387)"/>
</g>
<mask id="mask11_19846_1387" style="mask-type:alpha" maskUnits="userSpaceOnUse" x="-791" y="-406" width="980" height="916">
<g style="mix-blend-mode:screen">
<path d="M79.3714 -235.291C-90.5732 -431.281 -398.469 -461.503 -608.333 -302.793C-818.198 -144.083 -850.559 143.458 -680.614 339.448C-510.67 535.439 -202.774 565.661 7.09054 406.951C216.955 248.241 249.316 -39.3003 79.3714 -235.291Z" stroke="url(#paint20_linear_19846_1387)"/>
</g>
</mask>
<g mask="url(#mask11_19846_1387)">
<path d="M-222.206 -398.96C-158.782 -389.343 -98.0072 -368.154 -43.3518 -336.602C11.3036 -305.05 58.7693 -263.754 96.3351 -215.07C133.901 -166.388 160.832 -111.271 175.589 -52.8685C190.347 5.53424 192.642 66.0797 182.344 125.311L-300.622 52.0783L-222.206 -398.96Z" fill="url(#paint21_linear_19846_1387)"/>
</g>
<mask id="mask12_19846_1387" style="mask-type:alpha" maskUnits="userSpaceOnUse" x="-734" y="-353" width="867" height="810">
<g style="mix-blend-mode:screen">
<path d="M35.4951 -202.11C-114.827 -375.471 -387.173 -402.203 -572.806 -261.818C-758.439 -121.434 -787.063 132.907 -636.741 306.268C-486.419 479.629 -214.073 506.362 -28.4401 365.977C157.193 225.592 185.817 -28.7491 35.4951 -202.11Z" stroke="url(#paint22_linear_19846_1387)"/>
</g>
</mask>
<g mask="url(#mask12_19846_1387)">
<path d="M-59.0133 -283.305C-11.8522 -253.674 28.5976 -215.658 60.0266 -171.428C91.4556 -127.198 113.248 -77.6193 124.16 -25.5236C146.199 79.6882 122.58 188.767 58.5016 277.716L-300.623 52.0787L-59.0133 -283.305Z" fill="url(#paint23_linear_19846_1387)"/>
</g>
<mask id="mask13_19846_1387" style="mask-type:alpha" maskUnits="userSpaceOnUse" x="-678" y="-300" width="754" height="704">
<g style="mix-blend-mode:screen">
<path d="M-8.37854 -168.929C-139.079 -319.66 -375.873 -342.903 -537.274 -220.843C-698.675 -98.7836 -723.564 122.357 -592.864 273.088C-462.164 423.819 -225.369 447.062 -63.9679 325.002C97.4333 202.943 122.321 -18.1977 -8.37854 -168.929Z" stroke="url(#paint24_linear_19846_1387)"/>
</g>
</mask>
<g mask="url(#mask13_19846_1387)">
<path d="M-8.12173 -169.125C54.6977 -96.6766 84.1276 -3.89107 73.6939 88.8209C63.2589 181.533 13.8152 266.576 -63.7603 325.243L-300.623 52.0791L-8.12173 -169.125Z" fill="url(#paint25_linear_19846_1387)"/>
</g>
<mask id="mask14_19846_1387" style="mask-type:alpha" maskUnits="userSpaceOnUse" x="-621" y="-247" width="641" height="599">
<g style="mix-blend-mode:screen">
<path d="M-52.2559 -135.749C-163.334 -263.85 -364.578 -283.604 -501.748 -179.869C-638.917 -76.1348 -660.069 111.806 -548.991 239.907C-437.913 368.009 -236.669 387.762 -99.4995 284.027C37.6702 180.293 58.8219 -7.64734 -52.2559 -135.749Z" stroke="url(#paint26_linear_19846_1387)"/>
</g>
</mask>
<g mask="url(#mask14_19846_1387)">
<path d="M-185.974 -226.849C-106.761 -198.452 -42.8722 -141.831 -8.36127 -69.4428C26.1497 2.94569 28.4554 85.1724 -1.95139 159.149L-300.623 52.0788L-185.974 -226.849Z" fill="url(#paint27_linear_19846_1387)"/>
</g>
</g>
</g>
</g>
</g>
<defs>
<linearGradient id="paint0_linear_19846_1387" x1="348.682" y1="390.839" x2="956.504" y2="-328.067" gradientUnits="userSpaceOnUse">
<stop stop-color="#8C8C8C"/>
<stop offset="1" stop-color="#8C8C8C" stop-opacity="0"/>
</linearGradient>
<linearGradient id="paint1_linear_19846_1387" x1="721.103" y1="504.188" x2="215.777" y2="72.2201" gradientUnits="userSpaceOnUse">
<stop stop-color="#3AC4A0" stop-opacity="0"/>
<stop offset="1" stop-color="#3AC4A0"/>
</linearGradient>
<linearGradient id="paint2_linear_19846_1387" x1="386.575" y1="351.752" x2="924.263" y2="-284.203" gradientUnits="userSpaceOnUse">
<stop stop-color="#8C8C8C"/>
<stop offset="1" stop-color="#8C8C8C" stop-opacity="0"/>
</linearGradient>
<linearGradient id="paint3_linear_19846_1387" x1="906.427" y1="398.113" x2="313.407" y2="241.068" gradientUnits="userSpaceOnUse">
<stop stop-color="#3AC4A0" stop-opacity="0"/>
<stop offset="1" stop-color="#3AC4A0"/>
</linearGradient>
<linearGradient id="paint4_linear_19846_1387" x1="462.348" y1="273.574" x2="859.768" y2="-196.478" gradientUnits="userSpaceOnUse">
<stop stop-color="#8C8C8C"/>
<stop offset="1" stop-color="#8C8C8C" stop-opacity="0"/>
</linearGradient>
<linearGradient id="paint5_linear_19846_1387" x1="779.904" y1="336.591" x2="378.057" y2="100.424" gradientUnits="userSpaceOnUse">
<stop stop-color="#3AC4A0" stop-opacity="0"/>
<stop offset="1" stop-color="#3AC4A0"/>
</linearGradient>
<linearGradient id="paint6_linear_19846_1387" x1="296.788" y1="-235.49" x2="1015.55" y2="387.808" gradientUnits="userSpaceOnUse">
<stop stop-color="#8C8C8C"/>
<stop offset="1" stop-color="#8C8C8C" stop-opacity="0"/>
</linearGradient>
<linearGradient id="paint7_linear_19846_1387" x1="196.085" y1="118.031" x2="557.351" y2="-425.33" gradientUnits="userSpaceOnUse">
<stop stop-color="#3AC4A0" stop-opacity="0"/>
<stop offset="1" stop-color="#3AC4A0"/>
</linearGradient>
<linearGradient id="paint8_linear_19846_1387" x1="340.664" y1="-202.305" x2="976.491" y2="349.073" gradientUnits="userSpaceOnUse">
<stop stop-color="#8C8C8C"/>
<stop offset="1" stop-color="#8C8C8C" stop-opacity="0"/>
</linearGradient>
<linearGradient id="paint9_linear_19846_1387" x1="319.689" y1="285.004" x2="420.247" y2="-282.76" gradientUnits="userSpaceOnUse">
<stop stop-color="#3AC4A0" stop-opacity="0"/>
<stop offset="1" stop-color="#3AC4A0"/>
</linearGradient>
<linearGradient id="paint10_linear_19846_1387" x1="384.541" y1="-169.125" x2="937.434" y2="310.335" gradientUnits="userSpaceOnUse">
<stop stop-color="#8C8C8C"/>
<stop offset="1" stop-color="#8C8C8C" stop-opacity="0"/>
</linearGradient>
<linearGradient id="paint11_linear_19846_1387" x1="451.146" y1="333.538" x2="392.947" y2="-170.096" gradientUnits="userSpaceOnUse">
<stop stop-color="#3AC4A0" stop-opacity="0"/>
<stop offset="1" stop-color="#3AC4A0"/>
</linearGradient>
<linearGradient id="paint12_linear_19846_1387" x1="428.418" y1="-135.944" x2="898.376" y2="271.596" gradientUnits="userSpaceOnUse">
<stop stop-color="#8C8C8C"/>
<stop offset="1" stop-color="#8C8C8C" stop-opacity="0"/>
</linearGradient>
<linearGradient id="paint13_linear_19846_1387" x1="378.51" y1="163.645" x2="561.535" y2="-245.263" gradientUnits="userSpaceOnUse">
<stop stop-color="#3AC4A0" stop-opacity="0"/>
<stop offset="1" stop-color="#3AC4A0"/>
</linearGradient>
<linearGradient id="paint14_linear_19846_1387" x1="27.7469" y1="390.837" x2="-580.073" y2="-328.067" gradientUnits="userSpaceOnUse">
<stop stop-color="#8C8C8C"/>
<stop offset="1" stop-color="#8C8C8C" stop-opacity="0"/>
</linearGradient>
<linearGradient id="paint15_linear_19846_1387" x1="-344.686" y1="504.188" x2="160.641" y2="72.2201" gradientUnits="userSpaceOnUse">
<stop stop-color="#3AC4A0" stop-opacity="0"/>
<stop offset="1" stop-color="#3AC4A0"/>
</linearGradient>
<linearGradient id="paint16_linear_19846_1387" x1="-10.1421" y1="351.75" x2="-547.829" y2="-284.203" gradientUnits="userSpaceOnUse">
<stop stop-color="#8C8C8C"/>
<stop offset="1" stop-color="#8C8C8C" stop-opacity="0"/>
</linearGradient>
<linearGradient id="paint17_linear_19846_1387" x1="-530.006" y1="398.113" x2="63.0113" y2="241.068" gradientUnits="userSpaceOnUse">
<stop stop-color="#3AC4A0" stop-opacity="0"/>
<stop offset="1" stop-color="#3AC4A0"/>
</linearGradient>
<linearGradient id="paint18_linear_19846_1387" x1="-85.9194" y1="273.575" x2="-483.34" y2="-196.479" gradientUnits="userSpaceOnUse">
<stop stop-color="#8C8C8C"/>
<stop offset="1" stop-color="#8C8C8C" stop-opacity="0"/>
</linearGradient>
<linearGradient id="paint19_linear_19846_1387" x1="-403.487" y1="336.592" x2="-1.63924" y2="100.424" gradientUnits="userSpaceOnUse">
<stop stop-color="#3AC4A0" stop-opacity="0"/>
<stop offset="1" stop-color="#3AC4A0"/>
</linearGradient>
<linearGradient id="paint20_linear_19846_1387" x1="79.6289" y1="-235.486" x2="-639.13" y2="387.811" gradientUnits="userSpaceOnUse">
<stop stop-color="#8C8C8C"/>
<stop offset="1" stop-color="#8C8C8C" stop-opacity="0"/>
</linearGradient>
<linearGradient id="paint21_linear_19846_1387" x1="180.335" y1="118.031" x2="-180.928" y2="-425.33" gradientUnits="userSpaceOnUse">
<stop stop-color="#3AC4A0" stop-opacity="0"/>
<stop offset="1" stop-color="#3AC4A0"/>
</linearGradient>
<linearGradient id="paint22_linear_19846_1387" x1="35.7525" y1="-202.305" x2="-600.073" y2="349.073" gradientUnits="userSpaceOnUse">
<stop stop-color="#8C8C8C"/>
<stop offset="1" stop-color="#8C8C8C" stop-opacity="0"/>
</linearGradient>
<linearGradient id="paint23_linear_19846_1387" x1="56.7304" y1="285.004" x2="-43.8295" y2="-282.76" gradientUnits="userSpaceOnUse">
<stop stop-color="#3AC4A0" stop-opacity="0"/>
<stop offset="1" stop-color="#3AC4A0"/>
</linearGradient>
<linearGradient id="paint24_linear_19846_1387" x1="-8.12056" y1="-169.124" x2="-561.012" y2="310.335" gradientUnits="userSpaceOnUse">
<stop stop-color="#8C8C8C"/>
<stop offset="1" stop-color="#8C8C8C" stop-opacity="0"/>
</linearGradient>
<linearGradient id="paint25_linear_19846_1387" x1="-74.729" y1="333.538" x2="-16.5251" y2="-170.096" gradientUnits="userSpaceOnUse">
<stop stop-color="#3AC4A0" stop-opacity="0"/>
<stop offset="1" stop-color="#3AC4A0"/>
</linearGradient>
<linearGradient id="paint26_linear_19846_1387" x1="-51.9984" y1="-135.944" x2="-521.957" y2="271.596" gradientUnits="userSpaceOnUse">
<stop stop-color="#8C8C8C"/>
<stop offset="1" stop-color="#8C8C8C" stop-opacity="0"/>
</linearGradient>
<linearGradient id="paint27_linear_19846_1387" x1="-2.08814" y1="163.645" x2="-185.114" y2="-245.264" gradientUnits="userSpaceOnUse">
<stop stop-color="#3AC4A0" stop-opacity="0"/>
<stop offset="1" stop-color="#3AC4A0"/>
</linearGradient>
<clipPath id="clip0_19846_1387">
<rect width="956" height="558" fill="white" transform="translate(-290)"/>
</clipPath>
<clipPath id="clip1_19846_1387">
<rect width="956" height="558" fill="white" transform="translate(-290)"/>
</clipPath>
</defs>
</svg>
