<svg width="33" height="33" viewBox="0 0 33 33" fill="none" xmlns="http://www.w3.org/2000/svg">
<path d="M27.7836 20.6367C27.641 20.5468 27.478 20.4943 27.3098 20.4843C27.1415 20.4742 26.9734 20.5069 26.8211 20.5792C26.4401 20.7594 26.0197 20.8403 25.5989 20.8145C25.1782 20.7886 24.7709 20.6568 24.4148 20.4313C24.0587 20.2058 23.7654 19.8939 23.5621 19.5246C23.3589 19.1554 23.2523 18.7407 23.2523 18.3192C23.2523 17.8977 23.3589 17.483 23.5621 17.1137C23.7654 16.7445 24.0587 16.4326 24.4148 16.2071C24.7709 15.9816 25.1782 15.8498 25.5989 15.8239C26.0197 15.798 26.4401 15.879 26.8211 16.0592C26.9736 16.1315 27.1419 16.1641 27.3103 16.1539C27.4787 16.1438 27.6418 16.0911 27.7845 16.0009C27.9271 15.9107 28.0445 15.7859 28.1259 15.638C28.2073 15.4902 28.2499 15.3242 28.2499 15.1554V9.8192C28.2499 9.28876 28.0392 8.78006 27.6641 8.40498C27.289 8.02991 26.7803 7.8192 26.2499 7.8192H21.7224C21.741 7.65318 21.7502 7.48625 21.7499 7.3192C21.749 6.7046 21.6225 6.09667 21.3784 5.53266C21.1342 4.96865 20.7774 4.46044 20.3299 4.0392C19.7102 3.45721 18.9384 3.06266 18.1037 2.90122C17.2691 2.73979 16.4058 2.81807 15.6138 3.12702C14.8218 3.43597 14.1335 3.96293 13.6287 4.6469C13.1238 5.33086 12.823 6.14384 12.7611 6.9917C12.7419 7.26749 12.7478 7.54446 12.7786 7.8192H8.24988C7.71944 7.8192 7.21074 8.02991 6.83566 8.40498C6.46059 8.78006 6.24988 9.28876 6.24988 9.8192V13.8467C6.08386 13.8281 5.91693 13.8189 5.74988 13.8192C5.13529 13.8202 4.52738 13.9466 3.96338 14.1908C3.39938 14.435 2.89117 14.7917 2.46988 15.2392C2.04556 15.6874 1.71884 16.2188 1.51035 16.7997C1.30187 17.3806 1.21615 17.9985 1.25863 18.6142C1.33029 19.6984 1.79097 20.7203 2.55597 21.492C3.32096 22.2636 4.33882 22.7331 5.42238 22.8142C5.69816 22.834 5.97518 22.8282 6.24988 22.7967V26.8192C6.24988 27.3496 6.46059 27.8583 6.83566 28.2334C7.21074 28.6085 7.71944 28.8192 8.24988 28.8192H26.2499C26.7803 28.8192 27.289 28.6085 27.6641 28.2334C28.0392 27.8583 28.2499 27.3496 28.2499 26.8192V21.4829C28.25 21.314 28.2073 21.1478 28.1257 20.9998C28.0442 20.8518 27.9265 20.7269 27.7836 20.6367ZM26.2499 26.8192H8.24988V21.4829C8.24993 21.3142 8.20729 21.1482 8.12591 21.0004C8.04453 20.8525 7.92706 20.7277 7.78445 20.6375C7.64184 20.5473 7.47873 20.4946 7.31029 20.4844C7.14185 20.4743 6.97358 20.5068 6.82113 20.5792C6.44008 20.7594 6.01966 20.8403 5.59895 20.8145C5.17823 20.7886 4.77089 20.6568 4.41478 20.4313C4.05867 20.2058 3.76536 19.8939 3.56211 19.5246C3.35887 19.1554 3.2523 18.7407 3.2523 18.3192C3.2523 17.8977 3.35887 17.483 3.56211 17.1137C3.76536 16.7445 4.05867 16.4326 4.41478 16.2071C4.77089 15.9816 5.17823 15.8498 5.59895 15.8239C6.01966 15.798 6.44008 15.879 6.82113 16.0592C6.97358 16.1315 7.14185 16.1641 7.31029 16.1539C7.47873 16.1438 7.64184 16.0911 7.78445 16.0009C7.92706 15.9107 8.04453 15.7859 8.12591 15.638C8.20729 15.4902 8.24993 15.3242 8.24988 15.1554V9.8192H14.0861C14.2549 9.81925 14.4209 9.7766 14.5687 9.69522C14.7165 9.61385 14.8414 9.49638 14.9316 9.35377C15.0218 9.21116 15.0744 9.04805 15.0846 8.87961C15.0948 8.71117 15.0622 8.54289 14.9899 8.39045C14.8097 8.0094 14.7287 7.58898 14.7546 7.16827C14.7804 6.74755 14.9122 6.3402 15.1378 5.98409C15.3633 5.62798 15.6752 5.33467 16.0444 5.13143C16.4137 4.92819 16.8284 4.82161 17.2499 4.82161C17.6714 4.82161 18.0861 4.92819 18.4553 5.13143C18.8246 5.33467 19.1365 5.62798 19.362 5.98409C19.5875 6.3402 19.7193 6.74755 19.7452 7.16827C19.771 7.58898 19.6901 8.0094 19.5099 8.39045C19.4375 8.54289 19.4049 8.71117 19.4151 8.87961C19.4253 9.04805 19.478 9.21116 19.5682 9.35377C19.6584 9.49638 19.7832 9.61385 19.931 9.69522C20.0789 9.7766 20.2449 9.81925 20.4136 9.8192H26.2499V13.8479C25.9752 13.8165 25.6982 13.8106 25.4224 13.8304C24.2585 13.9129 23.1722 14.4441 22.3925 15.3121C21.6128 16.1801 21.2007 17.3171 21.2432 18.4831C21.2857 19.6491 21.7794 20.753 22.6202 21.5619C23.461 22.3709 24.5831 22.8217 25.7499 22.8192C25.9169 22.8195 26.0839 22.8103 26.2499 22.7917V26.8192Z" fill="#3AC4A0"/>
</svg>
