<svg width="32" height="33" viewBox="0 0 32 33" fill="none" xmlns="http://www.w3.org/2000/svg">
<path d="M29.8999 12.4606C29.7788 12.0873 29.5506 11.7579 29.2436 11.5134C28.9367 11.2689 28.5646 11.1201 28.1737 11.0856L20.7499 10.4456L17.8399 3.52556C17.6884 3.16246 17.4329 2.8523 17.1054 2.63413C16.778 2.41597 16.3934 2.29956 15.9999 2.29956C15.6065 2.29956 15.2218 2.41597 14.8944 2.63413C14.567 2.8523 14.3114 3.16246 14.1599 3.52556L11.2587 10.4456L3.82618 11.0893C3.43372 11.1223 3.05974 11.2704 2.75113 11.5151C2.44251 11.7598 2.21301 12.0901 2.0914 12.4647C1.96978 12.8393 1.96147 13.2414 2.0675 13.6207C2.17353 14 2.38919 14.3396 2.68743 14.5968L8.32618 19.5243L6.63618 26.8418C6.54682 27.2247 6.57232 27.6255 6.70949 27.994C6.84666 28.3625 7.08943 28.6825 7.40742 28.9137C7.72542 29.145 8.10455 29.2775 8.4974 29.2945C8.89025 29.3115 9.27939 29.2123 9.61618 29.0093L15.9912 25.1343L22.3799 29.0093C22.7167 29.2123 23.1059 29.3115 23.4987 29.2945C23.8916 29.2775 24.2707 29.145 24.5887 28.9137C24.9067 28.6825 25.1494 28.3625 25.2866 27.994C25.4238 27.6255 25.4493 27.2247 25.3599 26.8418L23.6712 19.5168L29.3087 14.5968C29.6069 14.3387 29.8221 13.9982 29.9273 13.6181C30.0325 13.238 30.023 12.8353 29.8999 12.4606ZM27.9974 13.0856L22.3599 18.0056C22.0856 18.2442 21.8814 18.5532 21.7696 18.8992C21.6577 19.2452 21.6422 19.6152 21.7249 19.9693L23.4187 27.2993L17.0349 23.4243C16.7235 23.2346 16.3658 23.1343 16.0012 23.1343C15.6365 23.1343 15.2789 23.2346 14.9674 23.4243L8.59243 27.2993L10.2749 19.9743C10.3576 19.6202 10.3422 19.2502 10.2303 18.9042C10.1184 18.5582 9.9143 18.2492 9.63993 18.0106L3.99993 13.0931C3.99947 13.0893 3.99947 13.0855 3.99993 13.0818L11.4299 12.4393C11.7927 12.4073 12.1398 12.2769 12.4339 12.0622C12.728 11.8474 12.9578 11.5564 13.0987 11.2206L15.9999 4.30931L18.8999 11.2206C19.0408 11.5564 19.2706 11.8474 19.5647 12.0622C19.8588 12.2769 20.2059 12.4073 20.5687 12.4393L27.9999 13.0818C27.9999 13.0818 27.9999 13.0893 27.9999 13.0906L27.9974 13.0856Z" fill="#3AC4A0"/>
</svg>
