<svg width="1440" height="921" viewBox="0 0 1440 921" fill="none" xmlns="http://www.w3.org/2000/svg">
<mask id="path-1-inside-1_19744_10451" fill="white">
<path d="M1488 881C1488 903.091 1470.09 921 1448 921H-7.99997C-30.0914 921 -48 903.091 -48 881V40.7978C-48 18.7064 -30.0914 0.797852 -8 0.797852H284.353C297.976 0.797852 310.662 7.73148 318.019 19.1977L402.061 150.187C409.418 161.653 422.104 168.587 435.728 168.587H1071.86C1085.27 168.587 1097.79 161.866 1105.2 150.688L1192.7 18.6963C1200.11 7.51848 1212.63 0.797852 1226.04 0.797852H1448C1470.09 0.797852 1488 18.7065 1488 40.7979V881Z"/>
</mask>
<path d="M1488 881C1488 903.091 1470.09 921 1448 921H-7.99997C-30.0914 921 -48 903.091 -48 881V40.7978C-48 18.7064 -30.0914 0.797852 -8 0.797852H284.353C297.976 0.797852 310.662 7.73148 318.019 19.1977L402.061 150.187C409.418 161.653 422.104 168.587 435.728 168.587H1071.86C1085.27 168.587 1097.79 161.866 1105.2 150.688L1192.7 18.6963C1200.11 7.51848 1212.63 0.797852 1226.04 0.797852H1448C1470.09 0.797852 1488 18.7065 1488 40.7979V881Z" fill="#060311"/>
<path d="M1192.7 18.6963L1193.53 19.2488L1192.7 18.6963ZM1105.2 150.688L1104.36 150.136L1105.2 150.688ZM402.061 150.187L402.903 149.647L402.061 150.187ZM318.019 19.1977L317.177 19.7377L318.019 19.1977ZM1448 921V920H-7.99997V921V922H1448V921ZM-48 881H-47V40.7978H-48H-49V881H-48ZM-8 0.797852V1.79785H284.353V0.797852V-0.202148H-8V0.797852ZM318.019 19.1977L317.177 19.7377L401.219 150.727L402.061 150.187L402.903 149.647L318.861 18.6577L318.019 19.1977ZM435.728 168.587V169.587H1071.86V168.587V167.587H435.728V168.587ZM1105.2 150.688L1106.03 151.241L1193.53 19.2488L1192.7 18.6963L1191.87 18.1438L1104.36 150.136L1105.2 150.688ZM1226.04 0.797852V1.79785H1448V0.797852V-0.202148H1226.04V0.797852ZM1488 40.7979H1487V881H1488H1489V40.7979H1488ZM1448 0.797852V1.79785C1469.54 1.79785 1487 19.2587 1487 40.7979H1488H1489C1489 18.1542 1470.64 -0.202148 1448 -0.202148V0.797852ZM1192.7 18.6963L1193.53 19.2488C1200.76 8.35046 1212.96 1.79785 1226.04 1.79785V0.797852V-0.202148C1212.29 -0.202148 1199.46 6.68649 1191.87 18.1438L1192.7 18.6963ZM1071.86 168.587V169.587C1085.6 169.587 1098.44 162.698 1106.03 151.241L1105.2 150.688L1104.36 150.136C1097.14 161.034 1084.93 167.587 1071.86 167.587V168.587ZM402.061 150.187L401.219 150.727C408.76 162.48 421.764 169.587 435.728 169.587V168.587V167.587C422.445 167.587 410.075 160.827 402.903 149.647L402.061 150.187ZM284.353 0.797852V1.79785C297.635 1.79785 310.005 8.55814 317.177 19.7377L318.019 19.1977L318.861 18.6577C311.32 6.90482 298.316 -0.202148 284.353 -0.202148V0.797852ZM-48 40.7978H-47C-47 19.2587 -29.5391 1.79785 -8 1.79785V0.797852V-0.202148C-30.6437 -0.202148 -49 18.1541 -49 40.7978H-48ZM-7.99997 921V920C-29.5391 920 -47 902.539 -47 881H-48H-49C-49 903.644 -30.6436 922 -7.99997 922V921ZM1448 921V922C1470.64 922 1489 903.644 1489 881H1488H1487C1487 902.539 1469.54 920 1448 920V921Z" fill="url(#paint0_linear_19744_10451)" mask="url(#path-1-inside-1_19744_10451)"/>
<defs>
<linearGradient id="paint0_linear_19744_10451" x1="426" y1="-117.708" x2="1170.94" y2="187.1" gradientUnits="userSpaceOnUse">
<stop stop-color="white"/>
<stop offset="1" stop-color="#3AC4A0"/>
</linearGradient>
</defs>
</svg>
