          <svg
            width="375"
            height="64"
            viewBox="0 0 375 64"
            fill="none"
            xmlns="http://www.w3.org/2000/svg"
          >
            <mask id="path-1-inside-1_19838_305" fill="white">
              <path d="M411 803C411 814.046 402.046 823 391 823H-16C-27.0457 823 -36 814.046 -36 803V20C-36 8.95432 -27.0457 0 -16 0H54.4616C61.5099 0 68.0379 3.71 71.6446 9.76554L92.4843 44.754C96.091 50.8095 102.619 54.5195 109.667 54.5195H285.075C292.02 54.5195 298.468 50.9166 302.108 45.0018L323.945 9.51777C327.585 3.60298 334.033 0 340.978 0H391C402.046 0 411 8.95431 411 20V803Z" />
            </mask>
            <path
              d="M411 803C411 814.046 402.046 823 391 823H-16C-27.0457 823 -36 814.046 -36 803V20C-36 8.95432 -27.0457 0 -16 0H54.4616C61.5099 0 68.0379 3.71 71.6446 9.76554L92.4843 44.754C96.091 50.8095 102.619 54.5195 109.667 54.5195H285.075C292.02 54.5195 298.468 50.9166 302.108 45.0018L323.945 9.51777C327.585 3.60298 334.033 0 340.978 0H391C402.046 0 411 8.95431 411 20V803Z"
              fill="#060311"
            />
            <path
              d="M92.4843 44.754L91.6251 45.2657L92.4843 44.754ZM391 823V822H-16V823V824H391V823ZM-36 803H-35V20H-36H-37V803H-36ZM-16 0V1H54.4616V0V-1H-16V0ZM71.6446 9.76554L70.7855 10.2773L91.6251 45.2657L92.4843 44.754L93.3434 44.2423L72.5038 9.25382L71.6446 9.76554ZM109.667 54.5195V55.5195H285.075V54.5195V53.5195H109.667V54.5195ZM302.108 45.0018L302.96 45.5259L324.797 10.0419L323.945 9.51777L323.094 8.99366L301.257 44.4777L302.108 45.0018ZM340.978 0V1H391V0V-1H340.978V0ZM411 20H410V803H411H412V20H411ZM391 0V1C401.493 1 410 9.50659 410 20H411H412C412 8.40202 402.598 -1 391 -1V0ZM323.945 9.51777L324.797 10.0419C328.255 4.42283 334.381 1 340.978 1V0V-1C333.686 -1 326.916 2.78313 323.094 8.99366L323.945 9.51777ZM285.075 54.5195V55.5195C292.368 55.5195 299.138 51.7364 302.96 45.5259L302.108 45.0018L301.257 44.4777C297.799 50.0967 291.673 53.5195 285.075 53.5195V54.5195ZM92.4843 44.754L91.6251 45.2657C95.4122 51.624 102.267 55.5195 109.667 55.5195V54.5195V53.5195C102.971 53.5195 96.7699 49.995 93.3434 44.2423L92.4843 44.754ZM54.4616 0V1C61.1575 1 67.359 4.5245 70.7855 10.2773L71.6446 9.76554L72.5038 9.25382C68.7167 2.8955 61.8623 -1 54.4616 -1V0ZM-36 20H-35C-35 9.5066 -26.4934 1 -16 1V0V-1C-27.598 -1 -37 8.40203 -37 20H-36ZM-16 823V822C-26.4934 822 -35 813.493 -35 803H-36H-37C-37 814.598 -27.598 824 -16 824V823ZM391 823V824C402.598 824 412 814.598 412 803H411H410C410 813.493 401.493 822 391 822V823Z"
              fill="url(#paint0_linear_19838_305)"
              mask="url(#path-1-inside-1_19838_305)"
            />
            <defs>
              <linearGradient
                id="paint0_linear_19838_305"
                x1="101.941"
                y1="-105.988"
                x2="350.618"
                y2="-72.8794"
                gradientUnits="userSpaceOnUse"
              >
                <stop stop-color="white" />
                <stop offset="1" stop-color="#3AC4A0" />
              </linearGradient>
            </defs>
          </svg>