<svg width="25" height="25" viewBox="0 0 25 25" fill="none" xmlns="http://www.w3.org/2000/svg">
<path d="M8.66455 16.7988H12.6645M8.66455 11.7988H16.6645" stroke="white" stroke-opacity="0.72" stroke-width="1.5" stroke-linecap="round"/>
<path d="M8.16651 4.29883C6.61071 4.3455 5.68312 4.51867 5.04128 5.1611C4.1626 6.0406 4.1626 7.45613 4.1626 10.2872V16.7932C4.1626 19.6243 4.1626 21.0398 5.04128 21.9193C5.91996 22.7988 7.33418 22.7988 10.1626 22.7988H15.1626C17.991 22.7988 19.4052 22.7988 20.2839 21.9193C21.1626 21.0398 21.1626 19.6243 21.1626 16.7932V10.2872C21.1626 7.45613 21.1626 6.0406 20.2839 5.16111C19.6421 4.51867 18.7145 4.3455 17.1587 4.29883" stroke="white" stroke-opacity="0.72" stroke-width="1.5"/>
<path d="M8.1626 4.54883C8.1626 3.58233 8.94611 2.79883 9.9126 2.79883H15.4126C16.3791 2.79883 17.1626 3.58233 17.1626 4.54883C17.1626 5.51533 16.3791 6.29883 15.4126 6.29883H9.9126C8.94611 6.29883 8.1626 5.51533 8.1626 4.54883Z" stroke="white" stroke-opacity="0.72" stroke-width="1.5" stroke-linejoin="round"/>
</svg>
