<svg width="33" height="33" viewBox="0 0 33 33" fill="none" xmlns="http://www.w3.org/2000/svg">
<path d="M3.9 16.0994C4.00506 16.1782 4.12461 16.2355 4.25182 16.2681C4.37903 16.3007 4.51142 16.3079 4.64142 16.2894C4.77142 16.2708 4.89649 16.2268 5.00949 16.1599C5.12249 16.093 5.22121 16.0045 5.3 15.8994C5.90546 15.0921 6.69055 14.4369 7.59311 13.9856C8.49567 13.5344 9.49091 13.2994 10.5 13.2994C11.5091 13.2994 12.5043 13.5344 13.4069 13.9856C14.3094 14.4369 15.0945 15.0921 15.7 15.8994C15.8593 16.1114 16.0963 16.2514 16.3588 16.2887C16.6214 16.326 16.888 16.2574 17.1 16.0982C17.1756 16.042 17.2425 15.975 17.2987 15.8994C17.9042 15.0921 18.6893 14.4369 19.5919 13.9856C20.4944 13.5344 21.4897 13.2994 22.4988 13.2994C23.5078 13.2994 24.5031 13.5344 25.4056 13.9856C26.3082 14.4369 27.0933 15.0921 27.6987 15.8994C27.858 16.1116 28.0951 16.2518 28.3578 16.2892C28.6204 16.3266 28.8872 16.2581 29.0994 16.0988C29.3115 15.9395 29.4518 15.7024 29.4891 15.4398C29.5265 15.1771 29.458 14.9103 29.2987 14.6982C28.4136 13.5115 27.2332 12.5772 25.875 11.9882C26.6196 11.3083 27.1413 10.4193 27.3716 9.43767C27.6019 8.45605 27.53 7.42774 27.1654 6.4877C26.8009 5.54765 26.1606 4.73979 25.3287 4.17014C24.4967 3.60048 23.512 3.29565 22.5037 3.29565C21.4955 3.29565 20.5108 3.60048 19.6788 4.17014C18.8469 4.73979 18.2066 5.54765 17.8421 6.4877C17.4775 7.42774 17.4056 8.45605 17.6359 9.43767C17.8662 10.4193 18.3879 11.3083 19.1325 11.9882C18.1518 12.4122 17.2609 13.0193 16.5075 13.7769C15.7541 13.0193 14.8632 12.4122 13.8825 11.9882C14.6271 11.3083 15.1488 10.4193 15.3791 9.43767C15.6094 8.45605 15.5375 7.42774 15.1729 6.4877C14.8084 5.54765 14.1681 4.73979 13.3362 4.17014C12.5042 3.60048 11.5195 3.29565 10.5112 3.29565C9.50298 3.29565 8.51827 3.60048 7.68634 4.17014C6.85442 4.73979 6.21415 5.54765 5.84957 6.4877C5.48499 7.42774 5.41313 8.45605 5.64342 9.43767C5.87371 10.4193 6.39539 11.3083 7.14 11.9882C5.77581 12.5753 4.58963 13.5102 3.7 14.6994C3.62121 14.8045 3.56388 14.924 3.53129 15.0512C3.49869 15.1785 3.49148 15.3108 3.51005 15.4408C3.52862 15.5708 3.57262 15.6959 3.63953 15.8089C3.70643 15.9219 3.79494 16.0206 3.9 16.0994ZM22.5 5.29942C23.0933 5.29942 23.6734 5.47537 24.1667 5.80501C24.6601 6.13466 25.0446 6.60319 25.2716 7.15137C25.4987 7.69955 25.5581 8.30275 25.4424 8.88469C25.3266 9.46663 25.0409 10.0012 24.6213 10.4207C24.2018 10.8403 23.6672 11.126 23.0853 11.2418C22.5033 11.3575 21.9001 11.2981 21.3519 11.0711C20.8038 10.844 20.3352 10.4595 20.0056 9.96613C19.6759 9.47278 19.5 8.89276 19.5 8.29942C19.5 7.50377 19.8161 6.74071 20.3787 6.1781C20.9413 5.61549 21.7044 5.29942 22.5 5.29942ZM10.5 5.29942C11.0933 5.29942 11.6734 5.47537 12.1667 5.80501C12.6601 6.13466 13.0446 6.60319 13.2716 7.15137C13.4987 7.69955 13.5581 8.30275 13.4424 8.88469C13.3266 9.46663 13.0409 10.0012 12.6213 10.4207C12.2018 10.8403 11.6672 11.126 11.0853 11.2418C10.5033 11.3575 9.90013 11.2981 9.35195 11.0711C8.80377 10.844 8.33524 10.4595 8.00559 9.96613C7.67595 9.47278 7.5 8.89276 7.5 8.29942C7.5 7.50377 7.81607 6.74071 8.37868 6.1781C8.94129 5.61549 9.70435 5.29942 10.5 5.29942ZM25.875 24.9882C26.6196 24.3083 27.1413 23.4193 27.3716 22.4377C27.6019 21.456 27.53 20.4277 27.1654 19.4877C26.8009 18.5476 26.1606 17.7398 25.3287 17.1701C24.4967 16.6005 23.512 16.2957 22.5037 16.2957C21.4955 16.2957 20.5108 16.6005 19.6788 17.1701C18.8469 17.7398 18.2066 18.5476 17.8421 19.4877C17.4775 20.4277 17.4056 21.456 17.6359 22.4377C17.8662 23.4193 18.3879 24.3083 19.1325 24.9882C18.1518 25.4122 17.2609 26.0193 16.5075 26.7769C15.7541 26.0193 14.8632 25.4122 13.8825 24.9882C14.6271 24.3083 15.1488 23.4193 15.3791 22.4377C15.6094 21.456 15.5375 20.4277 15.1729 19.4877C14.8084 18.5476 14.1681 17.7398 13.3362 17.1701C12.5042 16.6005 11.5195 16.2957 10.5112 16.2957C9.50298 16.2957 8.51827 16.6005 7.68634 17.1701C6.85442 17.7398 6.21415 18.5476 5.84957 19.4877C5.48499 20.4277 5.41313 21.456 5.64342 22.4377C5.87371 23.4193 6.39539 24.3083 7.14 24.9882C5.77581 25.5753 4.58963 26.5102 3.7 27.6994C3.62121 27.8045 3.56388 27.924 3.53129 28.0512C3.49869 28.1785 3.49148 28.3108 3.51005 28.4408C3.52862 28.5708 3.57262 28.6959 3.63953 28.8089C3.70643 28.9219 3.79494 29.0206 3.9 29.0994C4.00506 29.1782 4.12461 29.2355 4.25182 29.2681C4.37903 29.3007 4.51142 29.3079 4.64142 29.2894C4.77142 29.2708 4.89649 29.2268 5.00949 29.1599C5.12249 29.093 5.22121 29.0045 5.3 28.8994C5.90546 28.0921 6.69055 27.4369 7.59311 26.9856C8.49567 26.5344 9.49091 26.2994 10.5 26.2994C11.5091 26.2994 12.5043 26.5344 13.4069 26.9856C14.3094 27.4369 15.0945 28.0921 15.7 28.8994C15.8593 29.1114 16.0963 29.2514 16.3588 29.2887C16.6214 29.326 16.888 29.2574 17.1 29.0982C17.1756 29.042 17.2425 28.975 17.2987 28.8994C17.9042 28.0921 18.6893 27.4369 19.5919 26.9856C20.4944 26.5344 21.4897 26.2994 22.4988 26.2994C23.5078 26.2994 24.5031 26.5344 25.4056 26.9856C26.3082 27.4369 27.0933 28.0921 27.6987 28.8994C27.858 29.1116 28.0951 29.2518 28.3578 29.2892C28.6204 29.3266 28.8872 29.2581 29.0994 29.0988C29.3115 28.9395 29.4518 28.7024 29.4891 28.4398C29.5265 28.1771 29.458 27.9103 29.2987 27.6982C28.4136 26.5115 27.2332 25.5772 25.875 24.9882ZM10.5 18.2994C11.0933 18.2994 11.6734 18.4754 12.1667 18.805C12.6601 19.1347 13.0446 19.6032 13.2716 20.1514C13.4987 20.6995 13.5581 21.3027 13.4424 21.8847C13.3266 22.4666 13.0409 23.0012 12.6213 23.4207C12.2018 23.8403 11.6672 24.126 11.0853 24.2418C10.5033 24.3575 9.90013 24.2981 9.35195 24.0711C8.80377 23.844 8.33524 23.4595 8.00559 22.9661C7.67595 22.4728 7.5 21.8928 7.5 21.2994C7.5 20.5038 7.81607 19.7407 8.37868 19.1781C8.94129 18.6155 9.70435 18.2994 10.5 18.2994ZM22.5 18.2994C23.0933 18.2994 23.6734 18.4754 24.1667 18.805C24.6601 19.1347 25.0446 19.6032 25.2716 20.1514C25.4987 20.6995 25.5581 21.3027 25.4424 21.8847C25.3266 22.4666 25.0409 23.0012 24.6213 23.4207C24.2018 23.8403 23.6672 24.126 23.0853 24.2418C22.5033 24.3575 21.9001 24.2981 21.3519 24.0711C20.8038 23.844 20.3352 23.4595 20.0056 22.9661C19.6759 22.4728 19.5 21.8928 19.5 21.2994C19.5 20.5038 19.8161 19.7407 20.3787 19.1781C20.9413 18.6155 21.7044 18.2994 22.5 18.2994Z" fill="#3AC4A0"/>
</svg>
