<svg width="656" height="619" viewBox="0 0 656 619" fill="none" xmlns="http://www.w3.org/2000/svg" xmlns:xlink="http://www.w3.org/1999/xlink">
<g filter="url(#filter0_d_19476_38078)">
<g id="Repeat group 1_inner" data-figma-trr="r6u2.5-0f">
<path d="M123.552 154.013C123.704 154.003 123.998 154.239 124.288 154.461C124.489 154.614 124.688 154.76 124.84 154.814C124.542 155.11 124.23 155.169 123.96 155.104C123.31 154.946 122.896 154.057 123.552 154.013ZM223.736 102.913C223.123 102.834 222.509 102.755 221.895 102.679C222.876 103.797 224.529 104.891 225.34 106.023C225.471 106.209 224.396 106.571 224.761 106.947C225.126 107.323 225.93 106.248 226.597 106.642C226.883 106.812 227.401 107.4 227.983 108.109C228.921 109.25 230.018 110.704 230.638 111.247C234.342 114.469 238.724 117.528 241.804 121.275C237.487 118.503 240.474 122.758 241.729 123.385C241.926 123.48 242.808 122.645 244.331 123.386C244.331 123.386 244.331 123.386 244.331 123.386C244.878 123.589 245.498 124.041 246.025 124.787C247.012 126.209 243.499 127.862 246.66 128.245C246.86 125.123 247.964 126.345 249.559 127.538C249.737 127.671 250.671 128.66 251.592 129.444C251.973 129.77 252.349 130.062 252.648 130.241C252.998 130.451 254.26 129.757 254.714 130.038C255.027 130.232 254.846 130.977 255.326 131.265C257.078 132.323 258.845 133.392 260.617 134.581C261.098 134.904 261.578 135.234 262.06 135.575C258.955 137.636 262.449 137.46 262.489 137.657C262.624 138.787 259.848 137.479 260.607 138.577C262.123 139.34 263.674 140.083 265.258 140.804C264.205 139.782 268.219 139.182 268.266 140.42C268.601 139.585 269.262 139.791 270.089 140.47C271.951 142.036 274.964 146.104 276.099 145.827C276.435 145.737 275.366 143.712 278.907 145.921C279.294 146.16 278.799 146.922 279.049 146.934C279.15 146.939 280.013 145.914 280.648 145.761C280.964 145.685 281.225 145.826 281.316 146.422C281.426 147.073 278.713 148.037 283.422 149.043C282.664 145.702 290.119 149.841 291.466 150.981C291.286 150.513 291.107 150.046 290.931 149.578C291.37 150.146 291.729 150.373 292.02 150.445C292.49 150.561 292.782 150.275 292.979 150.372C294.26 151.012 295.859 152.54 297.163 152.829C298.657 153.16 299.098 151.419 300.613 152.573C300.31 152.076 300.017 151.581 299.736 151.089C300.844 151.505 302.016 151.929 303.309 152.374C299.728 153.868 303.899 152.655 304.202 152.675C304.551 152.692 304.045 153.24 304.263 153.459C304.304 153.503 304.374 153.533 304.483 153.539C304.536 153.532 304.733 152.638 305.583 152.747C307.135 152.912 306.672 153.981 307.373 154.133C307.437 154.141 307.401 153.359 308.514 153.368C308.564 153.368 308.616 153.37 308.67 153.374C312.642 153.602 308.733 153.978 308.36 154.058C308.35 154.061 308.342 154.063 308.338 154.065C308.29 154.086 308.277 154.258 308.261 154.502C308.232 154.927 308.193 155.57 307.926 156.002C307.62 156.526 306.9 156.73 305.64 155.878C306.597 156.51 306.427 158.034 306.534 158.099C306.579 158.123 306.974 158.182 307.426 158.238C308.04 158.314 308.761 158.381 308.832 158.365C309.938 158.067 309.271 156.861 309.505 156.719C309.646 156.631 310.989 157.715 312.139 156.805C312.469 156.543 312.78 156.114 313.036 155.445C313.444 157.352 312.902 157.843 311.923 157.951C311.332 158.016 310.589 157.94 309.814 157.953C309.399 158.478 311.475 159.48 311.598 159.496C311.609 159.498 311.62 159.5 311.631 159.502C314.453 159.994 313.295 157.372 314.175 155.99C314.63 155.262 315.501 157.056 314.805 154.772C317.377 154.971 315.644 155.937 315.775 156.145C315.904 156.337 316.343 156.229 316.678 156.144C316.879 156.093 317.042 156.05 317.08 156.087C317.229 156.231 316.536 156.874 317.156 157.232C317.264 157.287 318.504 156.185 317.236 155.38C319.025 155.831 319.026 154.728 319.35 156.982C321.164 153.052 319.954 159.529 320.442 159.826C320.522 159.875 320.598 159.908 320.669 159.926C321.738 160.206 321.734 157.319 321.82 157.18C322.243 156.525 324.096 157.061 325.553 157.308C326.199 157.419 326.761 157.476 327.065 157.358C326.803 158.4 326.15 158.446 325.465 158.218C324.636 157.943 323.769 157.267 323.423 157.478C321.289 158.765 326.072 158.938 324.343 161.708C324.635 161.396 324.926 161.084 325.215 160.771C325.615 160.34 326.012 159.908 326.407 159.474C327.338 161.452 325.747 162.15 328.73 161.701C329.303 160.112 326.656 161.791 327.258 160.55C327.615 159.826 329.293 159.797 329.416 159.405C329.448 158.93 327.859 159.373 328.173 158.659C328.394 158.117 329.18 158.006 330.108 158.116C331.689 158.309 332.616 159.202 330.103 159.599C330.965 159.644 331.22 160.751 331.522 161.466C331.71 161.965 331.873 162.269 331.992 161.867C332.12 161.326 331.706 158.028 332.141 157.617C332.084 157.549 331.917 157.543 331.291 157.673C331.263 157.679 331.234 157.685 331.203 157.692C331.2 157.921 331.245 158.088 331.318 158.207C331.636 158.66 332.12 158.441 332.13 158.302C332.154 158.241 332.14 158.193 332.139 158.222C332.126 158.387 332.071 161.753 332.071 161.919C332.071 161.924 332.071 161.928 332.071 161.932C332.058 162.106 332.126 162.005 331.503 161.905C331.152 161.851 330.559 161.806 329.736 161.867C328.935 161.925 327.918 162.094 326.92 162.401C325.973 162.652 323.23 163.888 323.708 164.169C323.737 164.19 323.764 164.213 323.791 164.239C323.616 163.035 323.179 163.357 323.724 163.257C323.971 163.239 324.301 163.181 324.244 162.94C324.201 162.777 323.463 161.825 323.444 161.691C323.41 161.477 323.511 161.428 323.697 161.456C324.078 161.519 324.856 161.891 325.365 161.96C325.519 161.983 325.645 161.979 325.723 161.936C326.241 161.645 325.568 160.856 325.596 160.84C325.83 160.738 326.086 161.417 326.21 161.322C326.241 161.298 326.306 161.254 326.391 161.196C326.657 161.016 327.111 160.698 327.37 160.469C327.529 160.33 327.622 160.222 327.607 160.175C327.587 160.132 326.661 159.382 326.703 159.045C326.793 158.914 327.173 160.015 327.646 159.385C327.803 159.205 327.962 158.986 328.11 158.732C329.025 157.033 327.258 157.819 326.013 157.708C325.686 157.6 325.427 157.39 325.315 157.002C325.319 157.003 325.324 157.004 325.328 157.005C328.054 157.212 326.441 155.904 326.831 155.741C326.983 155.667 328.715 156.405 329.453 155.441C329.085 156.26 328.864 156.904 328.571 157.612C329.234 157.378 329.953 156.061 330.663 155.787C331.001 155.664 331.893 156.826 332.333 156.274C332.344 156.259 332.32 156.203 332.269 156.123C332.052 155.78 331.351 154.986 330.818 154.838C330.454 154.738 330.175 154.93 330.157 155.778C329.138 155.039 330.311 154.962 330.307 154.43C330.307 154.419 330.282 154.382 330.241 154.326C329.978 153.965 329.064 152.86 330.193 153.277C330.505 153.388 334.275 158.413 333.148 152.879C333.108 152.704 332.272 152.518 332.219 152.334C332.183 152.21 332.973 151.725 332.949 151.58C332.919 151.431 332.005 151.238 331.951 151.044C331.654 150.062 334.756 151.468 333.77 152.307C334.354 152.231 334.94 152.148 335.528 152.056C334.185 151.362 334.392 151.156 334.84 150.991C335.144 150.878 335.561 150.781 335.681 150.568C337.552 147.168 334.711 148.315 334.418 147.292C333.914 145.668 336.95 148.78 336.799 146.737C336.78 146.567 334.655 147.017 336.486 145.196C336.665 145.015 336.882 144.81 337.143 144.575C337.014 144.843 336.884 145.109 336.754 145.373C336.636 145.611 336.518 145.849 336.399 146.084C337.221 146.495 337.565 146.34 337.674 145.982C337.854 145.392 337.385 144.262 337.41 144.183C337.932 142.735 338.137 144.066 338.256 141.485C338.265 141.254 339.004 141.177 338.972 140.645C338.835 138.466 337.118 142.33 336.225 141.871C335.944 141.737 336.855 140.152 337.591 138.987C337.987 138.366 338.334 137.88 338.43 137.871C339.312 137.802 338.568 138.923 338.622 139.582C338.642 139.826 338.771 140.011 339.133 140.059C339.171 140.063 339.221 140.029 339.282 139.963C339.806 139.407 341.092 136.389 342.105 134.309C342.484 133.544 342.83 132.922 343.096 132.656C344.335 131.416 347.566 132.215 344.257 130.623C347.716 131.743 345.676 130.297 345.794 130.103C346.078 129.646 346.32 129.246 346.524 128.898C347.859 126.467 348.098 125.745 350.294 121.192C350.909 119.951 352.381 119.629 352.45 119.159C352.489 118.881 351.231 118.688 351.591 117.415C351.75 116.848 352.616 115.504 353.77 114.036C356.104 110.984 359.936 107.399 360.626 107.292C361.62 107.066 357.911 111.056 359.38 110.955C361.835 107.984 364.146 104.993 367.01 102.326C367.017 102.32 367.023 102.314 367.03 102.307C368.229 101.21 368.147 102.329 368.659 101.859C368.848 101.622 372.542 97.4804 372.214 97.4522C371.852 97.3851 369.155 99.5412 366.608 101.918C363.351 104.907 360.415 108.176 361.562 105.716C361.965 104.85 365.385 103.722 363.533 102.653C364.177 102.019 364.828 101.397 365.49 100.782C369.82 96.7627 374.468 93.2799 379.025 90.4193C383.586 87.5514 388.054 85.2789 392.219 83.435C394.456 82.4447 396.616 81.5729 398.692 80.7908C396.927 82.1124 394.891 83.2371 392.67 84.356C388.685 86.3598 384.015 88.4033 379.647 91.3405C379.214 91.6314 378.784 91.9305 378.36 92.2378C377.392 92.8986 373.959 95.2536 375.014 95.7906C376.675 94.5895 378.416 93.3416 380.187 92.1394C384.593 89.1349 389.147 86.4894 392.997 85.0237C393.331 84.8956 393.662 84.7751 393.987 84.6638C394.164 84.6041 393.959 85.7532 394.65 85.5889C395.95 85.256 399.027 82.2234 399.772 82.3544C399.91 82.3912 398.347 84.4267 399.291 84.8844C401.675 86.074 400.319 81.7529 401.699 81.2458C402.067 81.1123 403.219 80.9353 404.588 80.7168C407.199 80.2921 410.472 79.7934 411.219 78.5768C412.458 76.5719 406.191 79.4603 406.246 78.1853C408.627 76.5209 411.511 75.7109 413.738 75.1963C415.146 74.8761 416.547 74.5773 417.845 74.074C417.902 74.0505 417.092 73.3311 417.79 72.9551C419.008 72.2999 419.781 73.448 420.485 73.4351C421.236 73.4202 423.634 72.4081 424.127 72.7567C424.189 72.803 424.11 74.2274 424.047 74.2882C423.146 75.168 422.22 73.6666 422.115 73.6787C421.73 73.7401 421.584 74.4845 421.242 74.5591C420.678 74.681 420.183 74.2053 419.455 74.3956C418.952 74.5245 419.8 75.4722 419.311 75.5816C419.128 75.6181 416.414 73.7177 417.117 76.3588C417.235 77.0944 428.696 74.1467 433.303 72.4895C434.089 72.2026 434.645 71.9574 434.86 71.7807C434.28 71.8359 433.703 71.8914 433.127 71.9471C432.194 72.0372 431.267 72.1278 430.345 72.2185C431.26 72.1672 432.149 71.8479 432.983 71.504C434.942 70.6944 436.605 69.7489 437.462 71.8509C442.712 70.3201 448.159 68.8178 453.836 67.4348C459.897 65.9594 466.23 64.6168 472.854 63.5603C474.86 63.4449 474.477 65.0907 476.641 64.7905C477 64.742 477.431 64.6411 477.958 64.4734C477.466 64.2463 476.973 64.0213 476.481 63.7977C475.888 63.5282 475.293 63.2613 474.697 62.9969C475.059 63.0194 475.637 63.0203 476.353 63.007C479.619 62.9117 485.885 62.7057 487.068 62.2637C487.254 62.192 487.321 60.2882 489.618 59.9294C491.664 59.6215 492.099 61.0072 493.211 61.2051C494.146 61.3694 495.17 60.9506 495.451 61.0155C495.666 61.0678 495.789 61.9216 496.303 62.0499C497.923 62.4517 496.543 60.0801 498.228 62.8046C497.844 62.9215 497.46 63.0399 497.079 63.1598C499.029 63.4877 501.666 64.7169 498.86 65.391C498.38 65.5108 498.773 64.6691 498.412 64.6803C484.473 65.5996 495.606 66.4337 500.533 65.1162C500.694 65.2674 500.945 65.3868 501.262 65.4818C503.474 66.1108 509.048 65.7463 509.264 65.9963C509.577 66.3645 508.303 67.2837 509.865 68.2164C510.169 68.3127 519.876 68.5736 516.234 69.8621C515.487 70.0975 510.955 69.3629 509.856 69.3757C512.224 72.0711 518.605 68.9925 519.347 69.2229C522.043 69.9776 513.784 70.7966 519.92 71.8886C524.634 72.8265 520.431 70.4292 522.384 69.9748C522.996 69.8357 524.825 70.6206 526.387 70.9875C527.668 71.2842 528.763 71.2882 528.933 70.181C530.871 70.3282 529.486 71.3762 529.698 71.5185C529.901 71.6334 533.746 71.7764 534.791 72.6183C534.916 72.7191 534.136 73.8485 534.256 73.99C534.498 74.2249 538.019 74.9588 538.182 74.9095C538.294 74.8631 537.795 73.533 538.211 73.3712C538.698 73.1701 541.974 74.4936 542.249 74.2598C542.679 73.8678 538.422 72.8514 539.484 71.8696C541.334 72.7545 544.685 73.0103 546.313 72.533C545.901 72.6877 544.027 72.0661 543.413 71.7549C544.307 70.0787 548.37 71.5796 546.475 72.4531C547.621 72.037 547.17 71.4244 547.926 70.9129C548.131 70.7864 549.379 71.2213 549.735 71.0185C549.792 70.9698 548.758 69.8236 549.147 69.5708C549.859 69.0929 553.617 70.7761 553.852 71.0902C554.522 71.9186 551.206 71.1893 550.666 71.8287C550.595 71.9208 552.586 74.4008 552.561 74.5467C552.142 75.9353 549.719 73.8013 549.551 75.1515C550.143 75.6875 550.729 76.2286 551.31 76.7749C548.179 76.8435 543.452 74.3973 541.683 75.4228C545.819 76.3139 549.88 78.0725 548.548 81.1924C547.991 82.5029 546.073 82.6257 546.003 82.9922C545.753 84.2827 548.487 83.8884 548.549 83.9968C548.941 85.1089 544.949 84.1236 544.645 84.4367C544.168 84.9101 544.594 87.8096 544.372 88.3282C544.279 88.4053 541.93 88.1324 542.295 89.3275C542.658 90.5228 544.467 91.2872 544.492 91.4137C544.605 92.0893 541.237 91.3105 541.023 91.6197C540.916 91.7635 542.199 93.4341 542.124 93.7456C542.047 94.0504 540.532 94.1822 539.691 94.9229C539.068 95.4702 539.918 96.4009 539.69 96.4371C539.549 96.4499 536.664 95.3691 536.482 95.4566C536.21 95.5632 536.588 96.6275 536.416 96.7999C536.173 97.0473 535.362 96.4303 535.375 96.7794C535.414 97.0275 537.867 101.153 537.496 101.897C536.974 103.16 534.55 98.8757 535.903 105.192C535.911 105.233 536.823 105.173 536.833 105.214C536.925 106.329 533.948 106.803 536.999 107.731C530.891 107.214 535.584 109.387 533.911 111.23C533.298 111.94 531.137 111.537 531.088 111.669C530.904 112.804 531.839 112.209 531.866 112.812C531.869 113.138 529.697 113.632 529.841 114.51C529.909 114.951 531.801 115.497 531.841 115.603C532.288 116.566 531.13 116.97 531.1 117.52C531.077 117.884 532.125 118.327 532.129 118.399C532.116 118.532 530.177 119.293 529.714 119.657C529.359 119.933 529.976 120.809 529.76 120.907C528.489 121.484 527.394 118.397 528.065 122.432C528.102 122.678 528.835 122.858 528.837 122.907C528.903 124.015 527.6 123.615 527.095 124.318C526.231 125.523 528.271 125.423 526.458 125.829C527.241 127.11 527.819 127.288 529.179 127.565C525.38 126.833 523.098 129.987 526.729 131.246C525.598 130.739 524.991 132.75 524.642 132.656C524.435 132.593 523.483 130.06 522.692 134.719C522.588 135.296 523.779 134.942 523.076 135.954C520.95 134.879 522.78 136.646 522.717 136.797C521.779 139.298 517.249 135.531 516.147 135.686C515.199 135.764 514.126 137.027 513.63 137.506C513.507 137.624 513.418 137.694 513.373 137.686C512.615 137.548 513.44 136.583 513.343 136.155C513.223 135.713 510.681 137.443 510.603 137.329C510.235 136.812 510.841 135.58 510.808 135.51C510.37 134.623 507.134 135.324 506.257 134.997C506.247 135.836 507.985 136.027 506.803 137.302C505.468 138.799 505.574 135.091 505.543 134.923C504.326 134.874 503.089 134.858 501.827 134.875C497.543 134.933 492.986 135.379 488.178 136.182C487.377 136.315 486.568 136.459 485.751 136.612C485.977 137.583 487.191 137.479 488.342 137.197C489.483 136.915 490.573 136.457 490.641 136.578C490.967 137.167 489.929 137.674 488.485 138.079C486.384 138.657 483.34 139.086 482.665 138.809C483.495 139.072 484.316 139.344 485.121 139.624C484.34 142.084 480.97 139.771 479.305 141.201C478.78 141.659 480.131 142.244 480.118 142.309C479.654 143.323 478.415 142.921 478.949 141.573C477.559 143.076 477.509 141.8 476.196 142.032C476.13 142.045 476.907 142.794 475.984 143.423C475.766 143.571 475.014 143.813 474.297 144.134C473.589 144.45 472.917 144.844 472.851 145.276C472.806 145.638 475.033 148.721 474.392 145.721C474.517 145.749 474.632 145.772 474.739 145.79C477.329 146.261 474.966 144.126 476.014 143.923C476.179 143.901 476.245 145.635 478.697 144.201C478.937 147.27 475.418 145.884 474.888 146.349C474.881 146.355 474.876 146.361 474.87 146.367C474.663 146.605 474.765 146.805 475.046 146.942C475.999 147.393 478.885 147.195 479.061 145.253C479.252 147.685 479.45 145.49 480.445 145.359C481.527 145.218 481.226 146.024 481.794 145.899C483.336 145.574 482.345 144.052 483.924 145.282C481.709 140.898 485.993 144.208 487.117 145.28C485.619 145.801 484.092 146.358 482.54 146.95C482.686 147.173 482.831 147.396 482.975 147.619C482.548 147.677 482.118 147.737 481.686 147.8C481.701 147.552 481.716 147.304 481.731 147.056C479.888 149.072 478.922 147.528 478.733 147.551C477.678 147.721 476.543 147.964 475.393 148.245C473.912 148.606 472.401 149.032 470.976 149.439C470.589 149.553 471.308 150.949 468.162 150.618C467.15 150.519 467.653 149.105 466.68 149.59C466.353 153.12 465.61 150.612 465.222 150.727C464.114 151.071 463.674 152.063 463.574 152.104C462.513 152.543 460.985 152.965 459.636 153.435C459.282 153.558 458.94 153.684 458.624 153.814C458.599 153.835 459.722 154.529 458.618 154.576C458.24 154.586 453.673 151.561 451.211 153.873C452.057 153.894 452.898 153.918 453.734 153.945C452.764 153.837 446.832 156.989 448.73 157.563C449.91 157.906 451.303 154.508 452.4 156.954C451.019 156.905 446.309 158.769 442.479 160.205C442.478 160.205 442.479 160.205 442.479 160.205C440.153 161.081 438.849 161.595 438.476 161.471C438.353 161.421 438.629 160.402 438.464 160.343C438.34 160.293 436.405 161.223 436.076 160.999C435.853 160.872 436.503 160.059 436.33 159.792C436.269 159.71 435.733 159.775 435.21 159.957C434.538 160.192 433.91 160.61 434.075 161.198C434.302 160.787 435.136 160.541 435.528 160.779C435.665 160.864 435.74 161.012 435.705 161.237C435.693 161.317 435.667 161.407 435.626 161.506C435.561 161.653 434.778 161.209 434.713 161.39C434.399 162.274 435.101 162.247 435.993 161.981C436.784 161.746 437.774 161.309 438.069 161.208C437.541 161.786 436.884 162.196 436.198 162.513C434.52 163.282 432.697 163.511 431.802 164.272C431.659 164.392 431.54 164.524 431.445 164.675C430.452 164.165 431.699 163.001 430.688 162.671C428.621 161.997 430.914 163.958 430.906 164.091C431.033 165.041 427.736 161.312 429.672 164.489C429.147 164.197 428.946 163.797 428.892 164.252C428.89 164.281 428.889 164.313 428.889 164.349C428.968 164.43 429.046 164.512 429.123 164.594C429.225 164.701 429.327 164.809 429.428 164.917C429.484 165.043 429.523 165.143 429.547 165.222C429.986 166.327 426.845 162.723 426.529 162.481C425.88 161.572 427.258 162.686 427.249 162.644C427.249 162.588 426.011 160.779 426.615 160.881C426.803 160.917 427.172 161.15 427.792 161.721C427.263 160.448 426.637 160.373 426.198 160.263C425.826 160.164 425.528 160.066 425.387 159.194C425.145 159.573 424.022 159.572 423.548 159.788C423.285 159.905 423.172 160.094 423.419 160.396C423.514 160.509 425.473 162.091 424.332 161.457C423.769 161.181 423.961 160.901 423.484 160.578C423.062 160.3 422.661 160.347 422.255 160.721C421.643 161.499 421.937 160.86 421.039 162.873C419.575 166.301 417.855 170.159 416.831 172.351C416.466 173.132 416.168 173.758 415.957 174.184C415.83 174.434 415.185 173.981 415.064 174.227C414.702 174.978 414.263 178.266 413.187 179.44C415.288 177.877 414.211 180.551 413.089 182.554C412.715 183.226 412.339 183.821 412.099 184.148C410.642 186.126 409.535 185.278 408.739 186.022C407.466 187.203 406.607 189.091 405.688 190.985C404.391 193.67 402.949 196.371 400.384 196.837C401.74 197.709 400.382 198.695 398.555 199.691C396.944 200.575 394.974 201.447 394.193 202.384C392.903 203.943 392.464 207.534 395.215 206.18C394.27 207.223 393.372 208.346 392.494 209.481C391.1 211.279 389.848 213.007 388.363 214.71C387.969 215.161 387.896 213.949 387.25 214.73C387.198 214.803 387.732 215.516 387.204 216.182C386.239 217.401 385.626 218.052 385.162 218.439C383.104 220.183 383.765 217.862 382.586 218.392C381.672 218.826 381.052 219.179 380.69 219.436C381.566 218.596 382.767 217.392 383.427 216.659C385.134 214.773 387.127 212.42 387.704 211.774C386.449 211.399 384.356 214.142 382.871 216.088C381.64 217.636 379.905 219.499 379.072 219.941C378.99 219.987 378.533 218.968 378.457 219.024C378.455 219.026 378.454 219.027 378.452 219.028C378.348 219.105 378.184 219.243 377.979 219.427C376.607 220.708 373.265 223.854 374.817 224.05C375.237 224.098 377.035 222.781 379.189 220.837C379.511 220.547 379.843 220.24 380.179 219.924C379.616 220.736 380.943 221.166 380.849 221.316C380.696 221.552 380.485 221.798 380.229 222.049C379.055 223.206 376.96 224.404 375.34 225.258C374.599 225.651 373.957 225.979 373.549 226.225C373.208 226.433 373.682 227.036 373.63 227.076C372.227 227.871 371.51 225.694 371.464 228.481C367.577 227.885 375.62 225.047 374.053 223.913C373.634 223.626 371.675 224.861 369.246 226.521C367.791 227.518 366.156 228.673 364.581 229.805C362.737 231.135 360.959 232.436 359.801 233.469C358.909 234.267 358.405 234.906 358.595 235.272C358.429 235.096 358.056 234.961 357.394 234.916C356.764 234.863 355.006 235.522 353.905 235.963C352.021 236.793 348.352 238.079 347.306 238.487C346.995 238.608 346.753 238.71 346.594 238.792C346.34 238.936 346.954 240.936 346.605 241.041C346.25 241.149 343.874 241.443 341.246 241.576C339.283 241.686 337.209 241.714 335.513 241.797C334.008 241.874 332.78 242.007 331.968 242.344C333.07 242.546 334.268 242.724 335.566 242.861C336.158 242.923 336.771 242.976 337.405 243.018C336.736 243.071 336.131 243.111 335.58 243.144C333.078 243.283 331.66 243.308 330.761 243.382C328.808 243.527 329.316 243.869 330.747 244.251C331.056 244.33 331.416 244.409 331.813 244.486C331.978 244.492 332.14 244.571 332.301 244.579C333.307 244.754 334.514 244.902 335.674 245.001C337.518 245.165 339.229 245.188 339.276 245.285C339.371 245.444 337.755 245.779 335.722 245.968C334.109 246.123 332.275 246.18 330.717 246.129C329.03 246.075 327.659 245.913 326.793 245.682C325.721 245.393 325.326 244.996 325.961 244.482C326.036 244.425 326.375 244.446 326.86 244.492C328.353 244.657 332.027 244.987 329.365 243.863C329.074 243.735 327.882 243.726 326.904 243.718C325.901 243.711 325.089 243.716 325.011 243.634C324.59 243.163 325.549 242.732 326.985 242.268C328.239 241.861 329.978 241.406 330.801 240.881C331.192 240.631 331.351 240.37 331.129 240.104C331.024 240.162 330.918 240.216 330.811 240.267C329.535 240.867 328.216 240.905 327.065 240.85C326.104 240.804 325.199 240.691 324.49 240.795C324.382 240.811 324.287 240.847 324.201 240.896C323.675 241.182 323.466 241.934 323.385 241.945C321.923 242.109 322.813 241.075 322.323 241.065C322.061 241.069 318.869 243.139 319.728 239.98C318.835 240.119 318.078 240.245 317.446 240.363C313.419 241.095 314.529 241.616 317.288 241.992C318.81 242.196 320.87 242.339 322.826 242.428C321.391 243.182 318.99 242.904 317.215 242.734C316.557 242.672 315.968 242.624 315.519 242.651C314.915 242.686 315.155 243.793 314.125 243.898C313.44 243.967 311.955 243.77 310.172 243.426C308.029 243.014 305.455 242.383 303.324 241.807C301.734 241.378 300.39 240.985 299.652 240.771C301.314 240.67 301.036 239.436 299.8 239.306C298.559 239.171 299.32 240.891 299.052 241.014C298.925 241.07 297.753 240.763 296.396 240.386C294.671 239.911 292.649 239.31 292.084 239.305C296.576 239.638 295.794 238.299 292.142 237.421C292.745 237.205 293.344 236.986 293.941 236.764C292.921 236.777 291.502 236.222 290.138 235.622C288.495 234.902 286.97 234.125 286.158 234.223C285.932 234.255 286.435 235.388 286.309 235.407C285.594 235.477 284.107 234.881 283.1 234.436C283.1 234.436 283.1 234.436 283.1 234.436C282.349 234.103 281.717 233.825 281.613 233.948C281.414 234.184 282.604 235.35 281.982 235.604C281.852 235.658 280.843 234.02 279.37 233.953C278.823 233.927 278.89 234.908 278.746 234.924C277.529 235.05 278.603 233.73 276.499 233.396C274.961 233.149 273.375 234.281 271.525 233.194C277.707 237.049 272.213 234.607 269.304 234.317C268.832 234.267 268.714 236.005 266.288 234.373C271.422 233.498 267.862 232.761 265.358 232.211C264.65 232.055 264.023 231.915 263.698 231.799C263.62 231.762 263.942 230.699 263.225 230.439C263.164 230.42 263.013 231.162 262.32 230.988C255.747 229.289 260.116 229.902 259.15 228.783C258.741 228.31 255.288 228.188 254.44 227.892C254.247 227.823 254.608 227.125 253.858 226.876C252.532 226.435 251.057 226.753 250.167 226.474C250.067 226.438 250.489 225.352 248.863 225.036C248.82 225.027 248.776 225.02 248.73 225.012C248.229 224.931 247.547 225.127 248.07 225.72C248.182 225.847 248.309 225.964 248.447 226.074C250.441 227.665 254.801 227.518 256.727 229.364C258.624 231.19 251.471 228.671 251.1 228.502C250.964 228.454 252.57 228.416 251.205 227.761C250.499 227.423 249.132 227.701 247.793 227.706C246.923 227.709 246.068 227.598 245.429 227.138C245.302 227.05 244.565 224.79 244.674 224.721C244.764 224.679 247.1 225.22 246.979 224.604C246.964 224.535 245.574 223.974 245.543 223.539C245.501 223.009 246.71 218.484 246.471 218.256C245.842 217.677 245.91 218.856 245.459 218.583C244.481 218.008 241.492 215.179 240.715 216.584C241.264 216.938 241.814 217.289 242.365 217.637C239.018 216.32 240.131 217.564 239.541 217.631C238.903 217.697 239.632 216.478 238.586 215.847C238.393 215.739 234.985 214.353 233.826 214.243C233.613 214.224 233.476 214.251 233.448 214.34C233.556 214.355 233.658 214.371 233.754 214.388C236.287 214.816 234.708 215.848 234.808 215.932C235.209 216.252 236.205 215.642 236.796 215.944C240.966 218.06 236.04 217.472 236.87 218.297C237.161 218.581 238.204 218.142 238.332 218.248C238.751 218.593 238.304 219.593 238.661 219.658C239.493 219.811 239.263 218.003 239.357 217.957C240.417 217.38 242.525 219.638 240.216 220.456C240.95 221.449 241.892 219.623 242.337 220.713C243.236 222.874 241.082 221.485 240.344 221.447C237.688 221.321 237.34 220.308 234.04 219.038C233.324 218.758 232.388 218.731 231.633 218.703C231.135 218.685 230.716 218.667 230.494 218.581C230.125 218.445 228.571 213.764 225.976 218.518C224.965 217.404 224.729 213.226 223.413 212.686C222.22 212.198 221.643 214.069 221.502 214.077C221.283 214.09 219.988 213.19 219.392 213.16C218.691 213.128 218.599 213.92 217.584 213.68C215.055 213.065 216.113 211.402 215.96 211.166C215.512 210.47 215.158 210.137 214.867 210.029C213.995 209.704 213.677 211.391 213.165 211.275C212.509 211.174 205.756 205.553 203.851 205.009C204.697 205.119 205.542 205.222 206.382 205.318C205.962 203.56 203.658 204.38 204.891 202.569C202.64 205.317 201.708 201.755 200.989 201.333C200.699 201.167 200.364 201.668 200.012 201.442C199.492 201.108 198.785 200.527 198.065 199.912C196.883 198.906 195.659 197.798 195.107 197.6C192.559 196.669 194.475 199.845 196.313 202.219C197.247 203.435 198.146 204.442 198.333 204.635C197.939 204.331 196.899 203.653 195.741 202.971C193.257 201.517 190.194 199.98 191.708 202.675C192.057 203.287 193.933 202.741 194.253 202.908C194.981 203.296 195.2 203.547 195.172 203.721C195.161 203.788 195.113 203.844 195.043 203.891C194.753 204.086 194.083 204.131 194.121 204.251C194.156 204.354 194.345 204.42 194.604 204.468C195.278 204.596 196.421 204.6 196.594 204.875C196.677 205 195.177 205.494 197.032 206.892C196.35 207.031 195.147 206.308 193.92 205.369C192.175 204.039 190.39 202.255 189.886 202.066C189.585 201.939 189.413 205.287 186.616 199.6C186.509 199.833 186.402 200.066 186.295 200.298C183.672 198.224 180.817 195.795 178.602 193.821C179.233 193.637 181.273 193.99 179.539 192.684C178.569 191.95 178.333 193.479 178.229 193.43C178.069 193.352 177.599 192.952 176.954 192.352C174.077 189.657 167.494 183.127 165.71 181.733C165.341 181.436 164.43 181.05 163.662 180.751C163.033 180.507 162.5 180.319 162.433 180.272C161.557 179.628 159.114 176.655 158.444 176.289C158.026 176.058 157.685 177.155 157.397 176.849C157.131 176.564 158.097 176.037 158.036 175.93C157.571 175.062 151.993 171.98 150.637 170.186C150.535 170.049 150.457 169.918 150.405 169.793C150.469 169.879 150.58 169.972 150.729 170.068C152.046 170.907 156.39 172.194 156.733 171.647C156.779 171.555 156.276 170.145 155.832 170.277C156.045 169.31 153.205 170.498 152.907 169.593C152.872 169.49 154.091 168.518 153.127 167.419C153.076 167.362 152.994 167.317 152.889 167.276C152.3 167.039 151.024 166.918 150.827 165.363C148.982 164.674 142.209 157.546 140.755 158.621C140.693 158.682 141.489 159.88 140.375 159.943C138.898 160.034 141.432 158.12 140.405 157.143C140.389 157.128 140.339 157.095 140.263 157.049C139.586 156.627 136.812 155.202 136.631 155.294C134.782 156.126 137.233 158.434 137.084 158.582C136.723 158.927 134.256 157.752 134.223 157.604C134.19 157.442 137.252 156.702 134.525 156.035C134.651 156.42 134.775 156.805 134.897 157.19C133.562 156.986 134.248 155.61 134.034 155.372C133.362 154.629 131.336 156.149 131.454 152.904C131.48 152.041 132.475 151.624 132.489 151.501C132.568 150.362 130.695 152.474 131.054 150.326C131.076 150.166 133.166 149.897 130.555 148.477C130.642 148.747 130.728 149.017 130.813 149.288C130.32 149.443 128.247 148.623 127.461 148.229C127.326 148.16 127.229 148.102 127.184 148.062C126.286 147.27 127.825 146.458 126.699 146.087C126.501 148.143 123.25 146.847 124.136 145.432C122.804 147.114 120.8 144.424 119.531 143.845C118.732 143.47 116.754 143.657 116.541 143.462C116.279 143.217 116.899 141.923 116.444 141.404C116.352 141.301 115.321 141.428 114.377 140.868C113.967 140.626 113.573 140.253 113.27 139.672C113.08 139.302 113.251 136.793 114.003 136.413C114.669 136.079 115.299 136.578 115.811 136.96C116.294 137.319 116.672 137.572 116.907 136.916C117.117 136.326 116.78 135.965 116.265 135.72C115.519 135.364 114.417 135.263 114.065 135.017C111.306 133.109 113.57 132.154 113.658 131.659C113.831 130.448 112.086 129.926 112.045 129.804C111.885 129.251 113.407 128.736 113.653 128.048C113.978 127.148 112.764 124.964 113.249 124.78C113.959 124.519 115.113 126.4 115.229 126.368C116.833 125.928 115.732 123.237 115.538 122.043C115.485 121.676 116.272 121.355 116.174 121.221C114.646 119.178 114.819 124.034 113.617 123.337C112.542 122.721 114.455 121.794 114.439 121.708C114.407 121.604 113.036 121.102 112.961 120.548C112.904 120.249 117.43 118.713 117.687 117.484C116.407 117.358 115.121 117.249 113.85 117.163C114.224 115.554 115.606 117.237 115.831 117.134C116.294 116.921 115.534 115.813 115.727 115.329C115.844 115.018 117.399 114.264 116.454 113.461C116.122 113.184 115.018 114.05 113.974 112.523C119.184 112.501 116.154 110.631 116.16 110.023C116.178 109.419 118.927 108.81 116.002 108.191C116.775 105.081 116.349 107.236 117.327 106.941C118.534 106.587 116.507 104.853 119.966 106.765C120.216 105.261 117.18 104.447 117.053 104.295C116.945 104.15 117.824 103.64 117.655 103.33C115.596 99.7205 117.196 101.558 116.865 99.5395C116.839 99.3546 114.246 97.9397 116.429 98.255C120.439 98.8643 121.363 101.425 123.4 97.2999C121.101 94.4782 116.723 96.3046 115.861 96.1329C114.494 95.8442 116.128 95.3189 116.031 95.0247C115.995 94.9269 114.803 94.6936 114.805 94.6195C114.842 91.0283 120.069 95.9581 122.08 95.9963C121.724 95.3433 121.369 94.6931 121.004 94.0429C121.705 94.2302 122.405 94.4225 123.106 94.6203C120.102 92.6077 123.092 94.1931 124.783 91.7942C125.165 91.2535 122.616 91.5807 125.681 90.7153C123.931 89.7348 124.689 89.3719 122.755 89.6085C123.112 88.5304 127.367 88.5246 129.078 88.5133C124.051 85.5391 125.909 90.4557 121.865 86.9563C120.609 88.0404 122.917 88.4315 122.667 88.6009C121.794 89.2023 120.601 87.4818 118.006 89.7795C117.589 90.1598 118.45 91.9053 116.627 91.3439C116.429 91.2797 115.559 89.7634 115.595 89.6802C115.995 88.7701 117.085 89.433 117.237 89.0517C117.383 88.6884 116.002 88.5695 116.024 88.466C116.287 87.2659 117.248 88.2982 117.177 87.8835C117.05 86.9838 112.82 83.1775 118.975 85.5657C113.371 85.5451 117.969 86.6744 120.123 86.7324C120.677 86.7489 121.007 86.0801 121.819 86.0487C122.865 86.0066 123.875 86.6779 124.402 86.6992C124.98 86.7246 122.464 84.1302 126.68 85.9819C124.971 83.6155 120.48 84.2252 118.582 82.4913C114.647 78.952 122.51 80.4294 123.383 80.4866C123.616 80.4868 123.168 79.3285 123.327 79.3113C123.6 79.2749 127.843 81.0314 128.52 80.4064C129.2 79.7622 126.903 79.9348 127.017 79.081C127.092 78.4808 132.737 79.2397 129.972 77.9301C128.037 77.008 123.702 78.1418 123.746 75.5859C126.788 76.2302 129.815 76.9555 132.818 77.7575C131.51 76.3168 130.177 74.8925 128.798 73.48C132.188 74.2224 134.678 76.1212 138.123 76.1227C138.225 76.123 138.327 76.1216 138.431 76.1186C138.351 76.05 138.274 75.9829 138.199 75.9173C134.383 72.6324 136.664 72.9573 139.036 73.635C140.469 74.0477 141.902 74.599 141.992 74.487C142.088 74.3357 140.775 72.1572 140.019 70.9534C139.819 70.6314 139.662 70.3786 139.59 70.2515C139.791 70.2584 140.015 70.2763 140.258 70.3028C143.709 70.6338 150.821 72.947 147.374 68.4759C148.001 69.4607 150.778 68.7859 150.804 68.6613C151.059 67.2946 146.006 66.194 147.218 65.3848C148.64 64.4361 149.193 66.7104 150.613 67.1369C157.876 69.396 158.891 62.1763 165.455 66.5368C165.427 66.2452 165.397 65.9536 165.367 65.6618C166.448 66.2538 167.522 66.8543 168.587 67.4612C174.851 71.0309 180.843 74.8482 186.567 78.8368C187.612 78.8053 188.961 79.0423 190.431 79.4646C194.362 80.5816 199.11 83.0608 201.442 84.9445C202.105 85.4617 204.716 88.7478 204.833 89.0881C205.062 89.7224 202.487 88.0105 203.195 89.4057C203.372 89.6878 208.471 94.1171 208.801 92.8871C208.288 92.3152 206.037 91.365 205.893 90.909C205.511 89.6644 207.621 90.9221 210.368 92.9872C214.811 96.2918 220.672 101.727 221.451 101.749C221.357 101.162 221.261 100.574 221.163 99.986C222.029 100.96 222.887 101.936 223.736 102.913ZM128.029 152.514C127.036 153.334 126.366 151.987 125.57 151.942C125.565 151.942 125.561 151.942 125.556 151.942C124.433 151.895 120.92 155.32 123.597 151.478C124.256 151.618 124.918 151.765 125.582 151.919C126.395 152.107 127.211 152.306 128.029 152.514ZM146.153 166.07C145.661 164.918 147.852 163.312 147.943 164.71C147.953 164.869 146.815 167.627 146.153 166.07ZM137.696 158.815C137.751 158.808 138.472 159.351 138.477 159.403C138.59 160.708 136.433 159.075 137.696 158.815ZM184.913 196.503C183.205 195.138 182.811 197.938 184.498 198.126C184.602 198.136 185.023 196.593 184.913 196.503ZM183.796 195.429C183.948 192.751 178.768 193.74 180.902 195.138C181.104 195.272 183.779 195.556 183.796 195.429ZM143.643 163.021C144.203 162.427 144.885 163.381 145.158 163.813C144.721 164.404 144.073 163.209 143.643 163.021ZM166.56 181.125C166.816 180.883 165.97 179.926 165.032 179.204C164.274 178.62 163.458 178.19 163.118 178.389C163.427 178.458 164.026 179.034 164.642 179.645C165.467 180.464 166.321 181.349 166.56 181.125ZM175.057 187.8C175.051 187.641 173.871 186.747 173.518 187.185C173.523 188.2 175.069 188.497 175.057 187.8ZM198.863 208.114C199.042 208.063 199.769 204.232 201.58 208.366C201.853 208.975 199.65 208.572 199.741 208.79C199.946 209.239 200.157 209.527 200.367 209.699C198.708 208.906 197.076 207.893 197.056 207.611C196.957 206.28 198.783 208.135 198.863 208.114ZM214.291 214.983C214.895 214.67 216.706 216.086 217.038 216.547C217.094 216.631 215.996 217.762 216.949 218.174C217.714 218.498 217.413 216.534 218.684 217.537C219.973 218.545 217.543 218.464 217.625 218.599C217.741 218.789 220.274 219.39 219.769 220.145C219.395 220.713 217.253 219.004 216.603 218.793C215.766 218.528 216.116 220.021 214.984 219.094C214.273 218.51 215.698 217.055 215.582 216.873C215.486 216.732 212.191 216.102 214.292 214.991C214.292 214.989 214.292 214.986 214.291 214.983ZM200.821 209.908C200.67 209.885 200.518 209.823 200.367 209.699C200.518 209.771 200.671 209.84 200.821 209.908ZM131.001 153.15C131.161 153.936 129.424 153.858 129.291 152.882C129.589 152.309 130.974 153.023 131.001 153.15ZM203.111 209.531C205.041 211.424 203.044 210.918 200.821 209.908C201.659 210.035 202.464 208.89 203.111 209.531ZM155.832 170.277C155.796 170.437 155.688 170.645 155.457 170.942C155.568 170.502 155.693 170.319 155.832 170.277ZM158.508 173.332C160.307 173.333 158.112 171.571 157.605 172.222C157.415 172.466 158.437 173.33 158.508 173.332ZM186.943 198.408C186.856 198.182 191.608 197.685 186.261 196.532C187.979 198.553 185.641 197.039 185.465 197.284C185.021 198.073 188.806 200.184 189.245 201.008C190.774 200.249 187.262 199.179 186.948 198.412C186.946 198.41 186.945 198.409 186.943 198.408ZM239.527 228.752C238.706 229.394 237.373 228.488 236.419 227.999C237.25 227.371 238.571 228.28 239.527 228.752ZM457.724 155.178C452.613 157.766 450.689 154.489 456.132 154.222C456.24 154.219 457.931 154.712 457.724 155.178ZM428.794 165.117C428.184 164.519 427.843 164.185 427.745 164.053C427.655 163.935 427.756 163.989 427.99 164.207C428.11 164.301 429.204 165.529 429.41 165.776C428.39 164.621 427.805 164.078 428.207 164.523C428.321 164.645 428.512 164.84 428.794 165.117ZM204.935 209.507C206.174 209.037 207.715 210.969 208.675 211.767C207.559 212.119 205.662 210.406 204.935 209.507ZM439.169 159.399C438.661 159.448 438.842 160.883 438.957 160.967C439.467 161.357 439.964 159.972 439.169 159.399ZM198.713 204.959C199.008 204.381 201.933 205.714 201.196 207.141C200.709 206.665 198.536 205.337 198.713 204.959ZM237.885 227.501C237.602 227.017 239.998 227.431 240.521 228.009C240.197 228.622 238.071 227.821 237.885 227.501ZM432.886 162.335C432.541 162.349 431.871 162.614 432.052 163.161C432.258 163.849 433.083 163.206 432.886 162.335ZM510.993 143.459C510.978 143.713 509.576 145.37 509.14 144.848C508.266 143.832 510.976 143.254 510.993 143.459ZM444.201 156.91C446.334 157.605 444.027 157.014 444.555 158.328C445.724 157.986 448.568 157.095 446.179 156.437C445.714 156.31 444.766 156.815 444.201 156.91ZM442.476 156.995C442.44 157.491 441.672 159.276 442.703 158.818C443.179 158.604 443.456 156.815 442.476 156.995ZM503.422 143.445C502.518 142.152 506.785 142.971 506.832 143.24C506.886 143.361 506.918 143.473 506.933 143.567C507.114 143.181 507.891 143.179 507.876 144.188C507.661 144.082 507.037 144.117 506.973 144.001C506.946 143.951 506.926 143.905 506.914 143.859C506.604 144.683 503.637 143.664 503.422 143.445ZM495.777 142.466C496.842 140.516 497.296 143.639 497.198 143.746C496.02 145.13 496.664 142.755 496.619 142.649C496.512 142.475 495.676 143.629 495.781 142.465C495.78 142.466 495.778 142.466 495.777 142.466ZM501.944 142.922C501.991 142.879 502.912 142.977 502.947 143.028C503.473 143.794 502.298 143.854 501.898 143.508C501.756 143.383 501.714 143.204 501.893 142.98C501.909 142.961 501.926 142.942 501.944 142.922ZM225.94 218.934C226.999 219.833 225.288 220.252 224.677 219.462C224.63 219.39 225.009 218.139 225.94 218.934ZM441.736 157.574C441.714 157.566 441.663 157.564 441.587 157.569C440.382 157.679 436.203 158.528 437.022 159.973C437.278 159.699 440.574 159.058 441.809 158.224C442.144 157.984 442.184 157.76 441.736 157.574ZM426.657 164.194C426.695 164.17 428.158 164.903 427.536 164.76C427.307 164.704 426.645 164.207 426.657 164.194ZM196.167 201.191C194.366 200.945 196.486 198.75 196.921 200.396C196.939 200.461 196.238 201.201 196.167 201.191ZM427.763 164.255C428.471 164.979 424.235 161.902 425.962 162.577C426.127 162.741 426.294 162.903 426.462 163.064C427.276 163.339 426.745 163.293 426.926 163.538C426.993 163.631 427.681 164.166 427.768 164.258C427.766 164.257 427.765 164.256 427.763 164.255ZM424.553 168.41C420.575 170.436 422.906 166.931 424.39 164.4C424.771 163.84 425.002 163.581 424.945 163.418C425.465 163.886 425.521 164.516 425.643 164.971C425.664 165.512 425.814 165.716 426.405 165.319C426.651 165.238 426.982 165.072 427.365 164.962C427.298 165.164 427.195 165.405 427.089 165.631C425.443 169.138 425.166 166.869 424.988 166.999C424.743 167.201 424.785 168.292 424.553 168.41ZM426.673 163.947C426.623 163.893 426.931 163.977 427.112 164.031C427.206 164.057 427.268 164.072 427.243 164.035C427.477 164.22 427.603 164.334 427.65 164.399C427.814 164.592 427.077 164.361 426.673 163.947ZM487.022 144.563C486.941 143.571 487.069 142.802 488.09 143C487.88 143.542 487.345 144.072 487.022 144.563ZM129.618 147.453C129.228 147.195 128.627 146.681 128.24 146.699C128.045 146.707 127.906 146.85 127.874 147.225C127.874 147.238 127.898 147.26 127.941 147.287C128.232 147.467 129.378 147.901 129.618 147.453ZM429.636 161.468C429.409 161.428 427.934 162.181 428.986 162.84C429.193 163.079 430.674 162.141 429.636 161.468ZM447.995 154.736C447.603 154.858 446.064 155.577 446.104 155.811C446.258 156.615 448.076 155.528 447.995 154.736ZM126.941 144.956C126.904 144.818 124.913 144.064 124.919 144.603C124.924 145.607 127.062 145.408 126.941 144.956ZM231.341 219.062C231.373 219.073 231.399 219.099 231.42 219.136C231.575 219.409 231.475 220.289 231.547 220.336C231.744 220.466 236.535 222.271 234.183 222.689C233.988 222.724 232.306 221.854 230.57 220.867C228.799 219.864 226.975 218.736 226.572 218.449C226.918 216.968 229.095 219.663 229.859 219.864C229.993 219.899 230.621 218.831 231.336 219.067C231.337 219.066 231.339 219.064 231.341 219.062ZM491.737 142.743C491.746 141.775 495.134 140.752 495.188 141.909C494.054 142.162 492.906 142.44 491.737 142.743ZM489.932 142.85C489.068 142.311 490.822 141.815 491.375 142.039C491.469 142.662 490.061 142.925 489.932 142.85ZM438.149 154.374C437.819 154.731 439.512 155.596 439.322 155.944C439.183 156.167 438.131 155.989 438.019 156.484C437.985 156.64 439.267 157.556 439.526 157.408C439.883 157.206 439.182 156.375 439.601 156.223C440.052 156.061 440.532 155.971 441.025 155.907C441.026 155.907 441.025 155.907 441.026 155.907C442.129 155.752 443.228 155.727 444.253 155.368C444.388 155.318 443.097 154.999 444.267 154.613C444.447 154.552 445.872 155.195 447.201 154.578C449.181 150.419 452.405 152.75 455.723 150.397C455.492 150.144 452.447 150.277 452.267 150.307C449.172 150.798 443.792 152.544 440.285 153.716C440.094 153.78 439.911 153.841 439.738 153.9C438.936 154.17 439.551 154.699 439.221 154.84C438.969 154.947 438.848 153.618 438.149 154.374ZM130.28 146.992C130.547 145.855 129.491 145.846 128.799 145.602C128.698 145.566 128.605 145.525 128.524 145.475C128.46 145.73 128.483 145.917 128.565 146.06C128.854 146.566 129.877 146.526 130.28 146.992ZM472.544 145.703C472.163 145.859 470.815 145.835 470.817 146.24C470.828 146.764 472.698 146.57 472.544 145.703ZM257.263 230.398C257.326 230.384 258.586 230.906 258.621 230.96C259.426 232.349 255.635 230.773 257.263 230.398ZM288.571 239.896C288.773 239.912 288.977 239.919 289.176 239.928C290.065 239.966 290.857 240.02 290.971 240.921C290.573 240.735 289.646 240.653 289.059 240.452C288.694 240.328 288.461 240.159 288.571 239.896ZM340.352 244.831C340.153 244.432 340.684 244.163 341.589 243.948C343.359 243.553 346.824 243.169 348.474 242.846C348.712 242.804 348.909 242.767 349.05 242.739C348.998 242.835 348.82 242.967 348.548 243.121C347.205 243.912 343.654 245.011 341.754 245.093C340.997 245.14 340.472 245.062 340.352 244.831ZM486.097 140.346C487.333 140.204 486.716 138.201 487.655 138.995C487.81 139.131 488.931 143.334 487.347 141.961C487.053 141.718 487.822 140.531 486.097 140.346ZM426.038 162.558C425.51 162.033 425.608 161.995 425.722 161.997C425.747 161.997 425.774 161.999 425.794 161.998C425.928 162.145 426.001 162.248 426.04 162.321C426.134 162.496 426.029 162.5 426.038 162.558ZM123.92 142.375C123.917 140.952 121.045 140.74 121.327 141.79C121.367 141.922 123.592 142.166 123.92 142.375ZM211.617 208.899C213.69 209.008 210.683 206.753 209.149 206.918C209.634 207.163 211.475 208.893 211.617 208.899ZM323.454 244.191C323.481 244.179 323.696 244.197 323.963 244.227C324.427 244.281 325.284 244.394 325.351 244.431C326.28 245.095 324.69 245.163 323.91 244.975C323.247 244.829 322.745 244.522 323.454 244.191ZM278.437 235.608C279.043 235.153 281.188 235.928 282.496 236.746C283.03 237.069 283.491 237.412 283.703 237.704C283.395 237.938 282.822 237.972 282.198 237.887C282.198 237.887 282.198 237.887 282.198 237.887C280.424 237.665 277.66 236.204 278.437 235.608ZM481.079 141.982C481.977 141.736 482.883 141.803 483.768 141.988C483.746 142.702 481.301 142.463 481.079 141.982ZM331.813 244.486C331.978 244.492 332.14 244.571 332.301 244.579C332.133 244.55 331.97 244.516 331.813 244.486ZM459.305 147.603C458.36 147.617 458.933 148.781 458.999 148.801C459.772 148.987 460.371 147.589 459.305 147.603ZM130.394 144.902C130.56 144.267 130.158 144.044 129.676 143.879C129.285 143.744 128.843 143.647 128.602 143.389C128.481 143.904 128.879 144.263 129.354 144.511C129.723 144.703 130.139 144.829 130.394 144.902ZM420.234 171.878C418.47 172.626 419.786 166.658 421.039 165.832C421.815 166.044 420.487 171.801 420.234 171.878ZM207.82 204.358C208.226 203.544 205.441 202.966 205.657 203.631C205.795 204.062 207.568 204.87 207.82 204.358ZM422.682 163.539C422.572 163.108 423.614 163.033 424.024 163.433C424.563 163.912 422.723 163.637 422.682 163.539ZM432.716 155.511C432.5 155.441 431.166 156.998 432.216 157.567C432.933 157.967 432.525 156.719 432.64 156.668C432.701 156.645 433.444 156.711 433.93 156.643C434.384 156.581 434.582 156.402 433.654 155.931C433.417 155.811 433.108 155.673 432.716 155.511ZM401.191 201.345C401.733 200.058 403.028 198.991 403.831 197.832C403.963 198.627 402.141 201.344 401.191 201.345ZM216.414 209.523C216.398 209.424 216.076 209.15 215.609 208.805C213.835 207.509 209.969 205.088 212.735 207.904C212.854 208.022 214.121 209.028 215.144 209.573C215.901 209.979 216.516 210.135 216.414 209.523ZM486.097 140.346C485.941 140.365 485.754 140.356 485.529 140.307C485.743 140.303 485.933 140.33 486.097 140.346ZM471.401 143.688C471.537 142.963 469.913 143.236 469.539 143.711C469.621 144.525 471.385 143.786 471.401 143.688ZM403.146 197.207C403.311 196.333 404.481 195.375 405.008 194.531C405.426 195.018 403.862 197.292 403.146 197.207ZM354.323 237.936C354.452 237.9 354.575 237.865 354.691 237.832C356.428 237.451 359.142 235.944 358.667 235.368C358.758 235.454 358.906 235.521 359.114 235.558C359.225 235.578 359.83 235.202 360.494 234.816C361.065 234.486 361.677 234.149 362.119 234.044C363.817 233.63 362.866 234.481 360.896 235.6C359.474 236.43 356.485 237.784 354.877 238.274C354.877 238.274 354.877 238.274 354.877 238.274C348.873 240.284 345.713 240.69 354.25 236.783C354.659 236.51 355.205 236.172 355.964 235.721C355.429 236.405 354.971 237.043 354.608 237.634C354.52 237.732 354.425 237.833 354.323 237.936ZM273.379 232.319C272.87 231.218 270.385 231.656 270.837 232.171C271.156 232.531 273.889 233.433 273.379 232.319ZM304.777 238.897C304.689 238.818 304.268 238.816 303.782 238.869C303.039 238.95 302.139 239.158 302.057 239.439C302.491 239.693 303.089 239.816 303.633 239.826C304.623 239.844 305.43 239.489 304.777 238.897ZM267.788 229.473C267.351 229.189 266.283 230.392 266.319 230.472C266.644 231.144 268.348 230.514 267.788 229.473ZM482.729 136.958C482.125 136.648 480.672 138.054 480.524 139.088C480.415 138.92 480.179 138.721 479.778 138.51C479.779 138.51 479.78 138.51 479.781 138.509C479.507 138.349 475.507 139.071 473.151 139.837C471.346 140.417 470.597 140.921 473.414 140.824C473.866 140.81 474.408 140.784 475.05 140.745C475.356 140.729 474.741 139.982 475.966 139.83C476.047 139.821 476.26 140.503 476.508 140.477C477.087 140.402 480.095 140.147 480.535 139.468C480.569 139.596 480.634 139.711 480.739 139.806C481.662 140.648 483.187 137.194 482.729 136.958ZM309.263 239.4C308.845 239.079 307.38 239.132 307.142 239.733C307.814 240.143 310.235 240.15 309.263 239.4ZM217.52 207.173C217.399 206.969 217.183 206.789 216.922 206.64C215.982 206.104 214.452 205.954 214.733 206.603C214.841 206.853 215.672 207.264 216.413 207.48C217.181 207.705 217.849 207.723 217.52 207.173ZM294.769 237.356C295.753 237.695 296.412 237.907 296.84 238.028C298.167 238.401 297.258 237.909 296.962 237.376C296.85 237.173 296.826 236.964 297.046 236.796C296.291 236.987 295.532 237.174 294.769 237.356ZM498.537 137.21C498.029 137.025 498.519 135.171 499.117 136.134C499.301 136.44 498.817 137.31 498.537 137.21ZM518.64 138.778C518.749 137.119 520.2 138.56 519.196 139.41C519.155 139.435 518.649 138.844 518.64 138.778ZM505.052 135.93C504.691 137.018 504.494 137.138 503.607 136.848C504.935 136.57 503.736 135.562 505.052 135.93ZM358.595 235.272C358.626 235.306 358.651 235.33 358.667 235.368C358.636 235.338 358.613 235.307 358.595 235.272ZM263.073 228.219C262.757 227.13 261.017 226.599 261.221 227.662C261.241 227.762 262.599 228.787 263.073 228.219ZM480.524 139.088C480.62 139.238 480.613 139.35 480.535 139.468C480.503 139.348 480.503 139.228 480.524 139.088ZM272.576 230.467C272.304 231.115 274.883 232.163 275.034 232.118C276.93 231.414 273.64 230.751 272.576 230.467ZM201.702 195.319C201.531 195.281 201.258 197.326 202.18 197.135C202.889 196.983 202.332 195.453 201.702 195.319ZM508.079 135.672C508.562 135.714 509.241 135.784 509.269 136.646C508.969 136.479 508.018 136.293 508.079 135.672ZM518.293 137.459C517.49 138.27 516.331 137.964 515.595 137.628C515.885 136.331 517.724 137.606 518.293 137.459ZM484.458 137.115C484.403 137.068 482.814 136.984 483.196 137.81C483.755 139.015 484.967 137.504 484.458 137.115ZM204.893 198.856C206.112 198.981 205.214 196.043 203.459 196.533C202.547 196.784 204.682 198.839 204.893 198.856ZM258.107 225.182C256.706 225.218 259.438 227.177 260.173 226.451C259.633 226.183 258.601 225.17 258.107 225.182ZM301.436 235.935C297.752 232.591 299.151 237.766 299.978 237.479C300.096 237.438 301.53 236.015 301.436 235.935ZM119.661 134.787C119.16 134.987 120.036 136.774 120.54 136.029C120.859 135.561 119.986 134.66 119.661 134.787ZM380.69 219.436C380.518 219.601 380.347 219.765 380.179 219.924C380.28 219.777 380.443 219.614 380.69 219.436ZM248.419 217.588C249.652 222.165 250.481 219.361 250.7 219.47C250.79 219.514 250.89 219.598 251 219.707C251.484 220.189 252.165 221.16 252.99 221.335C252.121 221.314 251.251 221.289 250.378 221.258C250.003 221.244 249.628 221.23 249.253 221.215C249.385 221.32 249.707 221.538 250.151 221.823C252.241 223.185 257.114 225.919 257.42 225.482C257.944 224.752 255.481 224.132 255.438 224.031C255.376 223.891 255.859 221.494 255.676 221.326C255.492 221.163 253.163 220.221 251.182 219.251C249.875 218.614 248.721 217.972 248.419 217.588ZM292.643 234.689C293.255 235.112 293.253 236.088 293.614 235.929C293.736 235.874 293.937 234.984 294.347 234.827C293.78 234.783 293.211 234.737 292.643 234.689ZM242.309 218.647C242.001 217.298 245.225 219.169 245.288 219.323C245.578 220.271 242.562 219.761 242.309 218.647ZM271.5 229.294C271.39 229.196 268.847 228.035 268.68 228.627C269.239 229.308 272.757 230.532 271.5 229.294ZM294.807 234.856C295.564 235.093 296.763 235.898 297.293 235.619C297.452 235.536 297.55 235.356 297.558 235.036C297.557 235.035 297.555 235.035 297.554 235.035C297.504 235.032 297.455 235.029 297.405 235.026C296.541 234.975 295.675 234.919 294.807 234.856ZM209.533 198.567C209.18 195.662 208.349 198.457 209.389 200.023C210.376 199.506 209.595 199.042 209.533 198.567ZM205.399 193.616C205.325 193.385 204.658 192.847 203.839 192.311C202.395 191.372 200.469 190.405 200.442 191.327C200.43 191.742 202.483 192.587 203.341 192.966C203.557 193.063 203.698 193.133 203.713 193.164C203.823 193.395 202.22 193.792 203.762 194.634C203.942 194.227 205.471 193.835 205.399 193.616ZM209.009 196.499C208.4 194.037 206.259 196.271 207.447 197.129C207.912 197.464 209.097 196.854 209.009 196.499ZM215.371 201.063C214.947 200.449 213.653 199.108 212.034 199.252C213.399 200.267 214.771 201.257 216.154 202.228C216.626 201.842 215.74 201.602 215.368 201.06C215.369 201.061 215.37 201.062 215.371 201.063ZM526.685 132.033C526.182 130.891 528.217 131.356 528.219 131.599C528.175 132.35 526.9 132.535 526.685 132.033ZM120.968 105.661C120.757 105.228 120.892 104.072 120.001 104.419C120.463 105.447 120.911 106.476 121.344 107.505C122.494 105.852 121.2 106.136 120.968 105.661ZM120.297 98.0622C120.416 98.0501 120.697 95.0306 121.49 97.3453C121.999 98.8869 116.677 98.6553 116.116 97.1689C117.279 96.8454 119.291 98.1516 120.297 98.0622ZM114.441 83.1837C114.432 82.9347 116.607 83.1065 116.807 83.3335C117.852 84.5026 114.493 84.4897 114.441 83.1837ZM120.924 85.4504C120.107 84.6218 122.365 84.8696 122.909 85.3803C122.814 85.926 121.052 85.5707 120.924 85.4504ZM528.427 87.5455C527.722 85.2999 525.724 89.3007 527.679 88.8574C527.771 88.8368 528.452 87.6533 528.427 87.5455ZM117.209 80.7769C118.058 81.5844 115.779 81.3937 115.198 80.9192C115.265 80.3651 117.08 80.6544 117.209 80.7769ZM528.711 82.6718C527.417 80.8835 526.927 85.7736 527.071 86.0059C527.697 86.9302 530.866 85.7503 531.573 85.459C527.271 85.1038 529.3 83.5275 528.711 82.6718ZM520.804 84.0847C519.287 84.3589 522.757 85.9258 523.741 84.7859C523.746 84.7794 523.752 84.7729 523.757 84.7663C523.753 84.7659 523.749 84.7655 523.745 84.765C523.002 84.6782 521.242 84.0001 520.804 84.0847ZM512.05 81.4502C511.269 81.2038 508.915 80.639 508.482 81.3916C509.358 81.2886 511.651 82.203 512.05 81.4502ZM510.395 79.0261C509.185 77.9073 508.718 80.9219 510.215 80.1063C510.274 80.0749 510.438 79.087 510.395 79.0261ZM503.309 77.6768C502.475 76.4641 501.544 79.4066 502.87 79.4862C503.262 79.5059 503.396 77.8159 503.309 77.6768ZM527.798 77.0942C526.658 76.3213 524.685 78.0723 527.23 78.8317C526.423 78.9312 525.625 79.0407 524.82 79.1568C524.651 79.1814 524.482 79.2065 524.313 79.232C524.47 79.3206 524.619 79.398 524.761 79.4652C527.479 80.7705 527.851 78.1841 528.765 78.4995C530.103 78.9822 529.426 81.3038 528.987 81.9757C530.408 80.7687 535.106 81.9707 537.832 82.586C535.703 81.2337 532.094 79.1191 529.778 78.1899C529.114 77.9174 528.304 78.4129 527.739 78.215C526.829 77.8954 527.858 77.1425 527.803 77.0952C527.801 77.0949 527.8 77.0945 527.798 77.0942ZM494.05 77.8953C491.569 76.6933 493.287 79.5286 494.584 78.9231C494.64 78.8791 494.112 77.9246 494.05 77.8953ZM116.38 71.3477C119.141 73.2906 116.514 74.2667 123.432 73.5396C120.341 74.5195 122.954 74.7179 122.253 75.2626C121.699 75.6908 120.289 74.8374 120.888 76.1651C120.04 74.6401 114.837 73.7386 114.644 73.5117C114.646 73.5122 114.648 73.5127 114.65 73.5132C114.536 73.367 115.491 70.7391 116.38 71.3477ZM512.659 73.7542C512.068 70.1157 511.323 75.7551 509.843 72.6925C507.352 76.8296 516.035 73.1111 516.673 76.94C507.801 75.5702 522.147 81.1787 516.547 75.0704C521.508 77.6878 518.354 74.6159 519.253 74.0278C520.232 73.4007 523.118 74.6738 523.182 73.3401C523.18 73.3399 523.178 73.3396 523.177 73.3393C521.315 73.1208 519.441 72.9458 517.59 72.817C519.017 75.8906 515.442 74.5777 514.377 72.1414C513.796 72.6749 513.225 73.2127 512.659 73.7542ZM522.53 77.7003C522.37 77.5869 518.42 77.4061 518.602 78.0298C519.064 78.4247 524.588 78.895 522.53 77.7003ZM539.585 81.3058C538.233 80.8408 536.269 79.6555 535.224 80.4876C536.587 80.8841 538.506 82.0852 539.585 81.3058ZM470.022 78.8211C468.629 80.016 473.534 79.2798 471.924 78.5338C471.843 78.4971 470.089 78.7625 470.022 78.8211ZM508.527 74.0324C506.748 72.8607 507.476 76.3743 508.841 75.5313C508.922 75.4817 508.61 74.0861 508.527 74.0324ZM118.943 71.5268C119.258 70.7096 123.527 72.4414 124.288 72.6665C123.638 73.2855 118.587 72.4277 118.943 71.5268ZM543.029 79.1172C541.289 75.2107 536.292 77.416 535.959 77.2522C535.568 77.0574 536.588 75.9547 536.505 75.8935C536.315 75.7326 531.783 74.6426 531.549 74.7085C531.38 74.7424 531.731 76.7685 530.68 77.1246C532.729 76.4139 540.579 79.4746 541.012 79.4871C541.387 79.4439 539.618 76.7312 543.024 79.1155C543.026 79.116 543.027 79.1166 543.029 79.1172ZM535.025 76.5603C535.918 77.6264 532.794 76.8641 532.116 76.4076C530.599 75.3465 534.905 76.4058 535.025 76.5603ZM527.639 74.019C527.489 73.9047 526.732 73.6682 525.899 73.534C524.921 73.3749 523.863 73.3648 523.633 73.8086C524.14 74.3323 524.932 74.5642 525.689 74.6286C526.943 74.7344 528.094 74.3782 527.639 74.019ZM491.727 72.0152C490.928 72.1833 488.663 71.7091 488.611 72.4904C489.4 72.296 491.656 72.7878 491.727 72.0152ZM135.941 69.5345C134.905 68.5011 137.874 69.2344 138.601 69.8295C138.474 70.3244 136.031 69.6185 135.941 69.5345ZM508.549 66.6729C508.253 66.5182 504.542 66.5043 501.272 66.7569C498.916 66.9265 496.786 67.2051 496.196 67.3823C496.797 67.6012 498.941 67.662 501.28 67.7152C504.477 67.7719 508.05 67.8637 508.333 67.7165C508.474 67.6376 508.614 66.7126 508.549 66.6729ZM531.709 69.4855C532.959 68.6152 533.272 70.095 533.388 70.1411C534.545 70.5981 537.102 71.0402 536.263 71.9418C534.272 70.899 529.267 71.2261 531.709 69.4855ZM490.624 66.962C487.263 67.6573 493.875 68.3212 492.944 67.2233C492.884 67.1524 490.973 66.8859 490.624 66.962ZM509.748 66.4018C510.578 65.4068 521.27 67.2547 522.99 67.6753C521.185 69.1004 520.147 67.6527 518.064 67.4874C517.502 67.4465 517.571 68.1621 517.511 68.156C516.546 68.0795 517.356 67.3546 516.763 67.2766C516.36 67.1592 508.553 67.5814 509.748 66.4018ZM532.451 68.8549C533.194 68.3053 539.995 69.8873 540.186 70.1832C541.806 71.9618 532.942 69.0986 532.451 68.8549ZM508.846 64.8541C510.094 62.9192 515.419 64.6422 511.661 65.3458C511.309 65.4094 509.879 64.4681 508.846 64.8541ZM490.843 65.071C490.664 65.0155 487.042 64.9509 487.047 65.5886C487.574 65.7531 492.819 65.5466 490.843 65.071ZM492.581 62.8298C492.495 62.8514 493.428 63.9908 491.707 63.9572C491.568 63.9557 491.191 62.6154 489.088 63.2929C488.661 63.4324 488.077 64.3861 488.132 64.437C490.457 66.3039 496.985 61.8682 492.581 62.8298ZM532.83 67.819C532.593 67.1757 533.883 65.7398 534.476 66.7743C534.725 67.2202 533.844 68.0421 532.83 67.819ZM479.574 65.7918C480.795 64.9395 478.503 64.9419 476.703 65.1702C475.745 65.2894 474.927 65.4671 474.832 65.5761C474.968 65.8376 475.855 65.9264 476.827 65.9422C478.074 65.9604 479.469 65.8636 479.574 65.7918ZM141.51 63.0813C141.509 63.0807 141.507 63.0802 141.506 63.0796C143.037 63.8814 141.746 64.3233 141.814 64.3759C141.985 64.5147 142.145 64.6387 142.295 64.749C144.746 66.5682 144.583 64.6672 145.162 64.6536C146.476 64.6304 145.444 66.7497 147.697 66.5931C144.031 66.6967 147.111 67.2581 146.884 68.0722C146.077 71.0052 143.929 66.292 142.11 65.2539C141.879 65.1202 141.657 65.047 141.449 65.0582C141.308 65.0655 141.63 65.5623 141.829 66.0204C141.99 66.3912 142.072 66.7361 141.773 66.7741C141.701 66.7833 141.626 66.7843 141.551 66.7779C139.411 66.5976 135.795 60.1746 141.51 63.0813ZM535.128 66.7859C536.284 65.9856 542.635 68.8926 540.627 69.1659C540.325 69.1536 533.491 67.84 535.128 66.7859ZM325.642 167.376C325.514 166.472 324.398 165.876 324.958 166.362C325.106 166.663 325.554 167.843 325.642 167.376ZM328.309 162.017C327.283 162.113 325.773 165.615 327.194 165.174C327.342 165.126 328.39 162.528 328.309 162.017ZM350.384 131.689C348.7 132.242 350.915 133.181 351.256 132.37C351.379 132.076 350.438 131.67 350.384 131.689ZM329.727 162.696C329.68 162.68 329.574 162.801 329.526 162.981C329.481 163.15 329.487 163.372 329.667 163.57C329.775 163.6 329.88 163.561 329.958 163.485C330.164 163.285 330.169 162.859 329.727 162.696ZM350.239 131.185C350.296 131.763 351.278 131.761 351.559 131.194C351.757 130.784 351.812 130.212 351.533 129.516C351.417 129.932 351.024 130.424 350.689 130.797C350.45 130.998 350.235 131.143 350.239 131.185ZM504.932 59.4102C504.223 60.0897 502.643 60.1328 501.219 60.1789C500.613 60.1977 500.034 60.2154 499.563 60.2752C499.479 59.7306 500.229 59.5198 501.213 59.4507C502.532 59.3552 504.269 59.5296 504.932 59.4102ZM331.976 163.723C331.772 164.28 331.982 164.787 332.025 164.793C332.055 164.796 332.024 164.62 332.032 164.173C332.033 164.14 332.055 164.016 332.039 163.906C332.028 163.799 331.982 163.704 331.976 163.723ZM407.459 80.8761C406.632 81.9927 410.455 81.6831 409.042 80.7731C408.977 80.7369 407.507 80.8113 407.459 80.8761ZM421.063 76.6312C420.291 76.6206 417.443 77.6708 418.801 77.9965C419.008 78.047 421.232 77.312 421.063 76.6312ZM145.585 63.829C145.6 62.4231 148.126 63.7356 148.411 64.103C148.517 64.2454 145.557 65.6451 145.585 63.829ZM347.006 138.125C346.891 138.71 345.932 139.844 346.416 140.393C346.616 139.735 348.313 138.596 347.006 138.125ZM329.373 163.994C329.54 163.702 329.738 163.46 329.939 163.274C330.912 162.429 331.552 162.787 331.437 164.32C330.227 164.316 331.349 162.903 329.993 163.648C329.833 163.731 329.632 163.843 329.373 163.994ZM352.342 123.526C351.634 124.585 352.831 126.178 352.965 126.101C354.236 125.394 353.551 122.788 352.342 123.526ZM335.371 155.634C334.769 155.164 334.238 156.328 334.717 156.524C334.878 156.594 335.86 156.018 335.371 155.634ZM471.924 61.8752C470.71 61.3851 473.907 60.1061 475.043 60.7542C475.71 61.8285 472.071 61.9206 471.924 61.8752ZM373.002 98.9289C372.379 97.904 368.448 102.307 370.798 101.458C371.371 101.237 373.194 99.2506 373.002 98.9289ZM411.332 77.0207C410.346 78.1434 412.824 77.9302 414.52 77.5121C414.521 77.5121 414.52 77.5122 414.521 77.5121C415.885 77.1794 416.953 76.5873 415.758 76.1752C415.68 76.1481 414.955 76.2455 414.137 76.3778C414.137 76.3779 414.137 76.3778 414.137 76.3778C412.946 76.5817 411.433 76.915 411.332 77.0207ZM424.906 73.3091C424.522 73.2807 423.468 69.6038 425.344 70.5289C425.588 70.6483 425.047 71.895 425.271 72.0634C425.395 72.1593 428.639 71.6422 428.76 71.5098C428.882 71.3628 428.315 70.2605 428.428 70.0784C428.555 69.8743 430.812 70.2615 431.835 69.9409C432.048 69.8736 432.237 69.8011 432.404 69.7252C433.744 69.1167 433.683 68.2912 433.823 68.2427C434.285 68.0867 435.288 68.5246 436.238 68.2221C440.933 66.7032 448.321 63.6372 453.066 64.5515C453.112 64.5603 453.158 64.5694 453.203 64.579C453.16 64.5805 453.118 64.5823 453.075 64.5842C449.229 64.7629 446.097 66.6044 442.759 67.9033C443.138 65.5582 438.188 71.0163 441.006 67.5833C440.264 68.0855 436.43 69.5216 432.766 70.8393C429.073 72.1619 425.535 73.3451 424.91 73.3078C424.909 73.3082 424.907 73.3086 424.906 73.3091ZM324.157 160.562C324.944 159.338 321.553 159.263 321.086 160.716C321.503 160.984 324.059 160.705 324.157 160.562ZM324.007 159.516C323.457 159.548 321.993 158.959 321.422 158.734C321.497 158.422 321.54 158.342 321.465 158.9C321.464 158.9 321.464 158.901 321.463 158.901C321.506 159.297 321.894 159.802 321.97 160.011C321.869 160.159 322.643 161.194 322.594 161.444C323.044 161.588 321.925 159.663 321.981 159.614C321.975 159.616 321.996 159.732 321.931 159.943C322.482 160.088 326.136 159.698 325.58 160.125C325.563 160.161 324.351 160.233 323.912 160.532C323.024 161.361 323.843 161.911 323.704 162.002C323.623 162.056 323.038 162.224 322.88 162.198C323.252 161.755 322.452 161.602 323.031 161.909C323.074 161.961 323.122 162.029 323.175 162.114C323.201 162.154 323.214 162.209 323.219 162.274C323.06 162.602 323.549 162.704 323.241 163.058C324.16 162.771 326.651 162.085 326.827 162.053C326.95 162.017 327.026 161.989 327.049 161.967C327.235 161.79 326.601 159.67 326.793 159.399C326.861 159.306 328.435 159.252 329.368 159.317C329.954 159.345 330.353 159.379 330.455 159.291C330.534 159.225 330.591 159.156 330.631 159.1C330.481 159.502 331.058 159.601 331.383 159.507C331.646 159.432 331.795 159.232 331.777 158.897C331.766 158.745 331.599 158.716 331.345 158.742C331.1 158.766 330.771 158.849 330.75 158.877C330.732 158.901 330.717 158.934 330.702 158.956C330.77 158.64 330.249 158.476 329.24 158.437C328.276 158.386 326.783 158.531 325.877 158.505C325.254 158.482 324.954 158.329 325.371 157.879C322.46 158.055 326.373 159.45 324.007 159.516ZM321.86 158.817C321.95 159.033 322.039 159.25 322.128 159.467C322.157 159.326 322.226 159.232 322.327 159.165C322.546 159.021 322.919 159.005 323.322 158.954C323.704 158.906 324.111 158.826 324.4 158.601C324.402 158.599 324.403 158.598 324.405 158.597C324.564 158.442 323.513 157.494 323.975 157.623C324.342 157.73 325.377 158.585 325.466 158.893C325.484 158.959 324.829 158.717 324.535 158.767C324.48 158.777 324.437 158.797 324.414 158.832C323.964 159.49 324.81 160.373 324.796 160.426C324.784 160.459 324.492 160.346 324.212 160.263C323.991 160.199 323.777 160.152 323.695 160.226C323.499 160.402 323.419 160.632 323.31 160.808C323.17 161.044 322.935 161.197 322.475 160.825C322.467 160.819 322.46 160.812 322.452 160.806C322.449 160.792 322.446 160.778 322.443 160.764C322.277 159.924 321.338 158.525 321.86 158.817ZM390.047 83.612C389.94 83.1883 390.797 82.7736 391.719 82.4155C392.461 82.1258 393.236 81.876 393.623 81.6392C393.725 82.0751 392.865 82.4423 391.913 82.8105C391.196 83.0866 390.441 83.3564 390.047 83.612ZM229.86 110.947C228.565 111.468 231.784 114.811 231.585 113.217C231.545 112.863 230.291 111.345 229.86 110.947ZM243.987 125.287C244.408 125.308 244.16 124.22 243.675 124.058C243.675 124.057 243.675 124.058 243.675 124.058C243.519 123.99 243.358 124.004 243.214 124.153C243.16 124.209 243.194 124.325 243.276 124.466C243.444 124.819 243.938 125.288 243.987 125.287ZM333.479 148.606C333.486 148.533 334.274 147.93 334.344 147.941C335.806 148.218 333.304 150.301 333.479 148.606ZM256.076 132.867C254.512 132.823 257.642 135.317 257.199 133.764C257.174 133.689 256.147 132.869 256.076 132.867ZM260.906 135.645C260.781 135.592 260.531 135.372 260.269 135.156C259.898 134.852 259.506 134.553 259.378 134.739C259.18 135.027 259.466 135.542 259.885 135.788C260.209 135.979 260.608 136.006 260.906 135.645ZM348.598 120.472C347.177 120.046 350.846 115.896 351.799 114.229C353.175 114.674 349.441 118.506 348.598 120.472ZM339.653 136.039C340.013 135.067 340.353 134.247 340.666 133.576C342.377 129.819 343.354 130.918 341.761 134.134C341.359 134.93 340.791 135.841 340.033 136.792C339.228 136.367 339.473 136.523 339.653 136.039ZM345.407 124.626C345.782 125.554 345.047 126.959 344.497 127.974C344.419 128.105 344.342 128.229 344.275 128.344C344.125 128.231 344.091 128.039 344.122 127.803C344.327 126.939 345.12 125.454 345.407 124.626ZM226.976 105.781C227.626 105.627 228.372 106.324 228.884 107.091C229.452 107.942 229.733 108.877 229.317 108.839C229.245 108.83 228.755 108.38 228.232 107.827C227.451 107.002 226.592 105.948 226.976 105.781ZM332.852 147.409C331.647 146.731 333.319 145.361 333.664 145.386C335.057 145.549 332.708 147.113 332.852 147.409ZM369.037 93.8757C369.298 92.2247 372.431 90.4394 374.22 89.186C373.949 90.4969 370.535 92.6077 369.037 93.8757ZM356.535 105.263C356.582 105.116 358.813 102.673 358.961 102.607C361.488 101.275 355.266 108.113 356.535 105.263ZM142.663 52.4835C142.74 52.4714 144.172 53.0462 144.208 53.1037C145.155 54.5339 140.876 52.8126 142.663 52.4835Z" fill="url(#paint0_linear_19476_38078)"/>
</g>
<use xlink:href="#Repeat%20group%201_inner" transform="translate(392.732 -105.232) rotate(60)"/>
<use xlink:href="#Repeat%20group%201_inner" transform="translate(680.232 182.268) rotate(120)"/>
<use xlink:href="#Repeat%20group%201_inner" transform="translate(575 575) rotate(-180)"/>
<use xlink:href="#Repeat%20group%201_inner" transform="translate(182.268 680.232) rotate(-120)"/>
<use xlink:href="#Repeat%20group%201_inner" transform="translate(-105.232 392.732) rotate(-60)"/>
</g>
<defs>
<filter id="filter0_d_19476_38078" x="-32" y="-36" width="720" height="655" filterUnits="userSpaceOnUse" color-interpolation-filters="sRGB">
<feFlood flood-opacity="0" result="BackgroundImageFix"/>
<feColorMatrix in="SourceAlpha" type="matrix" values="0 0 0 0 0 0 0 0 0 0 0 0 0 0 0 0 0 0 127 0" result="hardAlpha"/>
<feOffset dx="4" dy="4"/>
<feGaussianBlur stdDeviation="20"/>
<feComposite in2="hardAlpha" operator="out"/>
<feColorMatrix type="matrix" values="0 0 0 0 0 0 0 0 0 0 0 0 0 0 0 0 0 0 0.15 0"/>
<feBlend mode="normal" in2="BackgroundImageFix" result="effect1_dropShadow_19476_38078"/>
<feBlend mode="normal" in="SourceGraphic" in2="effect1_dropShadow_19476_38078" result="shape"/>
</filter>
<linearGradient id="paint0_linear_19476_38078" x1="324" y1="95.9946" x2="324" y2="205.426" gradientUnits="userSpaceOnUse">
<stop stop-color="#DCFCE4" stop-opacity="0.4"/>
<stop offset="0.5" stop-color="#5263F9"/>
<stop offset="1" stop-color="white"/>
</linearGradient>
</defs>
</svg>
