<svg width="25" height="25" viewBox="0 0 25 25" fill="none" xmlns="http://www.w3.org/2000/svg">
<path d="M14.5544 14.4346L16.7106 15.5108C16.6084 16.0215 16.3322 16.481 15.929 16.8107C15.5259 17.1405 15.0208 17.3203 14.5 17.3192C12.7104 17.3173 10.9947 16.6055 9.72922 15.34C8.46378 14.0746 7.75198 12.3588 7.75 10.5692C7.74985 10.049 7.92997 9.54486 8.25968 9.1425C8.5894 8.74014 9.04835 8.46446 9.55844 8.36237L10.6347 10.5186L9.71875 11.8817C9.65031 11.9844 9.60825 12.1024 9.59631 12.2252C9.58437 12.348 9.60292 12.4719 9.65031 12.5858C10.1869 13.8612 11.2015 14.8758 12.4769 15.4124C12.5911 15.4619 12.716 15.4821 12.84 15.4713C12.9641 15.4605 13.0835 15.419 13.1875 15.3505L14.5544 14.4346ZM22 12.8192C22.0004 14.5026 21.5649 16.1573 20.736 17.6224C19.9072 19.0875 18.7131 20.313 17.27 21.1797C15.827 22.0464 14.1841 22.5247 12.5014 22.5681C10.8186 22.6115 9.1533 22.2185 7.6675 21.4274L4.47531 22.4914C4.21102 22.5796 3.9274 22.5924 3.65624 22.5284C3.38509 22.4644 3.13711 22.3261 2.94011 22.1291C2.74311 21.9321 2.60486 21.6842 2.54087 21.413C2.47688 21.1418 2.48967 20.8582 2.57781 20.5939L3.64187 17.4017C2.94639 16.0941 2.55793 14.6453 2.506 13.1652C2.45406 11.685 2.74001 10.2125 3.34213 8.85937C3.94425 7.50624 4.84672 6.30807 5.98105 5.3558C7.11537 4.40353 8.45173 3.72219 9.88869 3.3635C11.3256 3.00481 12.8254 2.9782 14.2742 3.28568C15.723 3.59317 17.0827 4.22666 18.2501 5.13809C19.4175 6.04952 20.3619 7.21492 21.0116 8.54583C21.6614 9.87675 21.9994 11.3382 22 12.8192ZM18.25 15.0692C18.2501 14.9299 18.2114 14.7933 18.1382 14.6747C18.065 14.5562 17.9602 14.4603 17.8356 14.398L14.8356 12.898C14.7175 12.8391 14.586 12.8125 14.4543 12.8207C14.3226 12.829 14.1955 12.8718 14.0856 12.9449L12.7084 13.8636C12.0762 13.5161 11.556 12.9958 11.2084 12.3636L12.1272 10.9864C12.2003 10.8766 12.2431 10.7494 12.2513 10.6177C12.2596 10.486 12.2329 10.3545 12.1741 10.2364L10.6741 7.23643C10.6119 7.11087 10.5158 7.00524 10.3967 6.9315C10.2775 6.85777 10.1401 6.81888 10 6.81924C9.00544 6.81924 8.05161 7.21433 7.34835 7.91759C6.64509 8.62085 6.25 9.57468 6.25 10.5692C6.25248 12.7565 7.12247 14.8535 8.66911 16.4001C10.2157 17.9468 12.3127 18.8168 14.5 18.8192C14.9925 18.8192 15.4801 18.7222 15.9351 18.5338C16.39 18.3453 16.8034 18.0691 17.1517 17.7209C17.4999 17.3727 17.7761 16.9593 17.9645 16.5043C18.153 16.0493 18.25 15.5617 18.25 15.0692Z" fill="white"/>
</svg>
