<svg width="24" height="24" viewBox="0 0 24 24" fill="none" xmlns="http://www.w3.org/2000/svg">
<path d="M22.2799 6.31861C18.8394 0.999824 11.815 -0.581437 6.36751 2.72484C1.06338 6.03111 -0.656877 13.2187 2.78364 18.5375L3.07035 18.9687L1.92351 23.2812L6.22416 22.1312L6.65422 22.4187C8.51784 23.425 10.5248 24 12.5318 24C14.6821 24 16.8324 23.425 18.696 22.275C24.0002 18.825 25.5771 11.7812 22.2799 6.31861ZM19.2695 17.3874C18.696 18.25 17.9793 18.825 16.9758 18.9687C16.4024 18.9687 15.6856 19.2562 12.8185 18.1062C10.3814 16.9562 8.37448 15.0874 6.94093 12.9312C6.0808 11.9249 5.65074 10.6311 5.50738 9.33739C5.50738 8.18738 5.93745 7.18112 6.65422 6.46237C6.94093 6.17486 7.22764 6.03111 7.51435 6.03111H8.23113C8.51784 6.03111 8.80455 6.03111 8.9479 6.60612C9.23461 7.32487 9.95138 9.04989 9.95138 9.19364C10.0947 9.33739 10.0947 9.62489 9.95138 9.76864C10.0947 10.0561 9.95139 10.3436 9.80803 10.4874C9.66468 10.6311 9.52132 10.9187 9.37797 11.0624C9.09126 11.2062 8.9479 11.4937 9.09126 11.7812C9.66468 12.6437 10.3814 13.5062 11.0982 14.2249C11.9584 14.9437 12.8185 15.5187 13.822 15.9499C14.1087 16.0937 14.3954 16.0937 14.5387 15.8062C14.6821 15.5187 15.3989 14.7999 15.6856 14.5124C15.9723 14.2249 16.1156 14.2249 16.4024 14.3687L18.696 15.5187C18.9827 15.6624 19.2695 15.8062 19.4128 15.9499C19.5562 16.3812 19.5562 16.9562 19.2695 17.3874Z" fill="white" fill-opacity="0.72"/>
</svg>
