<svg width="10" height="8" viewBox="0 0 10 8" fill="none" xmlns="http://www.w3.org/2000/svg">
<path d="M7.39247 7.03108H1.86881C1.80269 7.03167 1.7381 7.0112 1.68439 6.97262C1.63069 6.93405 1.59067 6.87938 1.57012 6.81653L0.228116 2.72322C0.207556 2.66435 0.205398 2.60063 0.22193 2.54051C0.238462 2.4804 0.272901 2.42673 0.320668 2.38666C0.367846 2.34527 0.426433 2.3191 0.488744 2.3116C0.551056 2.30409 0.614182 2.31559 0.669841 2.34459L3.11826 3.5646L4.38033 1.11618C4.40942 1.06737 4.45069 1.02695 4.5001 0.998881C4.54951 0.970812 4.60536 0.956055 4.66219 0.956055C4.71901 0.956055 4.77487 0.970812 4.82427 0.998881C4.87368 1.02695 4.91496 1.06737 4.94405 1.11618L6.20612 3.5688L8.65874 2.3488C8.71377 2.32015 8.77617 2.30884 8.83775 2.31635C8.89933 2.32386 8.95719 2.34984 9.00371 2.39087C9.04399 2.43501 9.07091 2.48967 9.08133 2.54851C9.09176 2.60734 9.08527 2.66793 9.06261 2.72322L7.69116 6.81232C7.67134 6.87595 7.63163 6.93155 7.57787 6.97093C7.5241 7.01031 7.45911 7.03139 7.39247 7.03108ZM2.12122 6.40005H7.1695L8.22543 3.24908L6.17667 4.26715C6.13999 4.28592 6.09994 4.29722 6.05885 4.30039C6.01776 4.30356 5.97645 4.29855 5.93732 4.28563C5.89819 4.27272 5.86201 4.25216 5.83088 4.22516C5.79975 4.19815 5.77429 4.16524 5.75598 4.12832L4.64536 1.94915L3.53895 4.12832C3.52064 4.16524 3.49518 4.19815 3.46405 4.22516C3.43292 4.25216 3.39674 4.27272 3.35761 4.28563C3.31847 4.29855 3.27717 4.30356 3.23608 4.30039C3.19499 4.29722 3.15494 4.28592 3.11826 4.26715L1.06108 3.23646L2.12122 6.40005Z" fill="#FDBA22" stroke="#FDBA22" stroke-width="0.42069"/>
<path d="M6.33497 3.98605L4.65221 1.46191L3.39014 3.98605L0.445312 3.14467L2.12807 6.51019H7.17635L8.85911 3.14467L6.33497 3.98605Z" fill="#FDBA22"/>
</svg>
