<svg width="17" height="17" viewBox="0 0 17 17" fill="none" xmlns="http://www.w3.org/2000/svg">
<path d="M4.85747 7.43653L4.95223 7.03033C4.95172 7.03021 4.95121 7.0301 4.9507 7.02998C4.95014 7.02985 4.94958 7.02972 4.94902 7.02959L4.85598 7.43619M4.85747 7.43653C4.85698 7.43642 4.85648 7.4363 4.85598 7.43619M4.85747 7.43653L4.77475 7.79116M4.85747 7.43653C4.88708 7.44341 4.91665 7.45051 4.94616 7.45784L5.12066 7.50116M4.85598 7.43619C4.54971 7.36515 4.23829 7.31829 3.92459 7.29604C3.92392 7.29599 3.92325 7.29594 3.92258 7.2959C3.92198 7.29585 3.92139 7.29581 3.9208 7.29577M4.85598 7.43619L4.77475 7.79116M4.77475 7.79116L9.11567 3.23835L9.14704 3.33389L9.19619 3.51516L9.3105 3.62952M4.77475 7.79116L9.68671 3.1111H9.89156H9.89464H9.89692L9.89578 3.10996C9.8492 2.93819 9.82533 2.76105 9.82477 2.58308C9.82477 2.45365 9.83737 2.31964 9.87058 2.19021M5.12066 7.50116V7.82208M5.12066 7.50116L5.12295 7.50173L5.20628 7.52242L5.12295 7.81407L5.12066 7.82208M5.12066 7.50116V7.10154H5.12295L5.28219 7.31745M5.12066 7.82208L5.10462 7.87821L5.12066 7.82468M5.12066 7.82208V7.82468M5.12066 7.82468V7.88279L5.12295 7.87477L5.22248 7.52644M5.12066 7.82468L5.12295 7.81703L5.21087 7.52355L5.22248 7.52644M5.22248 7.52644L5.24033 7.53087L5.35583 7.55954L5.37457 7.5642L5.45088 7.48791M5.22248 7.52644L5.28181 7.31878L5.30375 7.34074L5.30465 7.34164L5.45088 7.48791M5.45088 7.48791L5.70818 7.74528L5.4514 7.48739M5.45088 7.48791L5.4514 7.48739M5.4514 7.48739L5.68674 7.25212L9.27639 3.66362L9.3105 3.62952M5.4514 7.48739L5.30416 7.33952L5.28219 7.31745M9.3105 3.62952L9.34322 3.66225L9.34437 3.6634L9.53378 3.47407L9.53406 3.47379L9.6458 3.36211L9.79181 3.21617M9.3105 3.62952L9.4999 3.44018L9.50022 3.43986L9.56251 3.37758L9.55617 3.34067L9.53741 3.23142L9.53342 3.20822L9.51713 3.1134H9.689L9.73042 3.1548L9.7404 3.16478L9.79066 3.21503L9.79181 3.21617M9.79181 3.21617L9.92283 3.34717C9.93044 3.26857 9.92173 3.18896 9.89692 3.1134H9.89463L9.89351 3.11452L9.79181 3.21617ZM9.87058 2.19021L10.2622 2.5817L10.4248 2.58119L10.4483 2.55766L10.4495 2.55881L10.4717 2.58105L10.606 2.58062C10.606 2.58103 10.606 2.58144 10.606 2.58185M9.87058 2.19021L10.5645 2.36831M9.87058 2.19021L9.47781 2.58308L9.47672 2.58418L10.5645 2.36831M10.606 2.58185C10.606 2.58226 10.606 2.58267 10.606 2.58308H10.4737L10.6147 2.72409M10.606 2.58185C10.6062 2.62944 10.6091 2.67693 10.6147 2.72409M10.606 2.58185C10.6061 2.52034 10.6108 2.46723 10.619 2.42273M10.6147 2.72409C10.6213 2.78012 10.6317 2.83568 10.6458 2.89041C10.6563 2.9242 10.6654 2.95831 10.6732 2.99267L10.6782 2.99761V2.78761L10.6147 2.72409ZM10.619 2.42273L14.2702 6.07398M10.619 2.42273C10.6214 2.40915 10.6242 2.39638 10.6273 2.38442L10.5645 2.36831M10.619 2.42273L10.5645 2.36831M14.2702 6.07398C14.2258 6.08206 14.1731 6.08673 14.1108 6.08673C14.023 6.08673 13.9406 6.07613 13.8776 6.06437M14.2702 6.07398L14.326 6.12973M14.2702 6.07398C14.2841 6.07145 14.2972 6.06859 14.3095 6.06543L14.326 6.12973M13.8776 6.06437L13.8226 6.05178M13.8776 6.06437C13.8738 6.06368 13.8702 6.06298 13.8666 6.06228L13.8658 6.06663C13.8514 6.06143 13.8371 6.05648 13.8226 6.05178M13.8776 6.06437L13.8913 6.06752L13.8648 6.18339L14.1108 6.42939L14.5037 6.82216M13.8226 6.05178C13.782 6.03856 13.7408 6.0273 13.6993 6.01801L13.7706 6.08926L13.7813 6.04232L13.8226 6.05178ZM14.5037 6.82216C14.3742 6.85538 14.2414 6.86798 14.1108 6.86798C13.955 6.86798 13.8164 6.8485 13.7168 6.82903L13.6068 6.80383C13.5235 6.7722 13.4341 6.76058 13.346 6.7695L13.5445 6.96799L13.5646 6.98805L13.6588 7.08219L13.6659 7.08934L13.7873 7.21067M14.5037 6.82216L14.1108 7.21513L14.0928 7.23319M14.5037 6.82216L14.326 6.12973M13.7873 7.21067C13.7615 7.20713 13.7368 7.20333 13.7134 7.19939L13.6466 7.18817L13.6349 7.18621L13.5235 7.16749L13.4721 7.15886L13.3606 7.14012L13.3162 7.13267L13.2562 7.19271L13.2554 7.19352L13.0315 7.41741L9.44186 11.0071L9.20628 11.2426M13.7873 7.21067L13.9513 7.37466L14.0928 7.23319M13.7873 7.21067C13.8775 7.22306 13.9811 7.23228 14.0928 7.23319M9.20628 11.2426L8.9474 10.9845L9.20587 11.243M9.20628 11.2426L9.20587 11.243M9.20628 11.2426L9.35294 11.3889L9.36532 11.4012L9.38274 11.3959L9.55626 11.3425C9.55474 11.3358 9.55287 11.3291 9.55067 11.3226L9.5912 11.4434L9.19246 11.5721M9.20587 11.243L9.1297 11.3192L9.13427 11.3376L9.16281 11.4526L9.16532 11.4627M9.20587 11.243L9.35127 11.3885L9.35198 11.3892L9.36431 11.4015L9.16532 11.4627M9.16532 11.4627L8.81367 11.5709L8.80995 11.5721H8.86293H8.86458H9.19246M9.16532 11.4627L9.16908 11.4779L9.16991 11.4812L9.19217 11.5709L9.19246 11.5721M9.19246 11.5721L9.23604 11.7477C9.31917 12.0826 9.37328 12.4241 9.39778 12.7683C9.39782 12.7689 9.39786 12.7695 9.3979 12.7701C9.39797 12.771 9.39803 12.7719 9.39809 12.7728C9.41472 13.0279 9.41321 13.2933 9.38223 13.5536M9.38223 13.5536L9.04259 13.2141C9.03209 13.5473 8.97803 13.8646 8.86379 14.14M9.38223 13.5536C9.37913 13.5797 9.37573 13.6057 9.37203 13.6317M9.38223 13.5536L9.41616 13.5876L9.37203 13.6317M8.86379 14.14L8.23227 13.5086C8.21176 13.6349 8.18139 13.7461 8.14213 13.8408L8.86379 14.14ZM8.86379 14.14L9.37203 13.6317M9.37203 13.6317C9.34005 13.8558 9.2852 14.075 9.20014 14.2795C9.13307 14.4408 9.04721 14.593 8.93897 14.7312M8.93897 14.7312L8.60579 14.3981L5.85511 11.6484L5.44889 11.2423M8.93897 14.7312L9.09541 14.8875M8.93897 14.7312C8.89645 14.7854 8.85049 14.8375 8.80085 14.8872M5.44889 11.2423L5.04551 10.8388L2.29528 8.08757L1.96272 7.7549M5.44889 11.2423L5.30268 11.0961L5.00856 11.3903L5.59774 11.3912L5.44889 11.2423ZM1.96272 7.7549C2.10028 7.64711 2.25167 7.56147 2.4121 7.49445C2.61704 7.40884 2.83674 7.35363 3.06122 7.32149M1.96272 7.7549L1.80636 7.59848C1.84544 7.63759 1.8674 7.69062 1.8674 7.74592C1.8674 7.80122 1.84544 7.85425 1.80634 7.89336C1.85611 7.8436 1.90833 7.79752 1.96272 7.7549ZM3.06122 7.32149L2.5527 7.8301M3.06122 7.32149C3.08701 7.31779 3.11287 7.3144 3.13877 7.31131M3.06122 7.32149L3.10508 7.27762L3.13877 7.31131M2.5527 7.8301L2.85454 8.55069C2.94786 8.5116 3.05802 8.48127 3.18345 8.46074L2.5527 7.8301ZM2.5527 7.8301C2.82715 7.71514 3.14453 7.66083 3.47772 7.6502L3.13877 7.31131M3.13877 7.31131C3.39973 7.28013 3.66556 7.27874 3.9208 7.29577M3.9208 7.29577C3.92037 7.29574 3.91994 7.29571 3.91952 7.29568L3.94874 6.87866C3.94911 6.87868 3.94949 6.87871 3.94986 6.87873L3.92194 7.29585C3.92156 7.29582 3.92118 7.2958 3.9208 7.29577ZM9.09541 14.8875C9.0563 14.8484 9.00327 14.8265 8.94797 14.8265C8.89282 14.8265 8.83992 14.8483 8.80085 14.8872M9.09541 14.8875C9.09541 14.8875 9.09542 14.8875 9.09542 14.8875L9.09541 14.8875ZM8.80085 14.8872C8.80074 14.8873 8.80063 14.8874 8.80052 14.8875C8.80063 14.8874 8.80074 14.8873 8.80085 14.8872ZM14.0928 7.23319C14.0987 7.23323 14.1048 7.23326 14.1108 7.23326C14.2641 7.23326 14.4289 7.21756 14.5942 7.17497C14.7743 7.12858 14.9549 7.05028 15.1218 6.92558M14.326 6.12973L14.761 6.56477L15.1218 6.92558M15.1218 6.92558C15.1761 6.88502 15.2289 6.83955 15.2798 6.78868M15.1218 6.92558L15.2796 7.08333C15.2406 7.04424 15.2188 6.99131 15.2188 6.93613C15.2188 6.88083 15.2407 6.82779 15.2798 6.78868M15.2798 6.78868C15.2798 6.78865 15.2799 6.78862 15.2799 6.78859L15.4274 6.93606V6.93619L15.2799 7.08366L15.2798 7.08358L15.4273 6.93613L15.2798 6.78868ZM5.28219 7.31745L5.2914 7.2852L5.33482 7.13323L5.28219 7.31745ZM9.75725 0.97219L9.75719 0.694336L9.75769 0.972628L9.75725 0.97219ZM9.75858 1.47559C9.75838 1.47559 9.75818 1.47559 9.75797 1.47559L9.75858 1.47559ZM15.7899 7.29863L15.4274 6.93613L15.7899 7.29863ZM10.4229 2.58308L10.3432 2.66273L10.2635 2.58308H10.4229Z" fill="#262626" stroke="#262626" stroke-width="1.5625"/>
<line x1="1.36477" y1="0.352365" x2="16.3648" y2="16.3524" stroke="#262626"/>
</svg>
