<svg xmlns="http://www.w3.org/2000/svg" width="20" height="18" viewBox="0 0 20 18" fill="none">
  <path d="M19.1932 7.81666L19.1865 7.8138L1.39154 0.574904C1.08751 0.450102 0.739926 0.483256 0.46612 0.663173C0.176809 0.849099 0.00234656 1.16536 0.00195335 1.50459V6.13423C0.00211661 6.60517 0.343551 7.00952 0.815287 7.09743L10.5207 8.8575C10.5994 8.87213 10.6563 8.93956 10.6563 9.0181C10.6563 9.09664 10.5994 9.16407 10.5207 9.1787L0.815703 10.9388C0.34411 11.0265 0.00255456 11.4304 0.00195335 11.9012V16.5316C0.00172857 16.8555 0.167526 17.1579 0.443203 17.3363C0.606453 17.4426 0.798039 17.4995 0.994037 17.4997C1.1303 17.4996 1.26516 17.4728 1.3907 17.4208L19.1853 10.2232L19.1932 10.2195C19.6828 10.0132 20.0001 9.54074 20.0001 9.0181C20.0001 8.49546 19.6828 8.02302 19.1932 7.81666Z" fill="#3AC4A0"/>
</svg>